<svg width="205" height="40" viewBox="0 0 205 40" fill="none" xmlns="http://www.w3.org/2000/svg">
<path d="M24.6797 21.4062C24.6797 24.1536 23.7161 26.276 21.7891 27.7734C19.862 29.2578 17.1081 30 13.5273 30H0.753906V1.99219H12.6484C20.0833 1.99219 23.8008 4.2513 23.8008 8.76953C23.8008 9.74609 23.5664 10.6445 23.0977 11.4648C22.6289 12.2721 21.9128 12.9818 20.9492 13.5938C19.9987 14.2057 18.9505 14.6224 17.8047 14.8438V14.9219C19.1328 15.0781 20.3242 15.4753 21.3789 16.1133C22.4336 16.7383 23.2474 17.526 23.8203 18.4766C24.3932 19.4141 24.6797 20.3906 24.6797 21.4062ZM14.8359 10.2344C14.8359 8.5026 13.4753 7.63672 10.7539 7.63672H9.19141V12.9297H11.6328C12.5703 12.9297 13.3385 12.6823 13.9375 12.1875C14.5365 11.6797 14.8359 11.0286 14.8359 10.2344ZM15.7148 21.3672C15.7148 20.5599 15.4219 19.8958 14.8359 19.375C14.25 18.8542 13.4753 18.5938 12.5117 18.5938H9.19141V24.3164H12.0039C13.1497 24.3164 14.0547 24.056 14.7188 23.5352C15.3828 23.0013 15.7148 22.2786 15.7148 21.3672ZM39.257 4.60938C39.257 5.78125 38.8273 6.73177 37.968 7.46094C37.1216 8.1901 36.0018 8.55469 34.6086 8.55469C33.2544 8.55469 32.1411 8.17708 31.2687 7.42188C30.4094 6.66667 29.9797 5.72917 29.9797 4.60938C29.9797 3.46354 30.3964 2.53906 31.2297 1.83594C32.076 1.11979 33.2023 0.761719 34.6086 0.761719C36.0018 0.761719 37.1216 1.11979 37.968 1.83594C38.8273 2.53906 39.257 3.46354 39.257 4.60938ZM30.4484 30V10H38.7687V30H30.4484ZM67.8383 19.6484C67.8383 23.0208 66.8161 25.6706 64.7719 27.5977C62.7406 29.5247 59.8956 30.4883 56.2367 30.4883C52.6039 30.4883 49.7719 29.5508 47.7406 27.6758C45.7224 25.7878 44.7133 23.1901 44.7133 19.8828C44.7133 17.7604 45.1885 15.918 46.1391 14.3555C47.0896 12.793 48.4437 11.5951 50.2016 10.7617C51.9594 9.92839 53.9841 9.51172 56.2758 9.51172C58.6456 9.51172 60.6964 9.94792 62.4281 10.8203C64.1729 11.6927 65.5076 12.9036 66.432 14.4531C67.3695 16.0026 67.8383 17.7344 67.8383 19.6484ZM59.4008 19.6875C59.4008 16.9661 58.3591 15.6055 56.2758 15.6055C54.1924 15.6055 53.1508 17.0312 53.1508 19.8828C53.1508 22.8906 54.2055 24.3945 56.3148 24.3945C58.3721 24.3945 59.4008 22.8255 59.4008 19.6875Z" fill="#4B0EAE"/>
<path d="M74.5055 30V1.99219H82.943V23.3984H92.5914V30H74.5055ZM120.43 19.6484C120.43 23.0208 119.408 25.6706 117.364 27.5977C115.333 29.5247 112.488 30.4883 108.829 30.4883C105.196 30.4883 102.364 29.5508 100.333 27.6758C98.3146 25.7878 97.3055 23.1901 97.3055 19.8828C97.3055 17.7604 97.7807 15.918 98.7312 14.3555C99.6818 12.793 101.036 11.5951 102.794 10.7617C104.552 9.92839 106.576 9.51172 108.868 9.51172C111.238 9.51172 113.289 9.94792 115.02 10.8203C116.765 11.6927 118.1 12.9036 119.024 14.4531C119.962 16.0026 120.43 17.7344 120.43 19.6484ZM111.993 19.6875C111.993 16.9661 110.951 15.6055 108.868 15.6055C106.785 15.6055 105.743 17.0312 105.743 19.8828C105.743 22.8906 106.798 24.3945 108.907 24.3945C110.964 24.3945 111.993 22.8255 111.993 19.6875ZM148.016 27.207C148.016 31.0482 146.805 34.0365 144.383 36.1719C141.974 38.3203 138.452 39.3945 133.816 39.3945C132.566 39.3945 131.355 39.2969 130.184 39.1016C129.012 38.9062 128.172 38.6849 127.664 38.4375V31.9141C128.497 32.4349 129.474 32.8516 130.594 33.1641C131.714 33.4766 132.71 33.6328 133.582 33.6328C135.444 33.6328 136.935 33.1836 138.055 32.2852C139.174 31.3867 139.734 30.1953 139.734 28.7109V27.4805H139.656C139.057 28.3919 138.23 29.1211 137.176 29.668C136.134 30.2148 135.014 30.4883 133.816 30.4883C131.238 30.4883 129.201 29.5964 127.703 27.8125C126.206 26.0156 125.457 23.5417 125.457 20.3906C125.457 18.2292 125.848 16.3216 126.629 14.668C127.41 13.0143 128.497 11.7448 129.891 10.8594C131.284 9.96094 132.82 9.51172 134.5 9.51172C136.805 9.51172 138.523 10.3646 139.656 12.0703H139.734V10H148.016V27.207ZM139.871 19.4336C139.871 18.2617 139.604 17.3307 139.07 16.6406C138.549 15.9505 137.853 15.6055 136.98 15.6055C136.043 15.6055 135.294 16.0221 134.734 16.8555C134.174 17.6888 133.895 18.8021 133.895 20.1953C133.895 21.4844 134.129 22.5065 134.598 23.2617C135.066 24.0169 135.809 24.3945 136.824 24.3945C137.775 24.3945 138.517 24.0104 139.051 23.2422C139.598 22.4609 139.871 21.4193 139.871 20.1172V19.4336ZM177.085 19.6484C177.085 23.0208 176.063 25.6706 174.019 27.5977C171.988 29.5247 169.142 30.4883 165.484 30.4883C161.851 30.4883 159.019 29.5508 156.988 27.6758C154.969 25.7878 153.96 23.1901 153.96 19.8828C153.96 17.7604 154.435 15.918 155.386 14.3555C156.336 12.793 157.691 11.5951 159.448 10.7617C161.206 9.92839 163.231 9.51172 165.523 9.51172C167.892 9.51172 169.943 9.94792 171.675 10.8203C173.42 11.6927 174.754 12.9036 175.679 14.4531C176.616 16.0026 177.085 17.7344 177.085 19.6484ZM168.648 19.6875C168.648 16.9661 167.606 15.6055 165.523 15.6055C163.439 15.6055 162.398 17.0312 162.398 19.8828C162.398 22.8906 163.452 24.3945 165.562 24.3945C167.619 24.3945 168.648 22.8255 168.648 19.6875ZM195.959 30V19.082C195.959 17.8451 195.771 16.9596 195.393 16.4258C195.028 15.8789 194.429 15.6055 193.596 15.6055C192.88 15.6055 192.32 15.8854 191.916 16.4453C191.513 17.0052 191.311 17.7214 191.311 18.5938V30H182.991V10H191.311V13.125H191.389C192.053 11.9792 192.945 11.0938 194.065 10.4688C195.185 9.83073 196.402 9.51172 197.717 9.51172C202.092 9.51172 204.28 12.2721 204.28 17.793V30H195.959Z" fill="#8F00FF"/>
</svg>
