<svg width="207" height="69" viewBox="0 0 207 69" fill="none" xmlns="http://www.w3.org/2000/svg">
<path d="M26.6797 21.4062C26.6797 24.1536 25.7161 26.276 23.7891 27.7734C21.862 29.2578 19.1081 30 15.5273 30H2.75391V1.99219H14.6484C22.0833 1.99219 25.8008 4.2513 25.8008 8.76953C25.8008 9.74609 25.5664 10.6445 25.0977 11.4648C24.6289 12.2721 23.9128 12.9818 22.9492 13.5938C21.9987 14.2057 20.9505 14.6224 19.8047 14.8438V14.9219C21.1328 15.0781 22.3242 15.4753 23.3789 16.1133C24.4336 16.7383 25.2474 17.526 25.8203 18.4766C26.3932 19.4141 26.6797 20.3906 26.6797 21.4062ZM16.8359 10.2344C16.8359 8.5026 15.4753 7.63672 12.7539 7.63672H11.1914V12.9297H13.6328C14.5703 12.9297 15.3385 12.6823 15.9375 12.1875C16.5365 11.6797 16.8359 11.0286 16.8359 10.2344ZM17.7148 21.3672C17.7148 20.5599 17.4219 19.8958 16.8359 19.375C16.25 18.8542 15.4753 18.5938 14.5117 18.5938H11.1914V24.3164H14.0039C15.1497 24.3164 16.0547 24.056 16.7188 23.5352C17.3828 23.0013 17.7148 22.2786 17.7148 21.3672ZM41.257 4.60938C41.257 5.78125 40.8273 6.73177 39.968 7.46094C39.1216 8.1901 38.0018 8.55469 36.6086 8.55469C35.2544 8.55469 34.1411 8.17708 33.2687 7.42188C32.4094 6.66667 31.9797 5.72917 31.9797 4.60938C31.9797 3.46354 32.3964 2.53906 33.2297 1.83594C34.076 1.11979 35.2023 0.761719 36.6086 0.761719C38.0018 0.761719 39.1216 1.11979 39.968 1.83594C40.8273 2.53906 41.257 3.46354 41.257 4.60938ZM32.4484 30V10H40.7687V30H32.4484ZM69.8383 19.6484C69.8383 23.0208 68.8161 25.6706 66.7719 27.5977C64.7406 29.5247 61.8956 30.4883 58.2367 30.4883C54.6039 30.4883 51.7719 29.5508 49.7406 27.6758C47.7224 25.7878 46.7133 23.1901 46.7133 19.8828C46.7133 17.7604 47.1885 15.918 48.1391 14.3555C49.0896 12.793 50.4437 11.5951 52.2016 10.7617C53.9594 9.92839 55.9841 9.51172 58.2758 9.51172C60.6456 9.51172 62.6964 9.94792 64.4281 10.8203C66.1729 11.6927 67.5076 12.9036 68.432 14.4531C69.3695 16.0026 69.8383 17.7344 69.8383 19.6484ZM61.4008 19.6875C61.4008 16.9661 60.3591 15.6055 58.2758 15.6055C56.1924 15.6055 55.1508 17.0312 55.1508 19.8828C55.1508 22.8906 56.2055 24.3945 58.3148 24.3945C60.3721 24.3945 61.4008 22.8255 61.4008 19.6875ZM20.5103 68H16.5596L14.6069 62.4751H6.06982L4.19287 68H0.257324L8.38574 46.2939H12.4424L20.5103 68ZM13.6533 59.5386L10.6411 50.8804C10.5503 50.5978 10.4544 50.1437 10.3535 49.5181H10.293C10.2021 50.0933 10.1012 50.5474 9.99023 50.8804L7.0083 59.5386H13.6533ZM36.6309 68H33.1191V65.5479H33.0586C32.0394 67.4248 30.4551 68.3633 28.3057 68.3633C24.6426 68.3633 22.811 66.1634 22.811 61.7637V52.5H26.3228V61.4004C26.3228 64.1855 27.3975 65.5781 29.5469 65.5781C30.5863 65.5781 31.439 65.1947 32.105 64.4277C32.7811 63.6608 33.1191 62.6567 33.1191 61.4155V52.5H36.6309V68ZM49.3911 67.8335C48.7049 68.1766 47.8018 68.3481 46.6816 68.3481C43.6745 68.3481 42.1709 66.9051 42.1709 64.019V55.2549H39.5825V52.5H42.1709V48.9126L45.6826 47.9136V52.5H49.3911V55.2549H45.6826V63.0049C45.6826 63.9232 45.8491 64.5791 46.1821 64.9727C46.5151 65.3662 47.0701 65.563 47.8472 65.563C48.4425 65.563 48.9572 65.3914 49.3911 65.0483V67.8335ZM66.1929 68H62.6812V59.5234C62.6812 56.4557 61.6569 54.9219 59.6084 54.9219C58.5791 54.9219 57.7113 55.3659 57.0049 56.2539C56.2985 57.1419 55.9453 58.2772 55.9453 59.6597V68H52.4185V45.0527H55.9453V55.0732H56.0059C57.1764 53.1156 58.8516 52.1367 61.0312 52.1367C64.4723 52.1367 66.1929 54.2407 66.1929 58.4487V68ZM83.585 61.2036H73.0195C73.0599 62.6366 73.4989 63.7415 74.3364 64.5186C75.1841 65.2956 76.3446 65.6841 77.8179 65.6841C79.4728 65.6841 80.9915 65.1896 82.374 64.2007V67.0312C80.9613 67.9193 79.0944 68.3633 76.7734 68.3633C74.4928 68.3633 72.7017 67.6619 71.3999 66.2593C70.1082 64.8465 69.4624 62.8636 69.4624 60.3105C69.4624 57.8988 70.1738 55.936 71.5967 54.4224C73.0296 52.8986 74.8057 52.1367 76.9248 52.1367C79.0439 52.1367 80.6838 52.8179 81.8442 54.1802C83.0047 55.5425 83.585 57.4346 83.585 59.8564V61.2036ZM80.1943 58.7212C80.1842 57.4598 79.8866 56.481 79.3013 55.7847C78.716 55.0783 77.9087 54.7251 76.8794 54.7251C75.8703 54.7251 75.0125 55.0934 74.3062 55.8301C73.6099 56.5667 73.181 57.5304 73.0195 58.7212H80.1943ZM100.735 68H97.2231V59.2661C97.2231 56.37 96.1989 54.9219 94.1504 54.9219C93.0807 54.9219 92.1978 55.3255 91.5015 56.1328C90.8052 56.93 90.457 57.9391 90.457 59.1602V68H86.9302V52.5H90.457V55.0732H90.5176C91.6781 53.1156 93.3532 52.1367 95.543 52.1367C97.2282 52.1367 98.5148 52.6867 99.4028 53.7866C100.291 54.8765 100.735 56.4557 100.735 58.5244V68ZM113.208 67.8335C112.521 68.1766 111.618 68.3481 110.498 68.3481C107.491 68.3481 105.987 66.9051 105.987 64.019V55.2549H103.399V52.5H105.987V48.9126L109.499 47.9136V52.5H113.208V55.2549H109.499V63.0049C109.499 63.9232 109.666 64.5791 109.999 64.9727C110.332 65.3662 110.887 65.563 111.664 65.563C112.259 65.563 112.774 65.3914 113.208 65.0483V67.8335ZM118.006 49.2456C117.431 49.2456 116.936 49.0589 116.522 48.6855C116.119 48.3122 115.917 47.8379 115.917 47.2627C115.917 46.6875 116.119 46.2082 116.522 45.8247C116.936 45.4412 117.431 45.2495 118.006 45.2495C118.601 45.2495 119.106 45.4412 119.52 45.8247C119.933 46.2082 120.14 46.6875 120.14 47.2627C120.14 47.8076 119.933 48.2769 119.52 48.6704C119.106 49.0539 118.601 49.2456 118.006 49.2456ZM119.747 68H116.235V52.5H119.747V68ZM135.443 67.2886C134.202 68.005 132.734 68.3633 131.039 68.3633C128.738 68.3633 126.881 67.6468 125.468 66.2139C124.056 64.7708 123.349 62.904 123.349 60.6133C123.349 58.0602 124.106 56.0117 125.62 54.4678C127.143 52.9137 129.177 52.1367 131.72 52.1367C133.132 52.1367 134.379 52.384 135.458 52.8784V56.1479C134.379 55.3407 133.228 54.937 132.007 54.937C130.524 54.937 129.308 55.4416 128.359 56.4507C127.411 57.4497 126.937 58.7616 126.937 60.3862C126.937 61.9907 127.381 63.2572 128.269 64.1855C129.167 65.1139 130.368 65.5781 131.871 65.5781C133.132 65.5781 134.323 65.1291 135.443 64.231V67.2886ZM150.837 68H147.432V65.5781H147.371C146.301 67.4349 144.732 68.3633 142.664 68.3633C141.14 68.3633 139.944 67.9495 139.076 67.1221C138.218 66.2946 137.79 65.1997 137.79 63.8374C137.79 60.911 139.475 59.2056 142.845 58.7212L147.447 58.0703C147.447 55.8604 146.397 54.7554 144.298 54.7554C142.452 54.7554 140.787 55.3911 139.303 56.6626V53.5898C140.938 52.6211 142.825 52.1367 144.964 52.1367C148.88 52.1367 150.837 54.0641 150.837 57.9189V68ZM147.447 60.3862L144.192 60.8403C143.183 60.9715 142.421 61.2188 141.907 61.582C141.402 61.9352 141.15 62.5609 141.15 63.459C141.15 64.1149 141.382 64.6548 141.846 65.0786C142.32 65.4924 142.951 65.6992 143.738 65.6992C144.808 65.6992 145.691 65.3258 146.387 64.5791C147.094 63.8223 147.447 62.8737 147.447 61.7334V60.3862ZM163.31 67.8335C162.624 68.1766 161.721 68.3481 160.601 68.3481C157.593 68.3481 156.09 66.9051 156.09 64.019V55.2549H153.501V52.5H156.09V48.9126L159.602 47.9136V52.5H163.31V55.2549H159.602V63.0049C159.602 63.9232 159.768 64.5791 160.101 64.9727C160.434 65.3662 160.989 65.563 161.766 65.563C162.361 65.563 162.876 65.3914 163.31 65.0483V67.8335ZM168.108 49.2456C167.533 49.2456 167.039 49.0589 166.625 48.6855C166.221 48.3122 166.02 47.8379 166.02 47.2627C166.02 46.6875 166.221 46.2082 166.625 45.8247C167.039 45.4412 167.533 45.2495 168.108 45.2495C168.704 45.2495 169.208 45.4412 169.622 45.8247C170.036 46.2082 170.243 46.6875 170.243 47.2627C170.243 47.8076 170.036 48.2769 169.622 48.6704C169.208 49.0539 168.704 49.2456 168.108 49.2456ZM169.849 68H166.337V52.5H169.849V68ZM181.323 68.3633C178.931 68.3633 177.019 67.6418 175.586 66.1987C174.163 64.7456 173.452 62.8232 173.452 60.4316C173.452 57.8281 174.193 55.7948 175.677 54.3315C177.17 52.8683 179.178 52.1367 181.701 52.1367C184.123 52.1367 186.01 52.8481 187.362 54.271C188.715 55.6938 189.391 57.6667 189.391 60.1895C189.391 62.6618 188.659 64.6447 187.196 66.1382C185.743 67.6216 183.785 68.3633 181.323 68.3633ZM181.489 54.937C180.117 54.937 179.032 55.4163 178.235 56.375C177.438 57.3337 177.039 58.6556 177.039 60.3408C177.039 61.9655 177.443 63.2471 178.25 64.1855C179.057 65.1139 180.137 65.5781 181.489 65.5781C182.872 65.5781 183.931 65.119 184.668 64.2007C185.415 63.2824 185.788 61.9756 185.788 60.2803C185.788 58.5749 185.415 57.258 184.668 56.3296C183.931 55.4012 182.872 54.937 181.489 54.937ZM206.783 68H203.271V59.2661C203.271 56.37 202.247 54.9219 200.198 54.9219C199.129 54.9219 198.246 55.3255 197.549 56.1328C196.853 56.93 196.505 57.9391 196.505 59.1602V68H192.978V52.5H196.505V55.0732H196.565C197.726 53.1156 199.401 52.1367 201.591 52.1367C203.276 52.1367 204.563 52.6867 205.451 53.7866C206.339 54.8765 206.783 56.4557 206.783 58.5244V68Z" fill="#4B0EAE"/>
<path d="M76.5055 30V1.99219H84.943V23.3984H94.5914V30H76.5055ZM122.43 19.6484C122.43 23.0208 121.408 25.6706 119.364 27.5977C117.333 29.5247 114.488 30.4883 110.829 30.4883C107.196 30.4883 104.364 29.5508 102.333 27.6758C100.315 25.7878 99.3055 23.1901 99.3055 19.8828C99.3055 17.7604 99.7807 15.918 100.731 14.3555C101.682 12.793 103.036 11.5951 104.794 10.7617C106.552 9.92839 108.576 9.51172 110.868 9.51172C113.238 9.51172 115.289 9.94792 117.02 10.8203C118.765 11.6927 120.1 12.9036 121.024 14.4531C121.962 16.0026 122.43 17.7344 122.43 19.6484ZM113.993 19.6875C113.993 16.9661 112.951 15.6055 110.868 15.6055C108.785 15.6055 107.743 17.0312 107.743 19.8828C107.743 22.8906 108.798 24.3945 110.907 24.3945C112.964 24.3945 113.993 22.8255 113.993 19.6875ZM150.016 27.207C150.016 31.0482 148.805 34.0365 146.383 36.1719C143.974 38.3203 140.452 39.3945 135.816 39.3945C134.566 39.3945 133.355 39.2969 132.184 39.1016C131.012 38.9062 130.172 38.6849 129.664 38.4375V31.9141C130.497 32.4349 131.474 32.8516 132.594 33.1641C133.714 33.4766 134.71 33.6328 135.582 33.6328C137.444 33.6328 138.935 33.1836 140.055 32.2852C141.174 31.3867 141.734 30.1953 141.734 28.7109V27.4805H141.656C141.057 28.3919 140.23 29.1211 139.176 29.668C138.134 30.2148 137.014 30.4883 135.816 30.4883C133.238 30.4883 131.201 29.5964 129.703 27.8125C128.206 26.0156 127.457 23.5417 127.457 20.3906C127.457 18.2292 127.848 16.3216 128.629 14.668C129.41 13.0143 130.497 11.7448 131.891 10.8594C133.284 9.96094 134.82 9.51172 136.5 9.51172C138.805 9.51172 140.523 10.3646 141.656 12.0703H141.734V10H150.016V27.207ZM141.871 19.4336C141.871 18.2617 141.604 17.3307 141.07 16.6406C140.549 15.9505 139.853 15.6055 138.98 15.6055C138.043 15.6055 137.294 16.0221 136.734 16.8555C136.174 17.6888 135.895 18.8021 135.895 20.1953C135.895 21.4844 136.129 22.5065 136.598 23.2617C137.066 24.0169 137.809 24.3945 138.824 24.3945C139.775 24.3945 140.517 24.0104 141.051 23.2422C141.598 22.4609 141.871 21.4193 141.871 20.1172V19.4336ZM179.085 19.6484C179.085 23.0208 178.063 25.6706 176.019 27.5977C173.988 29.5247 171.142 30.4883 167.484 30.4883C163.851 30.4883 161.019 29.5508 158.988 27.6758C156.969 25.7878 155.96 23.1901 155.96 19.8828C155.96 17.7604 156.435 15.918 157.386 14.3555C158.336 12.793 159.691 11.5951 161.448 10.7617C163.206 9.92839 165.231 9.51172 167.523 9.51172C169.892 9.51172 171.943 9.94792 173.675 10.8203C175.42 11.6927 176.754 12.9036 177.679 14.4531C178.616 16.0026 179.085 17.7344 179.085 19.6484ZM170.648 19.6875C170.648 16.9661 169.606 15.6055 167.523 15.6055C165.439 15.6055 164.398 17.0312 164.398 19.8828C164.398 22.8906 165.452 24.3945 167.562 24.3945C169.619 24.3945 170.648 22.8255 170.648 19.6875ZM197.959 30V19.082C197.959 17.8451 197.771 16.9596 197.393 16.4258C197.028 15.8789 196.429 15.6055 195.596 15.6055C194.88 15.6055 194.32 15.8854 193.916 16.4453C193.513 17.0052 193.311 17.7214 193.311 18.5938V30H184.991V10H193.311V13.125H193.389C194.053 11.9792 194.945 11.0938 196.065 10.4688C197.185 9.83073 198.402 9.51172 199.717 9.51172C204.092 9.51172 206.28 12.2721 206.28 17.793V30H197.959Z" fill="#8F00FF"/>
</svg>
