<svg width="151" height="151" viewBox="0 0 151 151" fill="none" xmlns="http://www.w3.org/2000/svg">
<g clip-path="url(#clip0_69_33858)">
<path d="M73.84 126.15C102.47 126.15 125.68 102.94 125.68 74.31C125.68 45.6796 102.47 22.47 73.84 22.47C45.2096 22.47 22 45.6796 22 74.31C22 102.94 45.2096 126.15 73.84 126.15Z" fill="#E3EFF2"/>
<path d="M117.02 120.38L120.42 117.24L121.36 51.24L119.65 48.77L117.02 120.38Z" fill="#001C22"/>
<path d="M116.99 46.93H80.4401C78.8801 46.93 77.6201 48 77.6201 49.33L80.0001 118.84C80.0001 120.16 81.2601 121.24 82.8201 121.24H115.06C116.61 121.24 117.88 120.16 117.88 118.84L119.82 49.33C119.82 48 118.56 46.93 117 46.93H116.99Z" fill="#66A9B9"/>
<path d="M116.2 53.92H81.4902V89.4H116.2V53.92Z" fill="#001C22"/>
<path d="M113.91 59.29H83.96V79.03H113.91V59.29Z" fill="#1C353B"/>
<path d="M121.083 51.1214L120.402 117.238L121.102 117.245L121.783 51.1286L121.083 51.1214Z" fill="#006F8A"/>
<g style="mix-blend-mode:soft-light">
<path d="M81.4902 79.45C81.8602 79.45 82.2202 79.47 82.5902 79.47C101.15 79.47 116.19 68.26 116.19 54.43C116.19 54.26 116.18 54.09 116.17 53.92H81.4902V79.45Z" fill="#A39F96"/>
</g>
<path d="M40.2101 46.93C40.2101 46.93 30.7001 68.47 30.0401 78.42C29.3801 88.37 35.6201 104.99 35.6201 104.99H55.3001C55.3001 104.99 59.7801 88.15 58.9101 85.31C58.0401 82.47 49.9001 50.43 48.7201 50.21C47.5401 49.99 40.2201 46.93 40.2201 46.93H40.2101Z" fill="#F8BD83"/>
<path d="M36.9302 59.01C36.9302 59.01 37.4302 69.31 39.1002 72.95C40.7702 76.59 43.1802 77.11 44.5602 76.18C45.9402 75.25 49.0202 63.72 49.0202 63.72L36.9402 59.01H36.9302Z" fill="#F7AC6F"/>
<path d="M47.8199 66.75L59.8999 75.42C61.7599 76.75 64.3699 76.32 65.6999 74.47C67.0299 72.61 66.5999 70 64.7499 68.67L52.6699 60C50.8099 58.67 48.1999 59.1 46.8699 60.95C45.5399 62.81 45.9699 65.42 47.8199 66.75Z" fill="#F7AC6F"/>
<path d="M50.4498 59.53L62.5298 68.2C64.3898 69.53 66.9998 69.1 68.3298 67.25C69.6598 65.39 69.2298 62.78 67.3798 61.45L55.2998 52.78C53.4398 51.45 50.8298 51.88 49.4998 53.73C48.1698 55.59 48.5998 58.2 50.4498 59.53Z" fill="#F7AC6F"/>
<path d="M55.0598 150H30.2798L34.2798 98.98H56.5898L55.0598 150Z" fill="#F8BD83"/>
<path d="M66.7351 20.7945L30.8077 51.5446C30.1238 52.1299 30.0439 53.1589 30.6292 53.8428L47.6136 73.6868C48.199 74.3708 49.2279 74.4507 49.9119 73.8653L85.8393 43.1153C86.5232 42.5299 86.6031 41.5009 86.0177 40.817L69.0334 20.973C68.448 20.2891 67.419 20.2092 66.7351 20.7945Z" fill="#006F8A"/>
<path d="M66.7301 20.8L30.8101 51.54C30.3801 51.91 30.1901 52.45 30.2501 52.97C30.3301 52.67 30.5001 52.4 30.7601 52.18L66.6801 21.44C67.3701 20.85 68.4001 20.93 68.9901 21.62L85.9701 41.46C86.1901 41.72 86.3201 42.02 86.3501 42.34C86.5001 41.83 86.4001 41.26 86.0201 40.82L69.0401 20.98C68.4501 20.29 67.4201 20.21 66.7301 20.8Z" fill="#3A90A5"/>
<path style="mix-blend-mode:multiply" d="M49.9701 73.23C49.2801 73.82 48.2501 73.74 47.6601 73.05L30.6801 53.21C30.4601 52.95 30.3301 52.65 30.3001 52.33C30.1501 52.84 30.2501 53.42 30.6301 53.85L47.6101 73.69C48.2001 74.38 49.2301 74.46 49.9201 73.87L85.8401 43.13C86.2701 42.76 86.4601 42.22 86.4001 41.7C86.3201 42 86.1501 42.27 85.8901 42.49L49.9701 73.23Z" fill="url(#paint0_linear_69_33858)"/>
<path d="M30.6301 53.85L47.6101 73.69C47.8501 73.98 48.1801 74.15 48.5201 74.22C58.0201 62.34 59.7501 45.99 53.1301 32.45L30.8201 51.55C30.1301 52.14 30.0501 53.17 30.6401 53.86L30.6301 53.85Z" fill="#3A90A5"/>
<path d="M78.1817 40.5347L70.8808 46.7835C70.5367 47.078 70.4965 47.5956 70.791 47.9397L72.1305 49.5047C72.425 49.8488 72.9426 49.889 73.2867 49.5945L80.5876 43.3456C80.9317 43.0512 80.9719 42.5335 80.6774 42.1895L79.3379 40.6244C79.0434 40.2804 78.5258 40.2402 78.1817 40.5347Z" fill="#228299"/>
<path d="M55.6652 60.7749L54.4724 61.7957C54.3633 61.8891 54.3506 62.0532 54.444 62.1623L55.3998 63.2791C55.4932 63.3882 55.6573 63.401 55.7664 63.3076L56.9592 62.2867C57.0683 62.1933 57.081 62.0292 56.9877 61.9201L56.0318 60.8033C55.9384 60.6942 55.7743 60.6815 55.6652 60.7749Z" fill="#66A9B9"/>
<path d="M56.0699 100.29C56.0699 100.29 61.3199 90.89 61.3199 84.98C61.3199 79.07 56.2899 70.5 56.0699 66.17C55.9399 63.67 56.6299 58.79 55.8499 55C55.0899 51.31 53.3199 49.5 51.3799 49.5C49.5599 49.5 47.9599 51.66 47.4799 55.12C46.9099 59.17 47.8999 63.08 47.7599 65.3C47.4399 70.53 43.1699 77.11 42.7299 84.54C42.2899 91.97 44.2599 98.97 46.0099 98.97C47.7599 98.97 51.6999 104.22 56.0699 100.28V100.29Z" fill="#F8BD83"/>
<path d="M52.14 49.14H51.25C49.8582 49.14 48.73 50.2683 48.73 51.66V54.49C48.73 55.8818 49.8582 57.01 51.25 57.01H52.14C53.5317 57.01 54.66 55.8818 54.66 54.49V51.66C54.66 50.2683 53.5317 49.14 52.14 49.14Z" fill="#FACC9F"/>
<path d="M49.1699 62C49.1699 62 50.2299 61.35 51.7899 61.43C53.3499 61.51 54.2799 62.26 54.2799 62.26C54.2799 62.26 53.4099 61.86 51.7399 61.78C50.0699 61.7 49.1699 62 49.1699 62Z" fill="#F59A50"/>
<path d="M49.1299 62.82C49.1299 62.82 50.1899 62.17 51.7499 62.25C53.3099 62.33 54.2399 63.08 54.2399 63.08C54.2399 63.08 53.3699 62.68 51.6999 62.6C50.0299 62.52 49.1299 62.82 49.1299 62.82Z" fill="#F59A50"/>
<path d="M61.3102 84.98C61.3102 84.73 61.2902 84.47 61.2702 84.21L61.1502 84.18C61.1502 84.18 59.3702 93.71 54.3702 97.48C49.3702 101.25 43.4202 100.66 42.9602 101.96C42.5002 103.25 52.8802 103.75 53.0002 105.5C53.1202 107.22 49.1302 148.69 49.0002 150H55.0402L56.5502 99.33C57.8702 96.79 61.2902 89.75 61.2902 84.98H61.3102Z" fill="#F7AC6F"/>
<g clip-path="url(#clip1_69_33858)">
<path d="M150 -7H-14V157H150V-7Z" fill="white"/>
<path d="M123.504 88.6731C130.698 58.2136 111.821 27.6935 81.3409 20.5044C50.8612 13.3153 20.3206 32.1797 13.1267 62.6391C5.93287 93.0986 24.8098 123.619 55.2896 130.808C85.7694 137.997 116.31 119.133 123.504 88.6731Z" fill="#FEEDDD"/>
<path d="M61.3875 28.2748H29.9833C24.5764 28.2748 20.1934 32.655 20.1934 38.0582V95.2609C20.1934 100.664 24.5764 105.044 29.9833 105.044H61.3875C66.7943 105.044 71.1774 100.664 71.1774 95.2609V38.0582C71.1774 32.655 66.7943 28.2748 61.3875 28.2748Z" fill="#CCE2E8"/>
<path d="M66.682 29.8489C67.6774 31.3792 68.2571 33.1938 68.2571 35.1396V92.3532C68.2571 97.7313 63.8489 102.137 58.4672 102.137H27.052C25.105 102.137 23.2892 101.557 21.7578 100.562C23.508 103.252 26.5379 105.044 29.9726 105.044H61.3878C66.7695 105.044 71.1777 100.639 71.1777 95.2609V38.0472C71.1777 34.6149 69.3838 31.5869 66.6929 29.838L66.682 29.8489Z" fill="#5192A4"/>
<path d="M24.6783 103.47C23.6829 101.94 23.1032 100.125 23.1032 98.1795V40.9659C23.1032 35.5877 27.5114 31.1825 32.8931 31.1825H64.3083C66.2553 31.1825 68.0711 31.7618 69.6025 32.7566C67.8523 30.0675 64.8224 28.2748 61.3877 28.2748H29.9725C24.5908 28.2748 20.1826 32.6801 20.1826 38.0582V95.2718C20.1826 98.7042 21.9765 101.732 24.6674 103.481L24.6783 103.47Z" fill="#98C4D0"/>
<path fill-rule="evenodd" clip-rule="evenodd" d="M55.0323 79.1921C55.0323 83.805 51.3023 87.5435 46.6863 87.5435C42.0702 87.5435 38.3184 83.805 38.3184 79.1921C38.3184 74.5792 42.0593 70.8407 46.6863 70.8407C51.3132 70.8407 55.0323 74.5792 55.0323 79.1921Z" fill="#98C4D0"/>
<path d="M46.6976 91.2492C40.1017 91.2492 34.731 85.882 34.731 79.3014C34.731 72.7209 40.1017 67.3427 46.6976 67.3427C53.2935 67.3427 58.6533 72.7099 58.6533 79.3014C58.6533 85.8929 53.2826 91.2492 46.6976 91.2492ZM46.6976 68.4031C40.6705 68.4031 35.781 73.2893 35.781 79.3014C35.781 85.3135 40.6705 90.1888 46.6976 90.1888C52.7247 90.1888 57.6032 85.3026 57.6032 79.3014C57.6032 73.3002 52.7138 68.4031 46.6976 68.4031Z" fill="#98C4D0"/>
<path d="M46.6973 95.3046C37.7496 95.3046 30.4756 88.0354 30.4756 79.1046C30.4756 70.1739 37.7496 62.9047 46.6973 62.9047C55.6449 62.9047 62.9081 70.1739 62.9081 79.1046C62.9081 88.0354 55.634 95.3046 46.6973 95.3046ZM46.6973 63.4185C38.045 63.4185 31.0116 70.4581 31.0116 79.0937C31.0116 87.7293 38.0559 94.769 46.6973 94.769C55.3387 94.769 62.383 87.7403 62.383 79.0937C62.383 70.4472 55.3496 63.4185 46.6973 63.4185Z" fill="#98C4D0"/>
<g style="mix-blend-mode:soft-light">
<path d="M29.9725 28.2748C24.5908 28.2748 20.1826 32.6801 20.1826 38.0582V95.2718C20.1826 95.5232 20.2045 95.7637 20.2154 96.0151C44.3894 93.1293 63.3566 65.6375 63.3566 32.1226C63.3566 30.8983 63.3238 29.674 63.2801 28.4716C62.6675 28.3513 62.0331 28.2857 61.3768 28.2857H29.9616L29.9725 28.2748Z" fill="white"/>
</g>
<path d="M94.9031 157C94.9031 157 89.2698 143.347 87.104 140.68C84.9382 138.013 81.777 133.739 80.3112 131.913C78.3095 129.41 71.8886 116.511 71.5933 115.33C69.6791 107.46 65.6318 98.2232 64.5489 96.5398C62.5909 93.501 58.0406 91.5771 58.7078 89.7079C59.3641 87.8824 66.0475 85.871 70.3791 90.2107C74.7107 94.5394 79.2174 105.208 79.2174 105.208C79.2174 105.208 79.5565 99.5459 79.2174 95.873C78.8783 92.2002 76.9203 75.4318 76.5921 71.9338C76.264 68.4359 75.6296 55.4606 75.7936 53.2962C75.9577 51.1318 75.5858 47.0764 79.2939 46.6282C82.7396 46.2128 83.7349 49.7982 84.2381 53.4602C84.7413 57.1221 85.2663 67.1678 85.9773 71.6824C86.6555 76.0439 87.3009 84.5812 88.3072 86.2427C89.3026 87.9042 89.0292 87.1062 89.0292 87.1062C89.0292 87.1062 87.6728 78.0443 86.7211 68.3812C85.7586 58.5541 84.7632 49.1205 84.8069 47.9946C84.8616 46.4096 84.5991 41.8294 88.7229 41.8294C91.9716 41.8294 92.5623 45.3493 92.967 47.8306C93.1748 49.1314 93.4702 54.5861 94.7281 64.5444C95.3297 69.3322 96.5767 76.9512 96.9158 80.0775C97.1892 82.548 98.4143 85.3901 98.4143 85.3901C98.4143 85.3901 95.8329 53.8318 95.7782 51.3505C95.7454 49.7108 96.1391 46.0817 98.7315 46.0817C102.615 46.0817 102.812 49.5687 103.304 52.2578C103.38 52.6622 103.741 60.15 104.791 68.7638C105.885 77.7164 107.668 86.7018 107.668 86.7018C107.668 86.7018 108.259 85.0621 108.16 82.5589C108.029 79.1812 107.242 73.1144 106.76 68.3703C106.148 62.4346 106.498 59.2318 107.307 58.259C108.325 57.0347 110.228 56.8707 111.179 59.0897C112.437 62.0083 113.761 73.1034 115.27 84.5374C116.561 94.288 118.169 103.459 117.918 106.378C117.611 109.865 115.588 127.213 115.916 129.88C116.244 132.547 127.587 157.011 127.587 157.011H94.8922L94.9031 157Z" fill="#F8BD83"/>
<path d="M74.6125 96.037C74.6125 96.037 76.5924 99.4366 78.1894 102.902C78.5613 103.711 79.2285 105.219 79.2285 105.219C79.2285 105.219 77.8503 109.406 77.6096 111.395C77.369 113.385 78.1894 117.44 78.1894 117.44C78.1894 117.44 76.3736 114.445 76.8111 109.952C77.2487 105.449 77.4346 104.323 77.0627 103.197C76.6908 102.071 74.6016 96.0261 74.6016 96.0261L74.6125 96.037Z" fill="#F7AC6F"/>
<path d="M107.679 86.7018C107.679 86.7018 107.636 89.839 108.303 91.3366C108.97 92.8342 110.425 93.7086 111.147 93.337C111.573 93.1074 107.679 86.7018 107.679 86.7018Z" fill="#F7AC6F"/>
<path d="M94.3343 142.593C91.206 138.592 86.3383 135.291 82.3349 130.951C78.3314 126.611 73.7263 117.167 73.1138 114.915C71.0683 107.394 67.4695 99.6771 66.1569 97.8843C63.5098 94.2333 67.1086 93.2823 62.7441 94.6269C63.3676 95.2172 63.9474 95.8512 64.3958 96.5398C65.4787 98.2232 69.526 107.46 71.4402 115.33C71.7246 116.511 78.1564 129.421 80.1581 131.913C81.6239 133.749 84.7851 138.013 86.9509 140.68C89.1167 143.347 94.75 157 94.75 157H101.007C99.7051 152.584 96.5549 145.424 94.3343 142.593Z" fill="#F7AC6F"/>
<path d="M87.793 85.0184C87.793 85.0184 87.968 86.2318 88.2743 87.0625C88.5805 87.8933 89.2259 88.4945 89.2259 88.4945L89.0618 87.2811C89.0618 87.2811 88.5805 86.7565 88.3618 86.3629C88.143 85.9694 87.793 85.0184 87.793 85.0184Z" fill="#F7AC6F"/>
<path d="M98.4036 85.2807C98.4036 85.2807 99.3115 88.0245 99.749 88.4945C100.187 88.9755 100.985 89.2597 101.051 88.8006C101.357 86.6909 98.338 80.0229 98.338 80.0229C98.338 80.0229 98.2286 82.1216 98.2395 82.8977C98.2395 83.4443 98.4036 85.2807 98.4036 85.2807Z" fill="#F7AC6F"/>
<g style="mix-blend-mode:soft-light">
<path d="M115.916 129.869C115.587 127.202 117.611 109.854 117.917 106.367C118.169 103.448 116.561 94.2771 115.27 84.5265C114.647 79.7933 114.056 74.9399 113.476 70.6549C111.332 72.6443 109.188 74.7978 107.69 76.503C107.92 78.886 108.095 81.0832 108.16 82.548C108.259 85.0512 107.668 86.6909 107.668 86.6909C107.668 86.6909 106.968 83.182 106.18 78.3613C106.18 78.3723 106.159 78.3941 106.148 78.4051C98.8079 88.3633 94.4653 100.65 94.4653 113.964C94.4653 130.579 101.718 146.124 112.634 156.989H127.51C126.613 154.989 116.222 132.405 115.905 129.858L115.916 129.869Z" fill="#F99C94"/>
</g>
<path d="M97.9878 58.4448C97.9878 58.4448 98.8191 57.8217 100.11 57.7671C101.401 57.7124 102.232 58.259 102.232 58.259C102.232 58.259 101.488 57.9966 100.099 58.0622C98.7097 58.1278 97.9878 58.4448 97.9878 58.4448Z" fill="#F59A50"/>
<path d="M98.0205 59.1225C98.0205 59.1225 98.8518 58.4994 100.143 58.4448C101.433 58.3901 102.265 58.9367 102.265 58.9367C102.265 58.9367 101.521 58.6743 100.132 58.7399C98.7424 58.8055 98.0205 59.1225 98.0205 59.1225Z" fill="#F59A50"/>
<path d="M108.511 65.9326C108.511 65.9326 109.189 65.4298 110.25 65.3751C111.311 65.3314 111.989 65.7796 111.989 65.7796C111.989 65.7796 111.377 65.561 110.239 65.6156C109.101 65.6593 108.511 65.9326 108.511 65.9326Z" fill="#F59A50"/>
<path d="M108.543 66.4792C108.543 66.4792 109.222 65.9764 110.283 65.9217C111.344 65.867 112.022 66.3262 112.022 66.3262C112.022 66.3262 111.409 66.1075 110.272 66.1622C109.134 66.2059 108.543 66.4792 108.543 66.4792Z" fill="#F59A50"/>
<path d="M109.834 73.9889C109.834 73.9889 110.512 73.4861 111.573 73.4314C112.634 73.3767 113.312 73.8358 113.312 73.8358C113.312 73.8358 112.7 73.6172 111.562 73.6719C110.425 73.7156 109.834 73.9889 109.834 73.9889Z" fill="#F59A50"/>
<path d="M109.856 74.5464C109.856 74.5464 110.534 74.0435 111.595 73.9889C112.656 73.9451 113.334 74.3933 113.334 74.3933C113.334 74.3933 112.722 74.1747 111.584 74.2294C110.447 74.2731 109.856 74.5464 109.856 74.5464Z" fill="#F59A50"/>
<path d="M87.8369 54.5096C87.8369 54.5096 88.6682 53.8865 89.959 53.8318C91.2497 53.7772 92.081 54.3237 92.081 54.3237C92.081 54.3237 91.3372 54.0614 89.948 54.127C88.5589 54.1816 87.8369 54.5096 87.8369 54.5096Z" fill="#F59A50"/>
<path d="M87.8589 55.1873C87.8589 55.1873 88.6902 54.5642 89.9809 54.5096C91.2717 54.4549 92.103 55.0015 92.103 55.0015C92.103 55.0015 91.3592 54.7391 89.97 54.8047C88.5808 54.8703 87.8589 55.1873 87.8589 55.1873Z" fill="#F59A50"/>
<path d="M78.605 58.4448C78.605 58.4448 79.4363 57.8217 80.727 57.7671C82.0178 57.7124 82.8491 58.259 82.8491 58.259C82.8491 58.259 82.1053 57.9966 80.7161 58.0622C79.3269 58.1278 78.605 58.4448 78.605 58.4448Z" fill="#F59A50"/>
<path d="M78.6265 59.1225C78.6265 59.1225 79.4578 58.4994 80.7485 58.4448C82.0393 58.3901 82.8706 58.9367 82.8706 58.9367C82.8706 58.9367 82.1268 58.6743 80.7376 58.7399C79.3484 58.7946 78.6265 59.1225 78.6265 59.1225Z" fill="#F59A50"/>
<path d="M79.9395 69.5727C79.9395 69.5727 80.7708 68.9496 82.0615 68.895C83.3522 68.8403 84.1836 69.3869 84.1836 69.3869C84.1836 69.3869 83.4398 69.1245 82.0506 69.1901C80.6614 69.2447 79.9395 69.5727 79.9395 69.5727Z" fill="#F59A50"/>
<path d="M79.9722 70.2504C79.9722 70.2504 80.8035 69.6273 82.0942 69.5727C83.385 69.518 84.2163 70.0646 84.2163 70.0646C84.2163 70.0646 83.4725 69.8022 82.0833 69.8678C80.6941 69.9225 79.9722 70.2504 79.9722 70.2504Z" fill="#F59A50"/>
<path d="M89.3027 65.5937C89.3027 65.5937 90.1341 64.9707 91.4248 64.916C92.7155 64.8614 93.5468 65.4079 93.5468 65.4079C93.5468 65.4079 92.803 65.1456 91.4139 65.2111C90.0247 65.2658 89.3027 65.5937 89.3027 65.5937Z" fill="#F59A50"/>
<path d="M89.3354 66.2605C89.3354 66.2605 90.1668 65.6375 91.4575 65.5828C92.7482 65.5282 93.5796 66.0747 93.5796 66.0747C93.5796 66.0747 92.8357 65.8124 91.4466 65.878C90.0574 65.9326 89.3354 66.2605 89.3354 66.2605Z" fill="#F59A50"/>
<path d="M98.9395 67.3537C98.9395 67.3537 99.7708 66.7306 101.062 66.6759C102.352 66.6213 103.184 67.1678 103.184 67.1678C103.184 67.1678 102.44 66.9055 101.051 66.9711C99.6614 67.0367 98.9395 67.3537 98.9395 67.3537Z" fill="#F59A50"/>
<path d="M98.9722 68.0314C98.9722 68.0314 99.8035 67.4083 101.094 67.3537C102.385 67.299 103.216 67.8456 103.216 67.8456C103.216 67.8456 102.472 67.5832 101.083 67.6488C99.6941 67.7035 98.9722 68.0314 98.9722 68.0314Z" fill="#F59A50"/>
</g>
</g>
<defs>
<linearGradient id="paint0_linear_69_33858" x1="62.1252" y1="34.2842" x2="53.4157" y2="63.9703" gradientUnits="userSpaceOnUse">
<stop stop-color="#B3B3B3"/>
<stop offset="0.16" stop-color="#C2C2C2"/>
<stop offset="0.44" stop-color="#D6D6D6"/>
<stop offset="0.72" stop-color="#E2E2E2"/>
<stop offset="1" stop-color="#E6E6E6"/>
</linearGradient>
<clipPath id="clip0_69_33858">
<rect width="150.13" height="150.03" fill="white"/>
</clipPath>
<clipPath id="clip1_69_33858">
<rect width="164" height="164" fill="white" transform="translate(-14 -7)"/>
</clipPath>
</defs>
</svg>
