<svg width="201" height="212" viewBox="0 0 201 212" fill="none" xmlns="http://www.w3.org/2000/svg">
<g opacity="0.3">
<path d="M77.6738 33.6949C77.3719 33.6393 77.1727 33.3498 77.2283 33.0487C77.3356 32.4627 77.4198 31.8636 77.4769 31.2675C77.5063 30.9656 77.7711 30.7441 78.0722 30.7672C78.076 30.7672 78.0791 30.7672 78.083 30.768C78.388 30.7973 78.6119 31.0691 78.5825 31.3741C78.5223 32.0018 78.4335 32.6325 78.3208 33.2494C78.2691 33.5312 78.0127 33.7243 77.7325 33.7026C77.7132 33.7011 77.6939 33.6988 77.6746 33.6949H77.6738ZM77.558 28.346C77.534 27.7476 77.4839 27.1454 77.409 26.554C77.3704 26.2498 77.5858 25.9719 77.89 25.934C78.1957 25.8962 78.4721 26.1116 78.5099 26.4158C78.5887 27.0373 78.6412 27.672 78.6667 28.3012C78.679 28.6077 78.4405 28.8664 78.1339 28.8787C78.1116 28.8795 78.0899 28.8787 78.0683 28.8772C77.7919 28.8556 77.5688 28.6301 77.5572 28.346H77.558ZM76.843 23.6888C76.6871 23.1129 76.5033 22.5361 76.298 21.9756C76.1922 21.6876 76.3404 21.3687 76.6284 21.263C76.9164 21.158 77.2353 21.3054 77.341 21.5934C77.5572 22.1841 77.7502 22.7909 77.9147 23.3978C77.995 23.6935 77.8205 23.9984 77.524 24.0787C77.4607 24.0957 77.3974 24.1011 77.3356 24.0965C77.1079 24.0787 76.9056 23.9212 76.8423 23.6881L76.843 23.6888ZM75.1043 19.3089C74.8225 18.7815 74.5152 18.2604 74.1902 17.7601C74.0234 17.503 74.096 17.1586 74.3531 16.9919C74.6102 16.8251 74.9538 16.8984 75.1213 17.1548C75.4633 17.6821 75.7876 18.2303 76.0841 18.7854C76.2285 19.0556 76.1266 19.3922 75.8556 19.5366C75.759 19.5883 75.6533 19.6084 75.5514 19.6007C75.3684 19.5868 75.197 19.4826 75.1036 19.3089H75.1043ZM72.4329 15.4253C72.0423 14.9752 71.6269 14.5343 71.1976 14.1174C70.9776 13.9036 70.973 13.5523 71.1868 13.3322C71.4007 13.1122 71.752 13.1075 71.972 13.3222C72.4229 13.7615 72.8607 14.2247 73.2714 14.6988C73.4722 14.9304 73.4474 15.2809 73.2158 15.4817C73.0992 15.5828 72.9526 15.6268 72.8089 15.616C72.6684 15.6052 72.5318 15.5411 72.4322 15.4261L72.4329 15.4253ZM68.9694 12.2297C68.4884 11.8761 67.9858 11.5395 67.4762 11.2275C67.2145 11.0677 67.1319 10.7257 67.2917 10.464C67.4515 10.2022 67.7935 10.1196 68.0553 10.2794C68.5919 10.6068 69.1207 10.9619 69.6272 11.3341C69.8743 11.5155 69.9276 11.863 69.7461 12.11C69.628 12.2706 69.4404 12.3494 69.2551 12.3347C69.1555 12.327 69.0567 12.2922 68.9694 12.2289V12.2297ZM48.5928 9.08503C48.4878 8.79705 48.636 8.47818 48.9248 8.37318C49.5147 8.15854 50.1231 7.9663 50.7307 7.80262C51.0272 7.72309 51.3314 7.89835 51.4109 8.19406C51.4904 8.48976 51.3151 8.79473 51.0194 8.87426C50.4419 9.02944 49.8652 9.21243 49.3047 9.41625C49.2275 9.44405 49.1487 9.45408 49.0723 9.44868C48.8615 9.43247 48.67 9.29581 48.5928 9.08503ZM64.8859 9.88259C64.3385 9.64479 63.7741 9.4286 63.2082 9.23867C62.9171 9.14139 62.7604 8.82639 62.8584 8.53609C62.9557 8.24501 63.27 8.08983 63.561 8.18634C64.1571 8.38631 64.7516 8.61407 65.3283 8.86422C65.6093 8.98621 65.7391 9.3128 65.6171 9.5946C65.5206 9.81773 65.2943 9.94513 65.065 9.92737C65.0056 9.92274 64.9454 9.90806 64.8867 9.88259H64.8859ZM53.267 7.83118C53.2291 7.52698 53.4453 7.24981 53.7495 7.21198C54.3726 7.13477 55.008 7.08304 55.6365 7.05911C55.943 7.04598 56.2008 7.2861 56.2124 7.59261C56.224 7.89913 55.9854 8.157 55.6789 8.16858C55.0813 8.19174 54.4776 8.24038 53.8854 8.3145C53.8476 8.31913 53.8105 8.31991 53.7734 8.31682C53.5156 8.29675 53.2986 8.09832 53.2662 7.83196L53.267 7.83118ZM60.3816 8.50752C59.7948 8.39866 59.1965 8.31373 58.6012 8.25505C58.2963 8.22494 58.0731 7.95317 58.1032 7.6482C58.1326 7.34709 58.3982 7.1255 58.6985 7.14944C58.7024 7.14944 58.7062 7.14944 58.7101 7.15021C59.3362 7.21198 59.967 7.30077 60.5839 7.41581C60.885 7.47217 61.0842 7.7617 61.0286 8.06358C60.9761 8.34538 60.7198 8.53763 60.4403 8.51601C60.421 8.51447 60.4009 8.51215 60.3809 8.50829L60.3816 8.50752Z" fill="#BDD0FB"/>
<path d="M45.5438 11.1093C45.6527 11.1178 45.7654 11.0946 45.8673 11.0344C46.1144 10.8893 46.3684 10.7472 46.6224 10.6121C46.8926 10.4677 46.9953 10.1318 46.8509 9.86085C46.7065 9.58985 46.3699 9.48717 46.0997 9.63232C45.8325 9.77515 45.5654 9.92416 45.3052 10.0763C45.0404 10.2314 44.9524 10.5719 45.1068 10.836C45.2025 10.9989 45.3685 11.0954 45.5438 11.1085V11.1093Z" fill="#BDD0FB"/>
</g>
<g opacity="0.3">
<path d="M35.4469 24.6951C35.7141 24.716 35.9642 24.54 36.0291 24.2713C36.0962 23.9933 36.1696 23.7115 36.2483 23.4344C36.3325 23.1394 36.1611 22.8321 35.8662 22.748C35.5697 22.6638 35.2639 22.8352 35.1798 23.1302C35.0972 23.422 35.0192 23.7185 34.9482 24.0111C34.8764 24.3091 35.0601 24.6087 35.3581 24.6805C35.3875 24.6874 35.4168 24.6921 35.4461 24.6944L35.4469 24.6951Z" fill="#BDD0FB"/>
<path d="M53.6908 51.218C53.3866 51.1794 53.1712 50.9015 53.2098 50.5973C53.2484 50.2931 53.5263 50.0784 53.8305 50.1163C54.4096 50.1896 55.001 50.2398 55.5947 50.2653C55.8997 50.2776 56.1383 50.5378 56.1251 50.8443C56.112 51.1508 55.8526 51.3879 55.5461 51.3747C55.289 51.3632 55.0327 51.3477 54.7779 51.3284C54.4142 51.3006 54.0483 51.2628 53.69 51.2172L53.6908 51.218ZM57.9673 50.7995C57.9395 50.4946 58.1634 50.2236 58.4692 50.1958C59.0552 50.1417 59.6458 50.0622 60.2233 49.9595C60.5244 49.9047 60.8132 50.107 60.8672 50.4089C60.9213 50.7107 60.7198 50.9987 60.4179 51.0528C59.8095 51.1609 59.188 51.245 58.5711 51.3014C58.5394 51.3045 58.5078 51.3045 58.4769 51.3014C58.2121 51.2805 57.9928 51.0721 57.9673 50.7988V50.7995ZM50.7222 50.632C50.1261 50.4714 49.5278 50.283 48.9456 50.0715C48.6576 49.9672 48.5086 49.6484 48.6129 49.3604C48.7171 49.0724 49.036 48.9234 49.3239 49.0276C49.8767 49.2284 50.4442 49.4075 51.0109 49.5596C51.3066 49.6391 51.4827 49.9441 51.4024 50.2406C51.3321 50.5023 51.0851 50.6698 50.8241 50.6498C50.7901 50.6474 50.7561 50.6413 50.7222 50.632ZM62.6546 49.9618C62.5596 49.67 62.7194 49.3573 63.0113 49.2623C63.5703 49.0809 64.1285 48.874 64.6697 48.6462C64.9523 48.5273 65.2781 48.6601 65.397 48.9427C65.5159 49.2253 65.3831 49.5511 65.1005 49.6692C64.53 49.9093 63.9424 50.1271 63.3541 50.3185C63.2831 50.3417 63.2105 50.3494 63.1402 50.344C62.9225 50.327 62.7264 50.1819 62.6546 49.9618ZM46.1808 48.8477C45.635 48.5597 45.093 48.2447 44.5718 47.9104C44.3132 47.7452 44.2383 47.4016 44.4035 47.1438C44.5687 46.8851 44.9123 46.8102 45.1702 46.9755C45.6658 47.2928 46.1801 47.5923 46.6989 47.8657C46.9699 48.0085 47.0741 48.3443 46.9313 48.6161C46.8247 48.8184 46.6109 48.9273 46.397 48.911C46.3237 48.9056 46.2503 48.8848 46.1808 48.8485V48.8477ZM42.1406 46.1107C41.6696 45.7093 41.2094 45.2838 40.774 44.8453C40.5578 44.6276 40.5594 44.2763 40.7771 44.0601C40.9948 43.8439 41.3461 43.8447 41.5623 44.0632C41.9761 44.4801 42.4131 44.8847 42.8609 45.2661C43.0941 45.4653 43.1226 45.815 42.9234 46.049C42.8038 46.1895 42.6285 46.2559 42.4579 46.2428C42.3452 46.2343 42.234 46.191 42.1413 46.1123L42.1406 46.1107ZM38.7928 42.5584C38.4199 42.0635 38.064 41.5478 37.7343 41.0258C37.5706 40.7664 37.6486 40.4236 37.908 40.2599C38.1675 40.0963 38.5103 40.1742 38.6739 40.4337C38.9866 40.9301 39.3248 41.4204 39.6792 41.8906C39.8637 42.1353 39.8151 42.4835 39.5703 42.6681C39.4576 42.753 39.324 42.7885 39.1936 42.7785C39.0399 42.7669 38.8924 42.6912 38.7928 42.5592V42.5584ZM36.2998 38.3606C36.0443 37.7963 35.8095 37.2149 35.6034 36.632C35.5007 36.3432 35.652 36.0259 35.9408 35.9232C36.2296 35.8205 36.5469 35.9718 36.6496 36.2614C36.8457 36.8149 37.0688 37.367 37.3112 37.9028C37.4379 38.1823 37.3143 38.5112 37.0348 38.6378C36.9468 38.678 36.8534 38.6926 36.7631 38.6857C36.5677 38.6702 36.3863 38.5521 36.2998 38.3614V38.3606ZM34.7896 33.7151C34.6646 33.1098 34.5642 32.4913 34.4908 31.8768C34.4546 31.5726 34.6715 31.2962 34.9765 31.2599C35.2799 31.2236 35.5571 31.4405 35.5934 31.7455C35.6629 32.3292 35.7586 32.9167 35.8767 33.4912C35.9385 33.7915 35.7455 34.0849 35.4451 34.1467C35.3926 34.1575 35.3409 34.1606 35.2899 34.1567C35.0498 34.1382 34.8406 33.9629 34.7889 33.7151H34.7896ZM34.3364 28.8564C34.3441 28.4009 34.365 27.9407 34.4005 27.4875C34.4129 27.3231 34.4275 27.1602 34.4437 26.9972C34.4739 26.6923 34.7425 26.463 35.0514 26.5C35.3563 26.5301 35.5795 26.8019 35.5494 27.1077C35.5339 27.2621 35.52 27.418 35.5084 27.574C35.4752 28.0048 35.4544 28.4426 35.4474 28.8749C35.4428 29.1814 35.1896 29.4262 34.8831 29.4208C34.8715 29.4208 34.8599 29.4208 34.8491 29.4192C34.5588 29.3969 34.3326 29.1521 34.3372 28.8564H34.3364Z" fill="#BDD0FB"/>
<path d="M67.4901 48.3707C67.6005 48.3792 67.714 48.3553 67.8159 48.2951C68.0745 48.1414 68.3347 47.9801 68.5895 47.8141C68.8466 47.6465 68.9192 47.3029 68.7524 47.0458C68.5849 46.7887 68.2413 46.7154 67.9842 46.8829C67.7426 47.0404 67.4955 47.1941 67.25 47.3392C66.9867 47.4952 66.8995 47.8364 67.0554 48.0997C67.1511 48.2611 67.3164 48.3568 67.4909 48.3699L67.4901 48.3707Z" fill="#BDD0FB"/>
</g>
<path d="M69.8537 39.156C69.9301 39.0757 69.9471 38.9561 69.8962 38.858L68.4462 36.0523C69.1936 34.7807 69.7441 33.3809 70.0552 31.8954L73.0138 30.796C73.1173 30.7574 73.1852 30.657 73.1829 30.5466L73.0926 26.7596C73.0902 26.6492 73.0177 26.5519 72.9119 26.5187L69.9047 25.5613C69.5233 24.0921 68.9071 22.7201 68.1003 21.4855L69.4159 18.6142C69.4623 18.5138 69.4391 18.3949 69.3588 18.3185L66.6172 15.7042C66.5369 15.6278 66.4172 15.6108 66.3191 15.6618L63.5134 17.1117C62.2418 16.3644 60.842 15.8139 59.3566 15.5027L58.2571 12.5441C58.2185 12.4407 58.1182 12.3727 58.0078 12.3751L54.2207 12.4654C54.1103 12.4677 54.013 12.5403 53.9798 12.6461L53.0225 15.6533C51.5532 16.0347 50.1812 16.6508 48.9467 17.4576L46.0753 16.142C45.975 16.0957 45.8561 16.1188 45.7796 16.1991L43.1654 18.9408C43.0889 19.0211 43.072 19.1407 43.1229 19.2388L44.5736 22.0445C43.8263 23.3161 43.2758 24.7159 42.9646 26.2014L40.0061 27.3008C39.9026 27.3394 39.8347 27.4398 39.837 27.5502L39.9273 31.3372C39.9296 31.4476 40.0022 31.5449 40.108 31.5781L43.1152 32.5362C43.4966 34.0055 44.1127 35.3775 44.9195 36.612L43.6039 39.4834C43.5576 39.5837 43.5808 39.7026 43.6611 39.7791L46.4027 42.3933C46.483 42.4698 46.6027 42.4868 46.7007 42.4358L49.5064 40.9851C50.778 41.7324 52.1778 42.2829 53.6633 42.5941L54.7627 45.5527C54.8013 45.6561 54.9017 45.7241 55.0121 45.7217L58.7991 45.6314C58.9095 45.6291 59.0068 45.5565 59.04 45.4507L59.9974 42.4435C61.4666 42.0621 62.8386 41.446 64.0732 40.6392L66.9445 41.9548C67.0449 42.0011 67.1638 41.9779 67.2402 41.8977L69.8545 39.156H69.8537Z" fill="#BDD0FB"/>
<path d="M55.6644 32.7614C53.6169 32.2959 52.3299 30.2514 52.7954 28.2039C53.0209 27.2117 53.6192 26.3671 54.4801 25.8251C55.341 25.2831 56.3609 25.1086 57.353 25.3348C59.4005 25.8004 60.6876 27.8448 60.222 29.8924C59.7981 31.7554 58.0687 32.9884 56.2173 32.8456C56.0335 32.8317 55.849 32.8039 55.6644 32.7614ZM54.9526 26.5771C54.2925 26.9925 53.8339 27.6402 53.6609 28.4007C53.3042 29.9704 54.2909 31.5384 55.8606 31.8951C57.431 32.2526 58.9983 31.2651 59.355 29.6955C59.7117 28.1259 58.725 26.5578 57.1553 26.2011C57.0133 26.1687 56.8704 26.147 56.7268 26.1362C56.1061 26.0884 55.4884 26.2397 54.9526 26.5771Z" fill="url(#paint0_linear_1147_168382)"/>
<path d="M55.716 38.3243C56.034 38.349 56.3545 38.3575 56.678 38.3497C56.7799 38.3474 56.881 38.3436 56.9829 38.3374C57.484 38.3096 57.982 38.2416 58.4684 38.1351C58.4754 38.1336 58.4815 38.132 58.4885 38.1305C58.507 38.1266 58.5263 38.122 58.5448 38.1173C58.5811 38.1088 58.6182 38.1004 58.6545 38.0919C58.7502 38.0687 58.8166 37.9869 58.8243 37.8934C58.8259 37.871 58.8243 37.8471 58.8189 37.8239C58.7904 37.705 58.6699 37.6317 58.551 37.6603C57.9372 37.8077 57.3041 37.8903 56.6679 37.905C53.5086 37.9807 50.6882 36.3948 49.0452 33.9474C48.1311 32.5862 47.5814 30.9579 47.5397 29.2006C47.532 28.8926 47.5404 28.5861 47.5644 28.2826C47.7227 26.2421 48.5704 24.3343 50.0018 22.8333C51.6456 21.1093 53.863 20.128 56.2448 20.0716C61.1637 19.955 65.2565 23.8602 65.3738 28.776C65.3808 29.0794 65.3731 29.3813 65.3499 29.6816C65.2488 30.9834 64.8643 32.248 64.2196 33.3845C64.2026 33.4139 64.1933 33.4455 64.191 33.4772C64.1848 33.5606 64.2258 33.6439 64.303 33.6872C64.4095 33.7474 64.5454 33.7103 64.6056 33.6038C65.2827 32.4109 65.6865 31.083 65.7923 29.7164C65.817 29.4014 65.8255 29.0841 65.8178 28.766C65.695 23.6039 61.3946 19.5049 56.2348 19.6277C53.734 19.6871 51.407 20.7171 49.6806 22.5268C48.1782 24.1026 47.288 26.1054 47.122 28.2479C47.0973 28.566 47.0888 28.888 47.0965 29.2115C47.156 31.7122 48.1859 34.0392 49.9956 35.7656C51.5714 37.2688 53.5758 38.1583 55.7183 38.3243H55.716Z" fill="url(#paint1_linear_1147_168382)"/>
<g opacity="0.3">
<path d="M95.4941 49.7484C95.6423 49.76 95.7859 49.6735 95.8408 49.5283C95.9442 49.2558 96.0407 48.9771 96.1272 48.6991C96.1836 48.5185 96.0832 48.3262 95.9018 48.2699C95.7211 48.2127 95.5288 48.3139 95.4725 48.4953C95.3899 48.7601 95.298 49.0265 95.1992 49.2859C95.132 49.4627 95.2208 49.6611 95.3984 49.7283C95.43 49.7399 95.4617 49.7468 95.4941 49.7492V49.7484Z" fill="#BDD0FB"/>
<path d="M96.1637 47.2077C95.9777 47.1738 95.8533 46.9954 95.8873 46.8094C95.9722 46.3392 96.034 45.8589 96.0711 45.3825C96.0788 45.2822 96.0857 45.181 96.0911 45.0799C96.102 44.8907 96.2641 44.7464 96.4525 44.7572C96.6308 44.7742 96.786 44.9301 96.776 45.1193C96.7698 45.2251 96.7629 45.3308 96.7551 45.4358C96.7165 45.9354 96.6517 46.4388 96.5621 46.9321C96.5305 47.1066 96.3722 47.2263 96.1985 47.2131C96.1869 47.2124 96.1753 47.2108 96.1637 47.2085V47.2077ZM96.0827 43.3381C96.0448 42.7598 95.9707 42.1784 95.8618 41.611C95.8263 41.4249 95.9483 41.2458 96.1344 41.2095C96.3197 41.1747 96.5003 41.296 96.5359 41.482C96.6494 42.0773 96.7273 42.6865 96.7675 43.2925C96.7798 43.4817 96.637 43.6446 96.4478 43.6577C96.4316 43.6585 96.4146 43.6585 96.3984 43.6577C96.2309 43.6446 96.0942 43.5103 96.0834 43.3381H96.0827ZM95.4295 39.924C95.2511 39.3735 95.0365 38.8284 94.791 38.3034C94.7107 38.132 94.7848 37.9274 94.9562 37.8479C95.1284 37.7676 95.3322 37.8417 95.4125 38.0131C95.6696 38.5636 95.895 39.1349 96.0819 39.7124C96.1406 39.8923 96.0417 40.0861 95.8611 40.1448C95.8171 40.1587 95.7723 40.1641 95.7291 40.1602C95.5947 40.1502 95.4735 40.0599 95.4287 39.924H95.4295ZM93.9571 36.7747C93.6491 36.2837 93.307 35.8081 92.9419 35.3602C92.8222 35.2136 92.8438 34.9974 92.9905 34.8777C93.1372 34.758 93.3534 34.7796 93.473 34.9263C93.856 35.3958 94.2142 35.8953 94.5377 36.4095C94.6389 36.5701 94.5902 36.7816 94.4296 36.8828C94.3648 36.9229 94.2922 36.9399 94.2212 36.9345C94.1162 36.9268 94.0174 36.8704 93.9571 36.7747ZM91.7606 34.0801C91.3421 33.6794 90.8959 33.3011 90.4326 32.9545C90.2813 32.841 90.2496 32.6263 90.3631 32.4742C90.4766 32.3221 90.6913 32.2912 90.8434 32.4047C91.329 32.7676 91.7976 33.1645 92.2354 33.5845C92.3721 33.7157 92.3767 33.9327 92.2454 34.0693C92.1713 34.1465 92.0702 34.1821 91.9714 34.1743C91.8949 34.1682 91.82 34.1373 91.7606 34.0801ZM88.9765 32.001C88.4739 31.7145 87.9488 31.4566 87.4153 31.2343C87.2409 31.1617 87.1575 30.961 87.2308 30.7857C87.3034 30.6112 87.5034 30.5286 87.6794 30.6004C88.2392 30.8328 88.7896 31.1038 89.317 31.4049C89.4814 31.4991 89.5386 31.7083 89.4451 31.8728C89.3772 31.9917 89.249 32.055 89.1209 32.045C89.0722 32.0411 89.0228 32.0272 88.9772 32.001H88.9765ZM85.7701 30.666C85.2142 30.5116 84.6413 30.3904 84.0669 30.3062C83.8792 30.2785 83.7503 30.104 83.7781 29.9171C83.8059 29.7295 83.9796 29.6029 84.1672 29.6276C84.7694 29.7172 85.3701 29.8438 85.953 30.0059C86.1352 30.0569 86.2426 30.2453 86.1916 30.4282C86.1468 30.5888 85.9955 30.6907 85.8349 30.6784C85.8133 30.6768 85.7917 30.673 85.7693 30.6668L85.7701 30.666ZM80.2165 29.9156C80.198 29.7272 80.3354 29.5596 80.5238 29.5403C81.0457 29.4886 81.5792 29.4647 82.1081 29.4693C82.1884 29.4693 82.2687 29.4709 82.349 29.4732C82.5374 29.4724 82.6879 29.6353 82.6833 29.8245C82.6787 30.0136 82.5212 30.1634 82.332 30.1588C82.2571 30.1565 82.1814 30.1557 82.105 30.1557C81.5985 30.1511 81.0897 30.1742 80.5925 30.2236C80.5717 30.2259 80.5516 30.2259 80.5323 30.2236C80.3694 30.2113 80.2343 30.0831 80.2181 29.9156H80.2165Z" fill="#BDD0FB"/>
</g>
<g opacity="0.3">
<path d="M80.6425 59.0281C80.0472 58.974 79.4504 58.8837 78.8675 58.7586C78.6822 58.7185 78.564 58.537 78.6042 58.351C78.6436 58.1657 78.8273 58.0498 79.0118 58.0877C79.567 58.2066 80.1367 58.293 80.705 58.3448C80.8934 58.3618 81.0324 58.5285 81.0154 58.7169C80.9984 58.9038 80.8339 59.0427 80.6479 59.0281C80.6463 59.0281 80.6448 59.0281 80.6432 59.0281H80.6425ZM82.0847 58.7493C82.0793 58.5602 82.2283 58.4019 82.4175 58.3965C82.9873 58.3795 83.5609 58.3278 84.1237 58.2429C84.3098 58.2151 84.4859 58.3432 84.5136 58.5308C84.5422 58.7185 84.4133 58.8922 84.2257 58.9208C83.6358 59.0095 83.0336 59.0644 82.4375 59.0813C82.4252 59.0813 82.4128 59.0813 82.4005 59.0806C82.2283 59.0674 82.0901 58.9261 82.0847 58.7486V58.7493ZM77.1372 58.2753C76.5721 58.0792 76.0146 57.8468 75.4796 57.5851C75.3097 57.5017 75.2395 57.2963 75.3221 57.1264C75.4055 56.9566 75.6101 56.8863 75.7807 56.9689C76.2911 57.2191 76.823 57.4407 77.3619 57.6283C77.541 57.6908 77.6352 57.8862 77.5735 58.0645C77.521 58.2151 77.375 58.3054 77.2229 58.2938C77.1944 58.2915 77.165 58.2853 77.1365 58.2761L77.1372 58.2753ZM85.5606 58.3062C85.5096 58.124 85.6162 57.9348 85.7984 57.8839C86.3473 57.7302 86.8916 57.5418 87.4166 57.3226C87.5911 57.25 87.7919 57.3326 87.8652 57.5071C87.9378 57.6823 87.8552 57.8831 87.6807 57.9557C87.1294 58.1857 86.5581 58.3834 85.9829 58.544C85.9428 58.5548 85.9034 58.5586 85.864 58.5556C85.7243 58.5447 85.6 58.4482 85.5598 58.3062H85.5606ZM73.9192 56.6987C73.4189 56.3729 72.9341 56.0139 72.477 55.6302C72.3318 55.5082 72.3133 55.292 72.4345 55.1468C72.5565 55.0017 72.7727 54.9824 72.9178 55.1044C73.3541 55.4703 73.8165 55.8131 74.2937 56.1235C74.452 56.227 74.4975 56.4393 74.3941 56.5983C74.323 56.7072 74.201 56.7628 74.0798 56.7528C74.0242 56.7481 73.9694 56.7311 73.9192 56.6987ZM71.173 54.3956C70.7645 53.9586 70.3793 53.4938 70.0272 53.0128C69.9153 52.86 69.9485 52.6453 70.1013 52.5341C70.2542 52.4222 70.4688 52.4554 70.5808 52.6083C70.9166 53.0669 71.2841 53.5108 71.6733 53.9277C71.803 54.0659 71.7953 54.2829 71.6571 54.4126C71.5837 54.4805 71.4887 54.5114 71.3961 54.5037C71.3135 54.4975 71.2332 54.4612 71.1722 54.3964L71.173 54.3956ZM69.0567 51.5011C68.7649 50.9792 68.5024 50.4341 68.2761 49.8828C68.2043 49.7076 68.2885 49.5076 68.4638 49.4358C68.639 49.364 68.839 49.4482 68.9108 49.6234C69.1262 50.1492 69.3763 50.6688 69.6551 51.166C69.7477 51.3312 69.6883 51.5405 69.523 51.6331C69.462 51.6679 69.3949 51.681 69.3292 51.6756C69.2188 51.6671 69.1146 51.6053 69.0559 51.5011H69.0567Z" fill="#BDD0FB"/>
<path d="M89.113 57.201C89.1786 57.2064 89.2474 57.1925 89.3091 57.157C89.5639 57.0118 89.8164 56.8582 90.058 56.7007C90.2163 56.5972 90.2619 56.3849 90.1584 56.2258C90.055 56.0676 89.8426 56.0228 89.6836 56.1255C89.4527 56.2752 89.2126 56.4219 88.9694 56.5609C88.805 56.6543 88.7478 56.8643 88.8412 57.0288C88.8999 57.1315 89.0034 57.1925 89.113 57.201Z" fill="#BDD0FB"/>
</g>
<path d="M90.9195 50.9278C90.9704 50.8745 90.982 50.7942 90.948 50.7286L89.9775 48.8509C90.4778 48 90.8461 47.0635 91.0538 46.0691L93.0334 45.3333C93.1029 45.3078 93.1484 45.2407 93.1461 45.1665L93.0859 42.6326C93.0844 42.5585 93.0357 42.4936 92.9647 42.4712L90.9519 41.8304C90.6971 40.8475 90.2848 39.9288 89.7444 39.1034L90.6245 37.1817C90.6554 37.1146 90.64 37.035 90.5867 36.9841L88.7523 35.2346C88.699 35.1836 88.6187 35.172 88.5523 35.206L86.6746 36.1765C85.8238 35.6762 84.8872 35.3079 83.8928 35.1002L83.157 33.1206C83.1315 33.0511 83.0644 33.0056 82.9903 33.0079L80.4563 33.0681C80.3822 33.0697 80.3173 33.1183 80.2949 33.1893L79.6541 35.2021C78.6713 35.4569 77.7525 35.8692 76.9272 36.4097L75.0055 35.5295C74.9383 35.4986 74.8588 35.5141 74.8078 35.5673L73.0583 37.4018C73.0073 37.4551 72.9958 37.5353 73.0297 37.601L74.0002 39.4787C73.4999 40.3295 73.1316 41.266 72.9239 42.2604L70.9443 42.9962C70.8749 43.0217 70.8293 43.0889 70.8316 43.163L70.8918 45.697C70.8934 45.7711 70.942 45.8359 71.0131 45.8583L73.0259 46.4991C73.2806 47.482 73.6929 48.4008 74.2334 49.2269L73.3532 51.1486C73.3223 51.2157 73.3378 51.2953 73.391 51.3462L75.2255 53.0957C75.2788 53.1467 75.3591 53.1583 75.4255 53.1243L77.3032 52.1538C78.154 52.6541 79.0905 53.0224 80.0849 53.2301L80.8207 55.2097C80.8462 55.2792 80.9134 55.3247 80.9875 55.3224L83.5215 55.2622C83.5956 55.2606 83.6604 55.212 83.6828 55.141L84.3236 53.1282C85.3065 52.8734 86.2253 52.4611 87.0506 51.9206L88.9723 52.8008C89.0395 52.8317 89.119 52.8163 89.1699 52.763L90.9195 50.9285V50.9278Z" fill="#BDD0FB"/>
<path d="M81.4139 46.6976C80.7384 46.5439 80.1624 46.1362 79.7933 45.5502C79.4243 44.9642 79.3054 44.2694 79.459 43.593C79.7763 42.1987 81.1661 41.3239 82.5635 41.6381C83.9579 41.9555 84.835 43.3483 84.5177 44.7427C84.364 45.4182 83.9564 45.9934 83.3704 46.3632C82.894 46.6636 82.345 46.7979 81.7938 46.7555C81.6672 46.7454 81.5398 46.7261 81.4139 46.6976ZM80.1284 43.7451C80.0157 44.2423 80.1029 44.7535 80.3739 45.1851C80.6457 45.6159 81.0688 45.9162 81.566 46.0289C82.0632 46.1409 82.5743 46.0544 83.0059 45.7826C83.4375 45.5116 83.7371 45.0878 83.8498 44.5913C84.083 43.5652 83.4383 42.5415 82.4122 42.3075C82.3196 42.2867 82.2269 42.2728 82.135 42.2658C81.2078 42.194 80.3407 42.8125 80.1284 43.7451Z" fill="url(#paint2_linear_1147_168382)"/>
<path d="M81.4499 50.569C81.6661 50.586 81.8853 50.5914 82.1061 50.5868C82.5455 50.5768 82.9848 50.5212 83.4125 50.4231C83.4318 50.4185 83.4511 50.4138 83.4696 50.4092C83.6179 50.3737 83.7198 50.2471 83.7314 50.1027C83.7344 50.068 83.7314 50.0317 83.7229 49.9954C83.6789 49.8116 83.4936 49.6989 83.309 49.7421C82.9106 49.8379 82.5007 49.8911 82.0899 49.9004C82.0675 49.9004 82.0444 49.9012 82.022 49.9012C81.0492 49.9151 80.1103 49.6858 79.2719 49.2449C78.8163 49.0056 78.3909 48.7029 78.0057 48.3424C78.0026 48.3393 77.9995 48.3362 77.9964 48.3339C77.9871 48.3246 77.9771 48.3161 77.9678 48.3068C76.8514 47.2422 76.2168 45.8069 76.1805 44.265C76.1758 44.0658 76.1805 43.8674 76.1959 43.6713C76.2986 42.3503 76.8475 41.115 77.774 40.1429C78.8387 39.0265 80.274 38.3919 81.8151 38.3556C83.3561 38.3193 84.8208 38.8852 85.9372 39.9491C87.0536 41.0138 87.6882 42.4491 87.7245 43.9909C87.7292 44.1871 87.7245 44.3832 87.7091 44.5769C87.6435 45.4201 87.3948 46.2385 86.9772 46.9742C86.9517 47.0198 86.937 47.0684 86.9332 47.1171C86.9231 47.2452 86.9864 47.3742 87.1053 47.4421C87.2705 47.5355 87.479 47.4784 87.5732 47.3132C88.0403 46.4902 88.319 45.5737 88.3924 44.631C88.4094 44.4133 88.4155 44.1948 88.4101 43.9747C88.3692 42.2491 87.6589 40.644 86.4097 39.4527C85.1612 38.2622 83.5244 37.6275 81.7981 37.67C80.0733 37.7109 78.4674 38.4212 77.2768 39.6704C76.2399 40.7575 75.6261 42.1395 75.5118 43.6173C75.4949 43.8365 75.4887 44.0589 75.4941 44.2812C75.5736 47.6212 78.1871 50.3158 81.4491 50.5683L81.4499 50.569Z" fill="url(#paint3_linear_1147_168382)"/>
<path d="M200.498 74.563L198.253 169.541L197.905 184.229C197.905 186.149 196.331 187.703 194.411 187.703H5.56481C3.64466 187.703 2.07117 186.149 2.07117 184.229L1.85808 169.532L0.5 75.7188C0.5 73.7994 2.76218 70.0548 6.90514 70.3374L191.467 65.5614C193.877 65.5011 196.208 66.4268 197.914 68.1308C199.62 69.8309 200.555 72.1572 200.498 74.5638V74.563Z" fill="url(#paint4_linear_1147_168382)"/>
<path opacity="0.2" d="M193.287 181.279C193.287 183.069 191.79 184.535 189.96 184.535H10.0637C8.23385 184.535 6.7368 183.069 6.7368 181.279L5.23975 80.0026C5.23975 78.2121 7.39306 74.7162 11.3399 74.9787L187.155 70.5223C189.451 70.4644 191.67 71.3298 193.296 72.9172C194.922 74.5046 195.812 76.6749 195.758 78.9217L193.287 181.279Z" fill="#91B3FA"/>
<path d="M158.287 86.3332C158.242 88.0016 157.356 89.3744 156.306 89.3805L93.9064 89.7519C92.7251 89.7589 91.7716 88.2973 91.7793 86.5223C91.7871 84.745 92.7552 83.2734 93.9396 83.2734H156.467C157.518 83.2734 158.332 84.6632 158.287 86.3332H158.287Z" fill="#F5F5F5"/>
<path d="M157.613 158.403C157.569 160.071 156.695 161.387 155.659 161.393L94.1326 161.736C92.9676 161.742 92.028 160.381 92.0357 158.606C92.0434 156.829 92.9985 155.457 94.1659 155.457H155.819C156.856 155.457 157.658 156.733 157.613 158.403Z" fill="#F5F5F5"/>
<path d="M157.62 146.857C157.575 148.525 156.697 149.829 155.658 149.835L93.8853 150.173C92.7156 150.18 91.7721 148.838 91.7798 147.063C91.7876 145.285 92.7465 143.934 93.9185 143.934H155.819C156.86 143.934 157.666 145.186 157.62 146.857Z" fill="#F5F5F5"/>
<path d="M158.281 99.1301C158.235 100.524 156.694 101.666 154.836 101.681L95.3149 102.178C93.3508 102.194 91.7672 101.044 91.7804 99.608L91.7819 99.4467C91.7958 98.0091 93.404 96.8332 95.372 96.8209L154.999 96.4649C156.862 96.4541 158.332 97.5775 158.286 98.9726L158.281 99.1294V99.1301Z" fill="#F5F5F5"/>
<path d="M158.056 111.657C158.002 113.039 156.458 114.169 154.604 114.183L95.2439 114.631C93.2851 114.646 91.7132 113.505 91.7356 112.082L91.7379 111.921C91.7603 110.496 93.3724 109.331 95.3342 109.321L154.799 109.012C156.656 109.002 158.116 110.117 158.061 111.5L158.055 111.656L158.056 111.657Z" fill="#F5F5F5"/>
<path d="M189.852 185.148H169.617C169.475 185.148 169.36 185.034 169.36 184.892C169.36 184.75 169.475 184.635 169.617 184.635H189.852C192.342 184.635 194.444 182.321 194.444 179.583V117.319C194.444 117.178 194.559 117.062 194.701 117.062C194.843 117.062 194.957 117.177 194.957 117.319V179.583C194.957 182.599 192.619 185.147 189.852 185.147V185.148Z" fill="#BDD0FB"/>
<path d="M5.55027 117.319C5.40899 117.319 5.29395 117.205 5.29395 117.063V81.0674C5.29395 77.366 8.05797 74.5742 11.723 74.5742H27.8185C27.9597 74.5742 28.0748 74.6885 28.0748 74.8305C28.0748 74.9726 27.9605 75.0869 27.8185 75.0869H11.723C8.295 75.0869 5.80583 77.6023 5.80583 81.0681V117.064C5.80583 117.205 5.69156 117.32 5.5495 117.32L5.55027 117.319Z" fill="#BDD0FB"/>
<path d="M83.4526 85.8867H14.5788C14.0671 85.8867 13.6523 86.3015 13.6523 86.8132V161.295C13.6523 161.807 14.0671 162.222 14.5788 162.222H83.4526C83.9642 162.222 84.379 161.807 84.379 161.295V86.8132C84.379 86.3015 83.9642 85.8867 83.4526 85.8867Z" fill="white"/>
<mask id="mask0_1147_168382" style="mask-type:luminance" maskUnits="userSpaceOnUse" x="13" y="85" width="72" height="78">
<path d="M83.4262 85.8867H14.5525C14.0408 85.8867 13.626 86.3015 13.626 86.8132V161.295C13.626 161.807 14.0408 162.222 14.5525 162.222H83.4262C83.9379 162.222 84.3527 161.807 84.3527 161.295V86.8132C84.3527 86.3015 83.9379 85.8867 83.4262 85.8867Z" fill="white"/>
</mask>
<g mask="url(#mask0_1147_168382)">
<path d="M90.5853 159.233C88.4691 146.908 82.8198 135.652 82.8198 135.652L75.4233 161.299C75.4233 161.299 75.5507 161.588 75.7631 162.231L88.0792 162.205C89.6534 162.202 90.8525 160.784 90.5861 159.232L90.5853 159.233Z" fill="url(#paint5_linear_1147_168382)"/>
<path d="M26.5609 162.232C27.3716 159.337 27.9947 157.472 27.9947 157.472L15.9055 135.652C15.9055 135.652 13.1592 138.924 10.2176 157.746C9.85089 160.093 11.6004 162.232 13.9753 162.232H26.5601H26.5609Z" fill="url(#paint6_linear_1147_168382)"/>
<path d="M68.1969 162.232L64.9186 127.87C50.2762 122.458 31.8144 128.514 31.8144 128.514L30.2949 162.232H68.1969Z" fill="url(#paint7_linear_1147_168382)"/>
<path d="M41.4071 117.031L41.1323 126.099C41.1053 126.996 41.6612 127.804 42.5074 128.103C44.8259 128.92 49.6259 130.164 54.1749 128.535C55.0922 128.206 55.645 127.267 55.5029 126.303L54.1394 117.031H41.4071Z" fill="url(#paint8_linear_1147_168382)"/>
<path d="M36.7707 100.475C36.7707 100.475 38.362 116.708 41.8641 120.847C41.8641 120.847 52.3682 121.802 56.1876 119.573C56.1876 119.573 58.893 111.457 58.5749 100.634C58.5749 100.634 59.0968 90.7851 48.2298 89.9706C35.4976 89.0156 36.7707 100.475 36.7707 100.475Z" fill="url(#paint9_linear_1147_168382)"/>
<path d="M57.4609 105.572C57.4609 105.572 58.416 102.707 60.0072 102.707C61.5985 102.707 59.6891 110.347 57.4609 110.347V105.572Z" fill="url(#paint10_linear_1147_168382)"/>
<path d="M38.2194 106.324C38.2194 106.324 36.8868 103.614 35.3095 103.829C33.7321 104.043 36.6552 111.355 38.8625 111.055L38.2186 106.324H38.2194Z" fill="url(#paint11_linear_1147_168382)"/>
<path d="M36.9762 102.504C36.9762 102.504 38.2261 118.119 42.4911 123.566C42.8825 124.065 43.4485 124.356 44.0453 124.388C46.2225 124.504 51.7876 124.711 54.9254 124.019C55.7067 123.847 56.3491 123.237 56.6062 122.402C57.0632 120.918 57.4717 119.737 57.494 119.214C57.6006 116.793 58.1534 110.081 58.8652 100.93C58.6483 100.586 58.4313 100.242 58.2136 99.8984C58.0167 102.015 56.7204 115.489 54.6675 115.801C54.2258 115.868 53.7456 115.772 53.7456 115.772C52.5003 115.521 52.1189 114.539 51.2526 113.901C49.7409 112.787 47.1428 113.01 45.6929 114.174C45.0907 114.657 44.71 115.285 43.6569 115.733C42.9844 116.019 42.3529 116.098 42.1506 116.09C40.6505 116.026 39.158 110.123 38.3203 102.086L36.9746 102.503L36.9762 102.504Z" fill="url(#paint12_linear_1147_168382)"/>
<path d="M54.2777 96.4237C54.2777 96.4237 46.1678 103.46 37.3314 103.433C37.3314 103.433 32.3145 92.1271 42.1823 90.2471C52.0502 88.3671 52.3683 90.7845 52.3683 90.7845C52.3683 90.7845 63.907 88.3934 58.7742 102.21L54.2784 96.4237H54.2777Z" fill="url(#paint13_linear_1147_168382)"/>
<path d="M26.5292 162.232H35.2174L39.3874 126.703C27.9692 127.742 15.9062 135.652 15.9062 135.652L24.8886 157.446C25.5317 159.006 26.0791 160.623 26.53 162.232H26.5292Z" fill="url(#paint14_linear_1147_168382)"/>
<path d="M76.0461 162.234C76.5364 160.197 77.1201 158.318 77.7972 156.406L82.8195 135.655C72.8142 127.839 57.165 126.012 57.165 126.012L63.0135 162.234H76.0461Z" fill="url(#paint15_linear_1147_168382)"/>
</g>
<path d="M145.317 92.1121C145.317 92.1121 132.821 108.109 147.078 124.38L152.438 123.881C152.438 123.881 142.626 108.127 146.401 95.0985C146.567 94.5241 147.107 94.138 147.704 94.1813L153.176 94.5804C153.904 94.6337 154.624 94.409 155.193 93.9519L158.506 91.2891L145.317 92.1106L145.317 92.1121Z" fill="url(#paint16_linear_1147_168382)"/>
<path d="M183.883 25.32C183.686 22.2757 181.847 19.5781 179.092 18.2695L143.385 1.31083C141.098 0.224516 138.445 0.224516 136.158 1.31083L100.451 18.2695C97.6947 19.5781 95.8564 22.2757 95.6596 25.32C92.3103 77.0915 125.506 95.9549 136.387 100.72C138.545 101.665 140.997 101.665 143.155 100.72C154.037 95.9549 187.232 77.0915 183.883 25.32Z" fill="url(#paint17_linear_1147_168382)"/>
<path opacity="0.77" d="M128.97 8.32985C128.827 8.32985 128.689 8.24878 128.624 8.11058C128.533 7.9191 128.614 7.6898 128.806 7.59946L137.242 3.5924C137.435 3.50052 137.663 3.58236 137.753 3.77461C137.845 3.96608 137.763 4.19539 137.571 4.28572L129.135 8.29279C129.082 8.31826 129.026 8.32985 128.97 8.32985Z" fill="white"/>
<path opacity="0.77" d="M98.3905 36.2775C98.1843 36.2775 98.0137 36.1138 98.0068 35.9069C97.8941 32.5445 97.9527 29.0385 98.1828 25.4846C98.3202 23.3607 99.605 21.4722 101.536 20.5549L125.556 9.14675C125.747 9.05564 125.977 9.13671 126.067 9.32896C126.158 9.52044 126.076 9.74974 125.885 9.84007L101.865 21.2482C100.185 22.0458 99.0676 23.688 98.9487 25.534C98.7202 29.0624 98.6615 32.5437 98.7734 35.8806C98.7804 36.0929 98.6144 36.2705 98.4028 36.2775C98.3982 36.2775 98.3936 36.2775 98.3897 36.2775H98.3905Z" fill="white"/>
<path d="M175.249 27.3412C175.21 26.5691 174.75 25.8804 174.052 25.5485L140.673 9.69544C140.103 9.42444 139.441 9.42444 138.871 9.69544L105.492 25.5485C104.794 25.8797 104.335 26.5691 104.295 27.3412C103.308 46.6539 107.769 62.7671 117.564 75.2562C125.03 84.7782 133.766 89.8808 138.884 92.2611C139.448 92.5236 140.097 92.5236 140.661 92.2611C145.78 89.8808 154.515 84.7782 161.982 75.2562C171.776 62.7671 176.237 46.6531 175.25 27.3412H175.249Z" fill="url(#paint18_linear_1147_168382)"/>
<path d="M129.902 48.0901H126.575V34.8328C126.575 29.626 130.473 25.2251 135.642 24.5974L142.444 23.7706C145.372 23.4146 148.318 24.3326 150.526 26.2883C152.733 28.244 153.999 31.0574 153.999 34.0067V45.5809H150.672V34.0067C150.672 32.0086 149.815 30.1031 148.319 28.779C146.824 27.4541 144.829 26.8326 142.845 27.0735L136.043 27.9004C132.542 28.3258 129.901 31.3068 129.901 34.8336V48.0909L129.902 48.0901Z" fill="url(#paint19_linear_1147_168382)"/>
<path d="M125.593 45.1114L154.755 43.4954C155.939 43.4298 156.936 44.3725 156.936 45.5584V68.6612C156.936 69.8023 156.011 70.728 154.869 70.728H126.407C125.292 70.728 124.378 69.8432 124.342 68.7291L123.642 47.2423C123.605 46.1197 124.472 45.1739 125.593 45.1114Z" fill="url(#paint20_linear_1147_168382)"/>
<path d="M145.042 64.1152L143.277 59.0403C143.065 58.4304 143.209 57.7479 143.663 57.2885C144.568 56.372 145.107 55.0943 145.043 53.6906C144.93 51.2154 142.908 49.208 140.432 49.113C137.692 49.008 135.438 51.1976 135.438 53.9145C135.438 55.4216 136.132 56.7666 137.218 57.6467C137.781 58.1038 138.012 58.8543 137.775 59.5391L136.183 64.1144C135.797 65.227 136.623 66.3889 137.801 66.3889H143.426C144.604 66.3889 145.43 65.227 145.044 64.1144L145.042 64.1152Z" fill="url(#paint21_linear_1147_168382)"/>
<path d="M152.16 170.437C152.16 170.437 162.284 192.501 167.595 201.64C167.595 201.64 168.65 207.39 167.595 209.199L166.697 209.598L170.892 209.473C170.892 209.473 171.265 201.739 170.974 201.306C170.683 200.874 170.101 200.903 170.101 200.903C170.101 200.903 168.302 186.649 163.091 183.607L158.042 166.215L152.161 170.437H152.16Z" fill="url(#paint22_linear_1147_168382)"/>
<path d="M164.904 210.683C164.898 210.784 168.181 210.738 169.964 210.706C170.622 210.693 171.184 210.231 171.324 209.588L172.671 202.513C172.799 201.841 172.372 201.188 171.705 201.035L170.954 200.863C170.954 200.863 169.881 202.334 170.219 203.719C170.556 205.104 170.856 208.691 170.004 209.109C169.151 209.527 166.697 209.6 166.697 209.6C166.697 209.6 164.961 209.772 164.905 210.683H164.904Z" fill="url(#paint23_linear_1147_168382)"/>
<path d="M142.565 210.809C142.233 210.998 142.369 211.505 142.752 211.501C145.736 211.471 152.423 211.377 153.016 211.13C153.784 210.811 152.737 208.054 151.635 207.121L145.553 209.106L142.564 210.809H142.565Z" fill="url(#paint24_linear_1147_168382)"/>
<path d="M140.677 169.027C140.677 169.027 147.219 200.675 149.069 206.849L144.692 209.596C144.692 209.596 146.886 209.223 148.513 209.105C150.139 208.987 151.636 207.12 151.636 207.12L151.111 206.284C151.111 206.284 149.471 174.808 149.87 171.234L140.677 169.027Z" fill="url(#paint25_linear_1147_168382)"/>
<path d="M124.437 95.2059C124.437 95.2059 123.534 111.669 138.523 120.081L134.915 128.312C134.915 128.312 121.345 120.104 121.847 97.7175C121.861 97.0751 121.629 96.4513 121.21 95.9641L118.325 92.6179C117.226 91.3432 116.816 89.6138 117.224 87.9809L117.604 86.4637C117.731 85.9557 118.31 85.711 118.763 85.9742L119.065 86.1495C120.025 86.7069 120.786 87.5524 121.239 88.5661L122.687 90.8514C123.216 92.0343 123.34 92.5299 124.631 92.4187L127.03 92.4458L124.438 95.2059H124.437Z" fill="url(#paint26_linear_1147_168382)"/>
<path d="M138.002 118.853C140.51 119.549 149.005 121.783 154.308 121.692L151.052 140.068L151.312 143.065L140.695 143.017C140.695 143.017 137.706 136.076 135.348 132.615C134.667 131.616 135.174 130.424 135.56 129.278L135.029 128.925C134.49 128.566 134.256 127.89 134.457 127.274L137.043 119.364C137.177 118.966 137.597 118.74 138.003 118.853H138.002Z" fill="url(#paint27_linear_1147_168382)"/>
<path d="M139.844 141.446L140.052 143.262C140.052 143.262 137.052 152.248 141.553 173.233C141.553 173.233 151.299 175.994 159.31 169.386C159.31 169.386 157.05 149.579 156.434 148.656C153.359 144.061 151.311 143.062 151.311 143.062L151.218 141.078C151.218 141.078 142.65 142.627 139.843 141.446L139.844 141.446Z" fill="url(#paint28_linear_1147_168382)"/>
<path d="M143.999 120.328C143.962 120.278 146.216 113.523 146.216 113.523L149.444 113.816L150.705 121.479C150.705 121.479 145.646 122.5 143.999 120.327V120.328Z" fill="url(#paint29_linear_1147_168382)"/>
<path d="M148.671 102.877C148.456 103.011 141.773 105.773 143.209 112.711C143.294 113.12 143.567 113.468 143.949 113.639C144.93 114.076 147.041 114.825 149.566 114.568C153.067 114.212 155.361 108.103 155.263 106.325C155.166 104.547 150.804 101.548 148.67 102.877H148.671Z" fill="url(#paint30_linear_1147_168382)"/>
<path d="M148.15 109.246C147.114 106.658 146.151 104.385 147.238 102.655C148.837 100.111 155.173 99.919 158.464 103.387C161.899 107.007 158.634 111.845 162.168 115.771C164.929 118.837 168.112 117.208 171.974 119.537C178.38 123.403 181.524 135.069 177.725 141.471C171.516 151.937 146.631 148.549 142.772 139.83C139.348 132.095 153.016 121.4 148.148 109.246H148.15Z" fill="url(#paint31_linear_1147_168382)"/>
<path opacity="0.39" d="M156.768 123.879C156.748 123.83 156.728 123.781 156.71 123.732C155.987 121.806 156.11 119.476 157.085 116.606C158.605 112.138 158.562 110.692 157.495 108.09C157.464 108.015 157.432 107.938 157.399 107.86L157.505 107.816C157.536 107.89 157.566 107.962 157.595 108.034C158.662 110.636 158.716 112.168 157.193 116.644C156.226 119.487 156.103 121.792 156.816 123.693C157.587 125.742 159.695 127.342 162.601 128.073C163.868 128.392 165.19 128.552 166.47 128.706C167.669 128.85 168.908 128.999 170.104 129.28C170.975 129.485 172.242 129.854 173.187 130.698C174.129 131.538 174.571 132.755 174.313 133.796L174.202 133.769C174.451 132.768 174.022 131.597 173.112 130.784C172.185 129.957 170.937 129.594 170.078 129.392C168.889 129.113 167.652 128.964 166.457 128.82C165.174 128.666 163.848 128.506 162.573 128.185C159.7 127.462 157.595 125.898 156.767 123.88L156.768 123.879Z" fill="white"/>
<path opacity="0.39" d="M154.351 125.583C154.27 125.384 154.2 125.182 154.143 124.979C153.779 123.683 153.944 121.93 155.131 120.938L155.205 121.026C154.057 121.985 153.899 123.688 154.253 124.948C154.711 126.579 155.997 128.103 157.873 129.241C159.11 129.992 160.483 130.534 161.811 131.059C162.251 131.232 162.706 131.412 163.149 131.597C165.1 132.41 166.998 133.39 168.789 134.509C169.975 135.25 171.139 136.11 171.654 137.364C171.671 137.406 171.688 137.448 171.703 137.492C171.983 138.255 171.895 139.209 171.478 139.921C171.156 140.471 170.672 140.822 170.114 140.913L170.096 140.8C170.619 140.716 171.075 140.383 171.379 139.863C171.78 139.179 171.864 138.264 171.595 137.531C171.119 136.235 169.937 135.362 168.728 134.606C166.942 133.49 165.05 132.512 163.105 131.703C162.663 131.519 162.208 131.339 161.769 131.165C160.436 130.639 159.058 130.094 157.813 129.339C156.145 128.327 154.937 127.011 154.351 125.583Z" fill="white"/>
<path opacity="0.39" d="M153.267 127.491C153.068 127.007 152.962 126.478 153.007 125.91L153.122 125.919C152.962 127.952 154.879 129.523 155.71 130.104C156.643 130.756 157.678 131.302 158.678 131.83C160.333 132.703 162.043 133.605 163.321 135.004C163.976 135.719 164.394 136.451 164.564 137.177C164.773 138.073 164.592 138.977 164.08 139.594L163.992 139.52C164.481 138.93 164.653 138.064 164.452 137.203C164.286 136.497 163.877 135.781 163.236 135.08C161.971 133.697 160.27 132.799 158.624 131.931C157.62 131.401 156.582 130.853 155.644 130.198C154.887 129.669 153.773 128.727 153.266 127.491H153.267Z" fill="white"/>
<defs>
<linearGradient id="paint0_linear_1147_168382" x1="52.7004" y1="29.0477" x2="60.317" y2="29.0477" gradientUnits="userSpaceOnUse">
<stop stop-color="#DAE3FE"/>
<stop offset="1" stop-color="#E9EFFD"/>
</linearGradient>
<linearGradient id="paint1_linear_1147_168382" x1="47.0919" y1="28.9891" x2="65.8186" y2="28.9891" gradientUnits="userSpaceOnUse">
<stop stop-color="#DAE3FE"/>
<stop offset="1" stop-color="#E9EFFD"/>
</linearGradient>
<linearGradient id="paint2_linear_1147_168382" x1="79.3942" y1="44.1682" x2="84.5833" y2="44.1682" gradientUnits="userSpaceOnUse">
<stop stop-color="#DAE3FE"/>
<stop offset="1" stop-color="#E9EFFD"/>
</linearGradient>
<linearGradient id="paint3_linear_1147_168382" x1="75.4925" y1="44.1284" x2="88.4124" y2="44.1284" gradientUnits="userSpaceOnUse">
<stop stop-color="#DAE3FE"/>
<stop offset="1" stop-color="#E9EFFD"/>
</linearGradient>
<linearGradient id="paint4_linear_1147_168382" x1="108.732" y1="41.0518" x2="80.9765" y2="300.105" gradientUnits="userSpaceOnUse">
<stop stop-color="#A77AF1"/>
<stop offset="1" stop-color="#4042E2"/>
</linearGradient>
<linearGradient id="paint5_linear_1147_168382" x1="72.5636" y1="124.508" x2="83.1341" y2="159.771" gradientUnits="userSpaceOnUse">
<stop stop-color="#09005D"/>
<stop offset="1" stop-color="#1A0F91"/>
</linearGradient>
<linearGradient id="paint6_linear_1147_168382" x1="12.3293" y1="135.682" x2="23.0572" y2="171.47" gradientUnits="userSpaceOnUse">
<stop stop-color="#09005D"/>
<stop offset="1" stop-color="#1A0F91"/>
</linearGradient>
<linearGradient id="paint7_linear_1147_168382" x1="125.806" y1="-58.8659" x2="111.985" y2="-21.6264" gradientUnits="userSpaceOnUse">
<stop stop-color="#FF928E"/>
<stop offset="1" stop-color="#FE7062"/>
</linearGradient>
<linearGradient id="paint8_linear_1147_168382" x1="48.1458" y1="123.335" x2="49.7525" y2="150.27" gradientUnits="userSpaceOnUse">
<stop stop-color="#FEBBBA"/>
<stop offset="1" stop-color="#FF928E"/>
</linearGradient>
<linearGradient id="paint9_linear_1147_168382" x1="44.9817" y1="101.82" x2="67.5302" y2="131.906" gradientUnits="userSpaceOnUse">
<stop stop-color="#FEBBBA"/>
<stop offset="1" stop-color="#FF928E"/>
</linearGradient>
<linearGradient id="paint10_linear_1147_168382" x1="51.6001" y1="96.864" x2="74.1486" y2="126.949" gradientUnits="userSpaceOnUse">
<stop stop-color="#FEBBBA"/>
<stop offset="1" stop-color="#FF928E"/>
</linearGradient>
<linearGradient id="paint11_linear_1147_168382" x1="37.2875" y1="107.591" x2="59.836" y2="137.676" gradientUnits="userSpaceOnUse">
<stop stop-color="#FEBBBA"/>
<stop offset="1" stop-color="#FF928E"/>
</linearGradient>
<linearGradient id="paint12_linear_1147_168382" x1="36.9762" y1="112.205" x2="58.866" y2="112.205" gradientUnits="userSpaceOnUse">
<stop stop-color="#09005D"/>
<stop offset="1" stop-color="#1A0F91"/>
</linearGradient>
<linearGradient id="paint13_linear_1147_168382" x1="48.0725" y1="120.337" x2="48.0725" y2="79.7623" gradientUnits="userSpaceOnUse">
<stop stop-color="#09005D"/>
<stop offset="1" stop-color="#1A0F91"/>
</linearGradient>
<linearGradient id="paint14_linear_1147_168382" x1="27.1855" y1="129.64" x2="38.5821" y2="167.659" gradientUnits="userSpaceOnUse">
<stop stop-color="#09005D"/>
<stop offset="1" stop-color="#1A0F91"/>
</linearGradient>
<linearGradient id="paint15_linear_1147_168382" x1="64.0095" y1="119.232" x2="76.48" y2="160.834" gradientUnits="userSpaceOnUse">
<stop stop-color="#09005D"/>
<stop offset="1" stop-color="#1A0F91"/>
</linearGradient>
<linearGradient id="paint16_linear_1147_168382" x1="154.251" y1="89.4932" x2="145.111" y2="117.509" gradientUnits="userSpaceOnUse">
<stop stop-color="#FEBBBA"/>
<stop offset="1" stop-color="#FF928E"/>
</linearGradient>
<linearGradient id="paint17_linear_1147_168382" x1="119.764" y1="-11.7064" x2="158.119" y2="82.4397" gradientUnits="userSpaceOnUse">
<stop stop-color="#A8ADF6"/>
<stop offset="1" stop-color="#4B0EAE"/>
</linearGradient>
<linearGradient id="paint18_linear_1147_168382" x1="124.201" y1="-0.362385" x2="155.441" y2="76.3155" gradientUnits="userSpaceOnUse">
<stop stop-color="#09005D"/>
<stop offset="1" stop-color="#1A0F91"/>
</linearGradient>
<linearGradient id="paint19_linear_1147_168382" x1="170.549" y1="-42.2565" x2="156.728" y2="-5.01704" gradientUnits="userSpaceOnUse">
<stop stop-color="#F07A20"/>
<stop offset="1" stop-color="#FE7062"/>
</linearGradient>
<linearGradient id="paint20_linear_1147_168382" x1="155.083" y1="42.955" x2="110.035" y2="88.5151" gradientUnits="userSpaceOnUse">
<stop stop-color="#E7AD1B"/>
<stop offset="1" stop-color="#FE7062"/>
</linearGradient>
<linearGradient id="paint21_linear_1147_168382" x1="173.82" y1="24.4622" x2="212.211" y2="-14.6974" gradientUnits="userSpaceOnUse">
<stop stop-color="#E1473D"/>
<stop offset="1" stop-color="#E9605A"/>
</linearGradient>
<linearGradient id="paint22_linear_1147_168382" x1="152.16" y1="187.907" x2="171.084" y2="187.907" gradientUnits="userSpaceOnUse">
<stop stop-color="#FEBBBA"/>
<stop offset="1" stop-color="#FF928E"/>
</linearGradient>
<linearGradient id="paint23_linear_1147_168382" x1="178.172" y1="145.587" x2="168.801" y2="206.505" gradientUnits="userSpaceOnUse">
<stop stop-color="#09005D"/>
<stop offset="1" stop-color="#1A0F91"/>
</linearGradient>
<linearGradient id="paint24_linear_1147_168382" x1="158.342" y1="142.534" x2="148.97" y2="203.451" gradientUnits="userSpaceOnUse">
<stop stop-color="#09005D"/>
<stop offset="1" stop-color="#1A0F91"/>
</linearGradient>
<linearGradient id="paint25_linear_1147_168382" x1="140.677" y1="189.312" x2="151.636" y2="189.312" gradientUnits="userSpaceOnUse">
<stop stop-color="#FEBBBA"/>
<stop offset="1" stop-color="#FF928E"/>
</linearGradient>
<linearGradient id="paint26_linear_1147_168382" x1="117.069" y1="107.09" x2="138.523" y2="107.09" gradientUnits="userSpaceOnUse">
<stop stop-color="#FEBBBA"/>
<stop offset="1" stop-color="#FF928E"/>
</linearGradient>
<linearGradient id="paint27_linear_1147_168382" x1="231.933" y1="95.064" x2="187.016" y2="113.491" gradientUnits="userSpaceOnUse">
<stop stop-color="#FF928E"/>
<stop offset="1" stop-color="#FE7062"/>
</linearGradient>
<linearGradient id="paint28_linear_1147_168382" x1="131.001" y1="139.806" x2="166.146" y2="179.441" gradientUnits="userSpaceOnUse">
<stop stop-color="#E1473D"/>
<stop offset="1" stop-color="#E9605A"/>
</linearGradient>
<linearGradient id="paint29_linear_1147_168382" x1="143.999" y1="117.622" x2="150.706" y2="117.622" gradientUnits="userSpaceOnUse">
<stop stop-color="#FEBBBA"/>
<stop offset="1" stop-color="#FF928E"/>
</linearGradient>
<linearGradient id="paint30_linear_1147_168382" x1="154.657" y1="108.961" x2="203.47" y2="112.28" gradientUnits="userSpaceOnUse">
<stop stop-color="#FEBBBA"/>
<stop offset="1" stop-color="#FF928E"/>
</linearGradient>
<linearGradient id="paint31_linear_1147_168382" x1="179.614" y1="147.917" x2="146.188" y2="118.093" gradientUnits="userSpaceOnUse">
<stop stop-color="#09005D"/>
<stop offset="1" stop-color="#1A0F91"/>
</linearGradient>
</defs>
</svg>
