<svg width="96" height="102" viewBox="0 0 96 102" fill="none" xmlns="http://www.w3.org/2000/svg">
<g opacity="0.3">
<path d="M37.0434 16.2952C36.8985 16.2685 36.8029 16.1295 36.8296 15.985C36.8811 15.7037 36.9215 15.4161 36.9489 15.13C36.963 14.9851 37.0901 14.8788 37.2346 14.8899C37.2365 14.8899 37.238 14.8899 37.2398 14.8903C37.3862 14.9044 37.4937 15.0348 37.4796 15.1812C37.4507 15.4825 37.4081 15.7853 37.354 16.0814C37.3291 16.2166 37.2061 16.3093 37.0716 16.2989C37.0623 16.2982 37.0531 16.2971 37.0438 16.2952H37.0434ZM36.9878 13.7277C36.9763 13.4405 36.9523 13.1514 36.9163 12.8676C36.8978 12.7215 37.0012 12.5881 37.1472 12.57C37.2939 12.5518 37.4266 12.6552 37.4448 12.8012C37.4826 13.0996 37.5078 13.4042 37.52 13.7062C37.5259 13.8533 37.4114 13.9775 37.2643 13.9834C37.2535 13.9838 37.2432 13.9834 37.2328 13.9827C37.1001 13.9723 36.993 13.8641 36.9875 13.7277H36.9878ZM36.6447 11.4923C36.5698 11.2158 36.4816 10.939 36.383 10.6699C36.3322 10.5317 36.4034 10.3786 36.5416 10.3279C36.6799 10.2775 36.8329 10.3482 36.8837 10.4865C36.9875 10.77 37.0801 11.0613 37.159 11.3526C37.1976 11.4945 37.1138 11.6409 36.9715 11.6794C36.9411 11.6876 36.9107 11.6902 36.8811 11.688C36.7718 11.6794 36.6747 11.6038 36.6443 11.4919L36.6447 11.4923ZM35.8101 9.38989C35.6748 9.13677 35.5273 8.88662 35.3713 8.64647C35.2912 8.52307 35.3261 8.35778 35.4495 8.27773C35.5729 8.19768 35.7378 8.23289 35.8182 8.35593C35.9824 8.60904 36.1381 8.87217 36.2804 9.13862C36.3497 9.26833 36.3007 9.42991 36.1707 9.49921C36.1243 9.52404 36.0736 9.53368 36.0246 9.52997C35.9368 9.5233 35.8545 9.47327 35.8097 9.38989H35.8101ZM34.5278 7.52579C34.3403 7.30973 34.1409 7.09812 33.9349 6.898C33.8292 6.79534 33.827 6.62672 33.9297 6.5211C34.0323 6.41548 34.2009 6.41326 34.3066 6.51629C34.523 6.72716 34.7331 6.94951 34.9303 7.17706C35.0266 7.28824 35.0148 7.45649 34.9036 7.55284C34.8476 7.60139 34.7772 7.62252 34.7083 7.61733C34.6408 7.61214 34.5753 7.58138 34.5274 7.52616L34.5278 7.52579ZM32.8653 5.99189C32.6344 5.82216 32.3932 5.66058 32.1486 5.51086C32.023 5.43415 31.9833 5.26997 32.06 5.14434C32.1367 5.01871 32.3009 4.97906 32.4265 5.05577C32.6841 5.2129 32.938 5.38337 33.1811 5.562C33.2997 5.64909 33.3252 5.81586 33.2381 5.93445C33.1814 6.01153 33.0914 6.04934 33.0024 6.0423C32.9546 6.03859 32.9072 6.02191 32.8653 5.99152V5.99189ZM23.0846 4.48246C23.0342 4.34422 23.1053 4.19117 23.2439 4.14077C23.527 4.03774 23.8191 3.94546 24.1107 3.8669C24.253 3.82872 24.3991 3.91285 24.4372 4.05479C24.4754 4.19673 24.3913 4.34311 24.2493 4.38128C23.9721 4.45577 23.6953 4.54361 23.4262 4.64144C23.3892 4.65478 23.3514 4.6596 23.3147 4.65701C23.2135 4.64922 23.1216 4.58363 23.0846 4.48246ZM30.9052 4.86528C30.6425 4.75114 30.3716 4.64737 30.0999 4.5562C29.9602 4.50951 29.885 4.35831 29.9321 4.21896C29.9787 4.07925 30.1296 4.00476 30.2693 4.05108C30.5554 4.14707 30.8408 4.25639 31.1176 4.37647C31.2525 4.43502 31.3147 4.59178 31.2562 4.72705C31.2099 4.83415 31.1013 4.8953 30.9912 4.88678C30.9627 4.88455 30.9338 4.87751 30.9056 4.86528H30.9052ZM25.3281 3.88061C25.31 3.73459 25.4137 3.60155 25.5598 3.58339C25.8588 3.54633 26.1638 3.5215 26.4655 3.51001C26.6126 3.50371 26.7364 3.61897 26.742 3.7661C26.7475 3.91322 26.633 4.037 26.4859 4.04256C26.199 4.05368 25.9092 4.07702 25.625 4.1126C25.6068 4.11483 25.589 4.1152 25.5712 4.11371C25.4475 4.10408 25.3433 4.00883 25.3278 3.88098L25.3281 3.88061ZM28.7432 4.20525C28.4615 4.153 28.1743 4.11223 27.8886 4.08406C27.7422 4.06961 27.6351 3.93916 27.6496 3.79278C27.6636 3.64824 27.7911 3.54188 27.9353 3.55337C27.9371 3.55337 27.939 3.55337 27.9408 3.55374C28.2414 3.58339 28.5442 3.62601 28.8403 3.68123C28.9848 3.70828 29.0804 3.84725 29.0537 3.99216C29.0285 4.12743 28.9055 4.2197 28.7713 4.20933C28.7621 4.20859 28.7524 4.20747 28.7428 4.20562L28.7432 4.20525Z" fill="#BDD0FB"/>
<path d="M21.6213 5.45348C21.6735 5.45755 21.7276 5.44644 21.7765 5.41753C21.8951 5.34786 22.0171 5.27967 22.139 5.21481C22.2687 5.14551 22.318 4.9843 22.2487 4.85422C22.1794 4.72414 22.0178 4.67486 21.8881 4.74453C21.7599 4.81309 21.6316 4.88461 21.5067 4.95762C21.3796 5.03211 21.3374 5.19554 21.4115 5.32229C21.4575 5.40048 21.5371 5.44681 21.6213 5.45311V5.45348Z" fill="#BDD0FB"/>
</g>
<g opacity="0.3">
<path d="M16.7747 11.9742C16.9029 11.9842 17.023 11.8997 17.0541 11.7708C17.0864 11.6373 17.1216 11.5021 17.1594 11.369C17.1998 11.2275 17.1175 11.08 16.9759 11.0396C16.8336 10.9992 16.6869 11.0815 16.6465 11.223C16.6068 11.3631 16.5694 11.5054 16.5353 11.6459C16.5008 11.7889 16.589 11.9327 16.7321 11.9672C16.7462 11.9705 16.7602 11.9727 16.7743 11.9738L16.7747 11.9742Z" fill="#BDD0FB"/>
<path d="M25.5318 24.7044C25.3858 24.6859 25.2824 24.5525 25.3009 24.4065C25.3194 24.2604 25.4529 24.1574 25.5989 24.1756C25.8768 24.2108 26.1607 24.2349 26.4457 24.2471C26.5921 24.253 26.7066 24.3779 26.7003 24.525C26.694 24.6722 26.5695 24.7859 26.4223 24.7796C26.2989 24.7741 26.1759 24.7667 26.0536 24.7574C25.879 24.7441 25.7034 24.7259 25.5314 24.704L25.5318 24.7044ZM27.5845 24.5035C27.5712 24.3572 27.6787 24.2271 27.8254 24.2137C28.1067 24.1878 28.3902 24.1496 28.6674 24.1003C28.8119 24.074 28.9505 24.1711 28.9765 24.316C29.0024 24.4609 28.9057 24.5992 28.7608 24.6251C28.4688 24.677 28.1704 24.7174 27.8743 24.7444C27.8591 24.7459 27.8439 24.7459 27.8291 24.7444C27.702 24.7344 27.5968 24.6344 27.5845 24.5032V24.5035ZM24.1069 24.4231C23.8208 24.346 23.5335 24.2556 23.2541 24.1541C23.1159 24.104 23.0444 23.951 23.0944 23.8128C23.1444 23.6745 23.2975 23.603 23.4357 23.653C23.7011 23.7494 23.9734 23.8354 24.2455 23.9084C24.3874 23.9465 24.4719 24.0929 24.4334 24.2352C24.3996 24.3609 24.281 24.4413 24.1558 24.4317C24.1395 24.4305 24.1232 24.4276 24.1069 24.4231ZM29.8344 24.1014C29.7888 23.9614 29.8655 23.8113 30.0056 23.7657C30.2739 23.6786 30.5419 23.5793 30.8017 23.47C30.9373 23.4129 31.0937 23.4766 31.1508 23.6123C31.2078 23.7479 31.1441 23.9043 31.0085 23.961C30.7346 24.0762 30.4526 24.1808 30.1702 24.2727C30.1361 24.2838 30.1012 24.2875 30.0675 24.2849C29.963 24.2767 29.8689 24.2071 29.8344 24.1014ZM21.927 23.5667C21.665 23.4284 21.4048 23.2772 21.1547 23.1168C21.0305 23.0375 20.9946 22.8726 21.0739 22.7488C21.1532 22.6246 21.3181 22.5887 21.4419 22.668C21.6798 22.8203 21.9266 22.9641 22.1757 23.0953C22.3058 23.1638 22.3558 23.325 22.2872 23.4555C22.2361 23.5526 22.1334 23.6049 22.0308 23.5971C21.9956 23.5945 21.9604 23.5845 21.927 23.567V23.5667ZM19.9877 22.2529C19.7616 22.0602 19.5407 21.856 19.3317 21.6455C19.228 21.541 19.2287 21.3724 19.3332 21.2686C19.4377 21.1648 19.6063 21.1652 19.7101 21.2701C19.9087 21.4702 20.1185 21.6644 20.3335 21.8475C20.4454 21.9431 20.4591 22.111 20.3635 22.2233C20.306 22.2907 20.2219 22.3226 20.14 22.3163C20.0859 22.3122 20.0325 22.2915 19.9881 22.2537L19.9877 22.2529ZM18.3808 20.5478C18.2018 20.3103 18.0309 20.0627 17.8727 19.8122C17.7941 19.6877 17.8316 19.5231 17.9561 19.4445C18.0806 19.366 18.2451 19.4034 18.3237 19.5279C18.4738 19.7662 18.6361 20.0015 18.8062 20.2272C18.8948 20.3447 18.8714 20.5119 18.754 20.6004C18.6999 20.6412 18.6358 20.6582 18.5731 20.6534C18.4994 20.6479 18.4286 20.6115 18.3808 20.5482V20.5478ZM17.1841 18.5329C17.0615 18.262 16.9488 17.9829 16.8498 17.7031C16.8006 17.5645 16.8732 17.4122 17.0118 17.3629C17.1504 17.3136 17.3027 17.3863 17.352 17.5252C17.4461 17.7909 17.5532 18.0559 17.6696 18.3131C17.7304 18.4473 17.6711 18.6051 17.5369 18.6659C17.4947 18.6852 17.4498 18.6922 17.4065 18.6889C17.3127 18.6815 17.2256 18.6248 17.1841 18.5332V18.5329ZM16.4592 16.303C16.3992 16.0124 16.351 15.7156 16.3158 15.4206C16.2984 15.2746 16.4025 15.1419 16.5489 15.1245C16.6946 15.1071 16.8276 15.2112 16.845 15.3576C16.8784 15.6378 16.9243 15.9198 16.981 16.1955C17.0107 16.3397 16.918 16.4805 16.7739 16.5102C16.7487 16.5153 16.7238 16.5168 16.6994 16.515C16.5841 16.5061 16.4837 16.422 16.4589 16.303H16.4592ZM16.2417 13.9708C16.2454 13.7522 16.2554 13.5313 16.2725 13.3138C16.2784 13.2348 16.2854 13.1566 16.2932 13.0784C16.3077 12.9321 16.4366 12.822 16.5849 12.8398C16.7313 12.8542 16.8384 12.9847 16.8239 13.1314C16.8165 13.2056 16.8098 13.2804 16.8043 13.3553C16.7883 13.5621 16.7783 13.7722 16.775 13.9797C16.7728 14.1269 16.6512 14.2443 16.5041 14.2417C16.4985 14.2417 16.493 14.2417 16.4878 14.241C16.3484 14.2303 16.2398 14.1128 16.2421 13.9708H16.2417Z" fill="#BDD0FB"/>
<path d="M32.1555 23.3394C32.2085 23.3434 32.2629 23.3319 32.3118 23.303C32.436 23.2293 32.5609 23.1518 32.6832 23.0722C32.8066 22.9917 32.8414 22.8268 32.7614 22.7034C32.681 22.58 32.516 22.5448 32.3926 22.6252C32.2766 22.7008 32.1581 22.7746 32.0402 22.8442C31.9138 22.9191 31.872 23.0829 31.9468 23.2093C31.9928 23.2867 32.0721 23.3327 32.1558 23.339L32.1555 23.3394Z" fill="#BDD0FB"/>
</g>
<path d="M33.2899 18.9154C33.3266 18.8769 33.3347 18.8195 33.3103 18.7724L32.6143 17.4256C32.973 16.8153 33.2373 16.1434 33.3866 15.4304L34.8067 14.9026C34.8564 14.8841 34.889 14.8359 34.8879 14.7829L34.8445 12.9651C34.8434 12.9122 34.8086 12.8655 34.7578 12.8495L33.3144 12.39C33.1313 11.6847 32.8355 11.0262 32.4483 10.4336L33.0798 9.05536C33.102 9.00718 33.0909 8.95011 33.0523 8.91342L31.7364 7.65858C31.6978 7.62189 31.6404 7.61374 31.5933 7.6382L30.2466 8.33418C29.6362 7.97544 28.9643 7.71121 28.2513 7.56186L27.7235 6.14174C27.705 6.09208 27.6568 6.05946 27.6038 6.06057L25.7861 6.10393C25.7331 6.10505 25.6864 6.13988 25.6704 6.19065L25.2109 7.63412C24.5057 7.8172 23.8471 8.11293 23.2545 8.50021L21.8763 7.86871C21.8281 7.84648 21.771 7.85759 21.7343 7.89613L20.4795 9.21212C20.4428 9.25066 20.4347 9.30811 20.4591 9.35517L21.1555 10.7019C20.7967 11.3123 20.5325 11.9842 20.3831 12.6972L18.963 13.2249C18.9134 13.2435 18.8808 13.2916 18.8819 13.3446L18.9252 15.1624C18.9263 15.2154 18.9612 15.2621 19.0119 15.278L20.4554 15.7379C20.6385 16.4432 20.9342 17.1017 21.3215 17.6943L20.69 19.0726C20.6678 19.1207 20.6789 19.1778 20.7174 19.2145L22.0334 20.4693C22.072 20.506 22.1294 20.5142 22.1765 20.4897L23.5232 19.7934C24.1336 20.1521 24.8055 20.4163 25.5185 20.5657L26.0462 21.9858C26.0648 22.0355 26.1129 22.0681 26.1659 22.067L27.9837 22.0236C28.0367 22.0225 28.0834 21.9877 28.0993 21.9369L28.5589 20.4934C29.2641 20.3104 29.9227 20.0146 30.5152 19.6273L31.8935 20.2588C31.9417 20.2811 31.9987 20.27 32.0354 20.2314L33.2903 18.9154H33.2899Z" fill="#BDD0FB"/>
<path d="M26.479 15.8474C25.4962 15.624 24.8784 14.6426 25.1019 13.6598C25.2101 13.1836 25.4973 12.7782 25.9105 12.518C26.3237 12.2578 26.8133 12.1741 27.2895 12.2827C28.2723 12.5061 28.8901 13.4875 28.6666 14.4703C28.4632 15.3645 27.633 15.9564 26.7443 15.8878C26.6561 15.8812 26.5676 15.8678 26.479 15.8474ZM26.1373 12.879C25.8204 13.0783 25.6003 13.3893 25.5173 13.7543C25.3461 14.5077 25.8197 15.2604 26.5731 15.4316C27.3269 15.6032 28.0792 15.1292 28.2504 14.3758C28.4217 13.6224 27.948 12.8697 27.1946 12.6985C27.1264 12.6829 27.0579 12.6725 26.9889 12.6673C26.691 12.6444 26.3945 12.717 26.1373 12.879Z" fill="url(#paint0_linear_1055_192217)"/>
<path d="M26.5034 18.5167C26.6561 18.5285 26.8099 18.5326 26.9652 18.5289C27.0141 18.5278 27.0626 18.5259 27.1115 18.523C27.3521 18.5096 27.5911 18.477 27.8246 18.4259C27.8279 18.4251 27.8309 18.4244 27.8342 18.4236C27.8431 18.4218 27.8524 18.4196 27.8613 18.4173C27.8787 18.4133 27.8965 18.4092 27.9139 18.4051C27.9598 18.394 27.9917 18.3547 27.9954 18.3099C27.9962 18.2991 27.9954 18.2876 27.9928 18.2765C27.9791 18.2194 27.9213 18.1842 27.8642 18.1979C27.5696 18.2687 27.2657 18.3084 26.9603 18.3154C25.4439 18.3517 24.0901 17.5905 23.3015 16.4157C22.8627 15.7624 22.5988 14.9808 22.5788 14.1373C22.5751 13.9895 22.5792 13.8423 22.5906 13.6967C22.6666 12.7172 23.0735 11.8015 23.7606 11.081C24.5496 10.2535 25.614 9.78245 26.7573 9.7554C29.1183 9.69944 31.0829 11.5739 31.1392 13.9335C31.1425 14.0791 31.1388 14.224 31.1277 14.3682C31.0792 14.993 30.8946 15.6001 30.5851 16.1456C30.577 16.1597 30.5725 16.1749 30.5714 16.1901C30.5685 16.2301 30.5881 16.2701 30.6252 16.2909C30.6763 16.3198 30.7415 16.302 30.7704 16.2508C31.0955 15.6783 31.2893 15.0408 31.3401 14.3849C31.3519 14.2337 31.356 14.0814 31.3523 13.9287C31.2934 11.4509 29.2291 9.48338 26.7524 9.54231C25.5521 9.57084 24.4351 10.0652 23.6065 10.9339C22.8853 11.6903 22.458 12.6516 22.3783 13.68C22.3664 13.8327 22.3624 13.9872 22.3661 14.1425C22.3946 15.3429 22.889 16.4598 23.7577 17.2885C24.514 18.0101 25.4761 18.437 26.5045 18.5167H26.5034Z" fill="url(#paint1_linear_1055_192217)"/>
<g opacity="0.3">
<path d="M45.5972 24.0006C45.6683 24.0061 45.7372 23.9646 45.7635 23.8949C45.8132 23.7641 45.8595 23.6303 45.901 23.4969C45.9281 23.4102 45.8799 23.3179 45.7928 23.2909C45.7061 23.2634 45.6138 23.312 45.5868 23.3991C45.5471 23.5262 45.503 23.654 45.4556 23.7786C45.4233 23.8634 45.466 23.9587 45.5512 23.9909C45.5664 23.9965 45.5816 23.9998 45.5972 24.0009V24.0006Z" fill="#BDD0FB"/>
<path d="M45.9186 22.7803C45.8293 22.764 45.7697 22.6784 45.786 22.5891C45.8267 22.3634 45.8564 22.1329 45.8742 21.9042C45.8779 21.8561 45.8812 21.8075 45.8838 21.759C45.889 21.6682 45.9668 21.5989 46.0573 21.6041C46.1429 21.6122 46.2173 21.6871 46.2125 21.7779C46.2096 21.8286 46.2062 21.8794 46.2025 21.9298C46.184 22.1696 46.1529 22.4112 46.1099 22.648C46.0947 22.7318 46.0187 22.7892 45.9353 22.7829C45.9298 22.7826 45.9242 22.7818 45.9186 22.7807V22.7803ZM45.8797 20.9229C45.8616 20.6453 45.826 20.3663 45.7737 20.0939C45.7567 20.0046 45.8153 19.9186 45.9046 19.9012C45.9935 19.8845 46.0802 19.9427 46.0973 20.032C46.1518 20.3177 46.1892 20.6101 46.2085 20.901C46.2144 20.9918 46.1458 21.07 46.055 21.0763C46.0472 21.0767 46.0391 21.0767 46.0313 21.0763C45.9509 21.07 45.8853 21.0056 45.8801 20.9229H45.8797ZM45.5662 19.2841C45.4806 19.0199 45.3776 18.7583 45.2597 18.5063C45.2212 18.424 45.2568 18.3258 45.339 18.2876C45.4217 18.2491 45.5195 18.2846 45.5581 18.3669C45.6815 18.6311 45.7897 18.9054 45.8794 19.1826C45.9075 19.2689 45.8601 19.362 45.7734 19.3901C45.7522 19.3968 45.7308 19.3994 45.71 19.3975C45.6455 19.3927 45.5873 19.3494 45.5658 19.2841H45.5662ZM44.8595 17.7725C44.7116 17.5368 44.5474 17.3085 44.3721 17.0935C44.3147 17.0231 44.3251 16.9194 44.3955 16.8619C44.4659 16.8045 44.5697 16.8149 44.6271 16.8853C44.8109 17.1106 44.9829 17.3504 45.1382 17.5972C45.1867 17.6743 45.1634 17.7758 45.0863 17.8244C45.0552 17.8436 45.0203 17.8518 44.9862 17.8492C44.9358 17.8455 44.8884 17.8184 44.8595 17.7725ZM43.8051 16.4791C43.6043 16.2868 43.3901 16.1052 43.1677 15.9388C43.0951 15.8843 43.0799 15.7813 43.1344 15.7083C43.1888 15.6352 43.2919 15.6204 43.3649 15.6749C43.598 15.8491 43.8229 16.0396 44.0331 16.2412C44.0987 16.3042 44.1009 16.4083 44.0379 16.4739C44.0023 16.511 43.9537 16.528 43.9063 16.5243C43.8696 16.5213 43.8337 16.5065 43.8051 16.4791ZM42.4688 15.4811C42.2275 15.3436 41.9755 15.2198 41.7194 15.1131C41.6357 15.0782 41.5956 14.9819 41.6309 14.8978C41.6657 14.814 41.7617 14.7744 41.8462 14.8088C42.1149 14.9204 42.3791 15.0504 42.6322 15.195C42.7111 15.2402 42.7386 15.3406 42.6937 15.4196C42.6611 15.4766 42.5996 15.507 42.5381 15.5022C42.5147 15.5004 42.491 15.4937 42.4691 15.4811H42.4688ZM40.9297 14.8403C40.6629 14.7662 40.3879 14.708 40.1121 14.6676C40.0221 14.6543 39.9602 14.5705 39.9735 14.4808C39.9869 14.3908 40.0703 14.33 40.1603 14.3419C40.4494 14.3849 40.7377 14.4456 41.0175 14.5235C41.105 14.5479 41.1565 14.6383 41.132 14.7262C41.1105 14.8033 41.0379 14.8522 40.9608 14.8463C40.9504 14.8455 40.9401 14.8437 40.9293 14.8407L40.9297 14.8403ZM38.264 14.4801C38.2551 14.3897 38.3211 14.3093 38.4115 14.3C38.662 14.2752 38.9181 14.2637 39.1719 14.2659C39.2105 14.2659 39.249 14.2666 39.2876 14.2678C39.378 14.2674 39.4503 14.3456 39.448 14.4364C39.4458 14.5272 39.3702 14.5991 39.2794 14.5968C39.2435 14.5957 39.2072 14.5954 39.1705 14.5954C38.9274 14.5931 38.6831 14.6043 38.4445 14.628C38.4345 14.6291 38.4248 14.6291 38.4156 14.628C38.3374 14.622 38.2725 14.5605 38.2647 14.4801H38.264Z" fill="#BDD0FB"/>
</g>
<g opacity="0.3">
<path d="M38.4682 28.4545C38.1824 28.4285 37.896 28.3852 37.6162 28.3251C37.5272 28.3059 37.4705 28.2188 37.4898 28.1295C37.5087 28.0405 37.5969 27.9849 37.6855 28.0031C37.9519 28.0602 38.2254 28.1017 38.4982 28.1265C38.5886 28.1347 38.6553 28.2147 38.6472 28.3051C38.639 28.3948 38.5601 28.4615 38.4708 28.4545C38.47 28.4545 38.4693 28.4545 38.4685 28.4545H38.4682ZM39.1604 28.3207C39.1578 28.2299 39.2294 28.1539 39.3202 28.1513C39.5937 28.1432 39.869 28.1184 40.1392 28.0776C40.2285 28.0642 40.313 28.1258 40.3263 28.2158C40.34 28.3059 40.2782 28.3893 40.1881 28.403C39.905 28.4456 39.6159 28.4719 39.3298 28.4801C39.3239 28.4801 39.3179 28.4801 39.312 28.4797C39.2294 28.4734 39.163 28.4056 39.1604 28.3203V28.3207ZM36.7857 28.0932C36.5144 27.999 36.2468 27.8875 35.99 27.7618C35.9085 27.7218 35.8747 27.6232 35.9144 27.5417C35.9544 27.4602 36.0526 27.4265 36.1345 27.4661C36.3795 27.5862 36.6348 27.6925 36.8935 27.7826C36.9795 27.8126 37.0247 27.9064 36.995 27.992C36.9698 28.0642 36.8998 28.1076 36.8268 28.1021C36.8131 28.1009 36.799 28.098 36.7853 28.0935L36.7857 28.0932ZM40.8289 28.108C40.8044 28.0205 40.8555 27.9297 40.943 27.9053C41.2065 27.8315 41.4678 27.7411 41.7198 27.6358C41.8035 27.601 41.8999 27.6407 41.9351 27.7244C41.9699 27.8085 41.9303 27.9049 41.8465 27.9397C41.5819 28.0502 41.3077 28.145 41.0316 28.2221C41.0123 28.2273 40.9934 28.2292 40.9745 28.2277C40.9074 28.2225 40.8478 28.1762 40.8285 28.108H40.8289ZM35.241 27.3364C35.0009 27.18 34.7681 27.0077 34.5487 26.8235C34.4791 26.7649 34.4702 26.6612 34.5284 26.5915C34.5869 26.5218 34.6907 26.5126 34.7604 26.5711C34.9697 26.7468 35.1917 26.9113 35.4208 27.0603C35.4967 27.11 35.5186 27.2119 35.4689 27.2882C35.4348 27.3405 35.3763 27.3672 35.3181 27.3623C35.2914 27.3601 35.2651 27.352 35.241 27.3364ZM33.9228 26.2309C33.7268 26.0212 33.5418 25.7981 33.3728 25.5672C33.3191 25.4938 33.335 25.3908 33.4084 25.3374C33.4818 25.2837 33.5848 25.2996 33.6386 25.373C33.7998 25.5931 33.9762 25.8062 34.163 26.0063C34.2252 26.0727 34.2215 26.1768 34.1552 26.2391C34.12 26.2717 34.0744 26.2865 34.0299 26.2828C33.9903 26.2798 33.9517 26.2624 33.9224 26.2313L33.9228 26.2309ZM32.907 24.8415C32.7669 24.591 32.6409 24.3294 32.5323 24.0648C32.4979 23.9807 32.5383 23.8847 32.6224 23.8502C32.7065 23.8157 32.8025 23.8561 32.837 23.9403C32.9404 24.1926 33.0604 24.442 33.1942 24.6807C33.2387 24.76 33.2102 24.8604 33.1308 24.9049C33.1016 24.9216 33.0693 24.9279 33.0378 24.9253C32.9848 24.9212 32.9348 24.8916 32.9066 24.8415H32.907Z" fill="#BDD0FB"/>
<path d="M42.5338 27.5779C42.5653 27.5805 42.5983 27.5738 42.628 27.5567C42.7502 27.4871 42.8714 27.4133 42.9874 27.3377C43.0634 27.2881 43.0853 27.1862 43.0356 27.1098C42.9859 27.0338 42.884 27.0123 42.8077 27.0616C42.6969 27.1335 42.5816 27.2039 42.4649 27.2706C42.386 27.3155 42.3585 27.4163 42.4034 27.4952C42.4315 27.5445 42.4812 27.5738 42.5338 27.5779Z" fill="#BDD0FB"/>
</g>
<path d="M43.401 24.5664C43.4255 24.5408 43.431 24.5023 43.4147 24.4708L42.9489 23.5695C43.189 23.1611 43.3658 22.7116 43.4655 22.2343L44.4157 21.8811C44.449 21.8688 44.4709 21.8366 44.4698 21.801L44.4409 20.5847C44.4401 20.5492 44.4168 20.518 44.3827 20.5073L43.4166 20.1997C43.2943 19.7279 43.0964 19.2869 42.8369 18.8907L43.2594 17.9683C43.2743 17.9361 43.2668 17.8979 43.2413 17.8735L42.3607 17.0337C42.3352 17.0092 42.2966 17.0037 42.2647 17.02L41.3635 17.4858C40.9551 17.2457 40.5055 17.0689 40.0282 16.9692L39.675 16.019C39.6628 15.9856 39.6306 15.9638 39.595 15.9649L38.3787 15.9938C38.3431 15.9945 38.312 16.0179 38.3012 16.052L37.9936 17.0181C37.5219 17.1404 37.0808 17.3383 36.6847 17.5977L35.7623 17.1753C35.73 17.1604 35.6919 17.1678 35.6674 17.1934L34.8276 18.0739C34.8032 18.0995 34.7976 18.1381 34.8139 18.1696L35.2798 19.0708C35.0396 19.4792 34.8628 19.9288 34.7631 20.4061L33.8129 20.7593C33.7796 20.7715 33.7577 20.8038 33.7588 20.8393L33.7877 22.0556C33.7885 22.0912 33.8118 22.1223 33.8459 22.1331L34.8121 22.4407C34.9344 22.9124 35.1323 23.3535 35.3917 23.75L34.9692 24.6724C34.9544 24.7046 34.9618 24.7428 34.9874 24.7673L35.8679 25.607C35.8935 25.6315 35.932 25.6371 35.9639 25.6208L36.8652 25.1549C37.2736 25.3951 37.7231 25.5718 38.2004 25.6715L38.5536 26.6217C38.5658 26.6551 38.5981 26.677 38.6336 26.6758L39.8499 26.6469C39.8855 26.6462 39.9167 26.6229 39.9274 26.5888L40.235 25.6226C40.7068 25.5003 41.1478 25.3024 41.5439 25.043L42.4664 25.4655C42.4986 25.4803 42.5368 25.4729 42.5612 25.4473L43.401 24.5668V24.5664Z" fill="#BDD0FB"/>
<path d="M38.8389 22.5354C38.5146 22.4616 38.2382 22.2659 38.061 21.9847C37.8839 21.7034 37.8268 21.3698 37.9006 21.0452C38.0529 20.3759 38.72 19.956 39.3907 20.1069C40.06 20.2592 40.481 20.9277 40.3287 21.597C40.255 21.9213 40.0593 22.1974 39.778 22.3749C39.5493 22.5191 39.2859 22.5835 39.0212 22.5632C38.9605 22.5583 38.8993 22.5491 38.8389 22.5354ZM38.2219 21.1182C38.1678 21.3569 38.2096 21.6022 38.3397 21.8094C38.4702 22.0162 38.6733 22.1603 38.9119 22.2144C39.1506 22.2682 39.3959 22.2267 39.6031 22.0962C39.8102 21.9661 39.954 21.7627 40.0081 21.5244C40.1201 21.0319 39.8106 20.5404 39.3181 20.4282C39.2736 20.4182 39.2292 20.4115 39.185 20.4081C38.74 20.3737 38.3238 20.6705 38.2219 21.1182Z" fill="url(#paint2_linear_1055_192217)"/>
<path d="M38.8563 24.3937C38.96 24.4018 39.0653 24.4044 39.1713 24.4022C39.3821 24.3974 39.593 24.3707 39.7983 24.3236C39.8076 24.3214 39.8169 24.3192 39.8258 24.317C39.8969 24.2999 39.9458 24.2391 39.9514 24.1698C39.9529 24.1532 39.9514 24.1357 39.9473 24.1183C39.9262 24.0301 39.8372 23.976 39.7487 23.9968C39.5574 24.0427 39.3607 24.0683 39.1635 24.0727C39.1528 24.0727 39.1416 24.0731 39.1309 24.0731C38.6639 24.0798 38.2133 23.9697 37.8108 23.7581C37.5922 23.6432 37.388 23.4979 37.203 23.3249C37.2016 23.3234 37.2001 23.3219 37.1986 23.3208C37.1942 23.3164 37.1893 23.3123 37.1849 23.3078C36.649 22.7968 36.3444 22.1078 36.327 21.3678C36.3247 21.2722 36.327 21.1769 36.3344 21.0828C36.3837 20.4487 36.6472 19.8557 37.0919 19.3892C37.6029 18.8533 38.2919 18.5486 39.0316 18.5312C39.7713 18.5138 40.4743 18.7855 41.0102 19.2961C41.5461 19.8072 41.8507 20.4961 41.8681 21.2362C41.8703 21.3303 41.8681 21.4245 41.8607 21.5175C41.8292 21.9222 41.7099 22.315 41.5094 22.6682C41.4971 22.6901 41.4901 22.7134 41.4882 22.7367C41.4834 22.7983 41.5138 22.8602 41.5709 22.8928C41.6502 22.9376 41.7503 22.9102 41.7955 22.8309C42.0197 22.4358 42.1535 21.9959 42.1887 21.5434C42.1968 21.4389 42.1998 21.334 42.1972 21.2284C42.1776 20.4001 41.8366 19.6297 41.237 19.0578C40.6377 18.4864 39.8521 18.1817 39.0234 18.2021C38.1955 18.2218 37.4247 18.5627 36.8532 19.1623C36.3555 19.6841 36.0609 20.3475 36.006 21.0568C35.9979 21.1621 35.9949 21.2688 35.9975 21.3755C36.0357 22.9787 37.2901 24.2721 38.8559 24.3933L38.8563 24.3937Z" fill="url(#paint3_linear_1055_192217)"/>
<path d="M95.9988 35.9119L94.9215 81.5012L94.7543 88.5518C94.7543 89.4731 93.9987 90.2191 93.0774 90.2191H2.43111C1.50944 90.2191 0.754162 89.4731 0.754162 88.5518L0.651879 81.4971L0 36.4667C0 35.5454 1.08585 33.748 3.07447 33.8837L91.6643 31.5912C92.821 31.5623 93.9398 32.0066 94.7588 32.8245C95.5778 33.6406 96.0262 34.7572 95.9988 35.9123V35.9119Z" fill="url(#paint4_linear_1055_192217)"/>
<path opacity="0.2" d="M92.5376 87.1351C92.5376 87.9945 91.819 88.6979 90.9407 88.6979H4.59039C3.71207 88.6979 2.99349 87.9945 2.99349 87.1351L2.2749 38.5226C2.2749 37.6631 3.30849 35.9851 5.20298 36.1111L89.5944 33.972C90.6961 33.9442 91.7616 34.3597 92.5421 35.1216C93.3225 35.8835 93.7495 36.9253 93.7235 38.0037L92.5376 87.1351Z" fill="#91B3FA"/>
<path d="M75.7379 41.5605C75.716 42.3613 75.2906 43.0202 74.7866 43.0232L44.835 43.2015C44.268 43.2048 43.8103 42.5033 43.814 41.6513C43.8177 40.7982 44.2824 40.0918 44.8509 40.0918H74.864C75.3688 40.0918 75.7594 40.7589 75.7375 41.5605H75.7379Z" fill="#F5F5F5"/>
<path d="M75.4143 76.1541C75.3929 76.9549 74.9733 77.5864 74.4764 77.5894L44.9436 77.7539C44.3843 77.7573 43.9333 77.1035 43.937 76.2519C43.9407 75.3988 44.3992 74.7402 44.9595 74.7402H74.5531C75.0508 74.7402 75.4358 75.3525 75.4143 76.1541Z" fill="#F5F5F5"/>
<path d="M75.4173 70.6121C75.3954 71.4129 74.9744 72.0389 74.4756 72.0418L44.8246 72.2038C44.2632 72.2071 43.8103 71.563 43.814 70.711C43.8177 69.8579 44.278 69.209 44.8405 69.209H74.5527C75.0523 69.209 75.4392 69.8101 75.4173 70.6121Z" fill="#F5F5F5"/>
<path d="M75.7347 47.7032C75.7128 48.3725 74.9731 48.9202 74.0811 48.9276L45.5111 49.1659C44.5683 49.1737 43.8082 48.6219 43.8145 47.9326L43.8152 47.8551C43.8219 47.1651 44.5939 46.6006 45.5385 46.5947L74.1596 46.4239C75.0535 46.4187 75.7591 46.9579 75.7373 47.6276L75.7347 47.7028V47.7032Z" fill="#F5F5F5"/>
<path d="M75.6269 53.717C75.601 54.3803 74.8598 54.9229 73.97 54.9295L45.4771 55.1445C44.5369 55.1515 43.7823 54.6042 43.7931 53.9208L43.7942 53.8437C43.8049 53.1596 44.5787 52.6007 45.5204 52.5959L74.0634 52.4473C74.9546 52.4425 75.6554 52.9776 75.6295 53.6417L75.6265 53.7166L75.6269 53.717Z" fill="#F5F5F5"/>
<path d="M90.8892 88.9916H81.1763C81.1084 88.9916 81.0532 88.9367 81.0532 88.8685C81.0532 88.8003 81.1081 88.7455 81.1763 88.7455H90.8892C92.0844 88.7455 93.0935 87.6348 93.0935 86.3203V56.4336C93.0935 56.3658 93.1484 56.3105 93.2166 56.3105C93.2847 56.3105 93.3396 56.3654 93.3396 56.4336V86.3203C93.3396 87.7678 92.2174 88.9912 90.8892 88.9912V88.9916Z" fill="#BDD0FB"/>
<path d="M2.42382 56.4337C2.356 56.4337 2.30078 56.3788 2.30078 56.3107V39.0327C2.30078 37.2561 3.62751 35.916 5.38673 35.916H13.1125C13.1804 35.916 13.2356 35.9709 13.2356 36.0391C13.2356 36.1072 13.1807 36.1621 13.1125 36.1621H5.38673C3.74129 36.1621 2.54649 37.3695 2.54649 39.0331V56.311C2.54649 56.3788 2.49164 56.4341 2.42345 56.4341L2.42382 56.4337Z" fill="#BDD0FB"/>
<path d="M39.8171 41.3477H6.7577C6.51209 41.3477 6.31299 41.5468 6.31299 41.7924V77.5438C6.31299 77.7894 6.51209 77.9885 6.7577 77.9885H39.8171C40.0627 77.9885 40.2618 77.7894 40.2618 77.5438V41.7924C40.2618 41.5468 40.0627 41.3477 39.8171 41.3477Z" fill="white"/>
<mask id="mask0_1055_192217" style="mask-type:luminance" maskUnits="userSpaceOnUse" x="6" y="41" width="35" height="37">
<path d="M39.8044 41.3477H6.74501C6.4994 41.3477 6.30029 41.5468 6.30029 41.7924V77.5438C6.30029 77.7894 6.4994 77.9885 6.74501 77.9885H39.8044C40.05 77.9885 40.2491 77.7894 40.2491 77.5438V41.7924C40.2491 41.5468 40.05 41.3477 39.8044 41.3477Z" fill="white"/>
</mask>
<g mask="url(#mask0_1055_192217)">
<path d="M43.2402 76.5551C42.2244 70.6389 39.5127 65.2363 39.5127 65.2363L35.9624 77.5468C35.9624 77.5468 36.0236 77.6854 36.1255 77.9941L42.0372 77.9815C42.7929 77.98 43.3684 77.2996 43.2405 76.5547L43.2402 76.5551Z" fill="url(#paint5_linear_1055_192217)"/>
<path d="M12.5088 77.9945C12.8979 76.6047 13.197 75.7097 13.197 75.7097L7.39417 65.2363C7.39417 65.2363 6.07596 66.8065 4.66399 75.8413C4.48796 76.9679 5.32773 77.9945 6.46768 77.9945H12.5084H12.5088Z" fill="url(#paint6_linear_1055_192217)"/>
<path d="M32.4937 77.9934L30.9202 61.4993C23.8918 58.9018 15.0301 61.8087 15.0301 61.8087L14.3008 77.9934H32.4937Z" fill="url(#paint7_linear_1055_192217)"/>
<path d="M19.6348 56.2969L19.5029 60.6495C19.4899 61.0802 19.7568 61.4678 20.1629 61.6112C21.2758 62.0037 23.5798 62.6007 25.7634 61.8188C26.2036 61.6609 26.469 61.2102 26.4008 60.7474L25.7463 56.2969H19.6348Z" fill="url(#paint8_linear_1055_192217)"/>
<path d="M17.4096 48.3503C17.4096 48.3503 18.1733 56.1425 19.8544 58.1289C19.8544 58.1289 24.8963 58.5873 26.7297 57.5178C26.7297 57.5178 28.0282 53.6217 27.8756 48.4267C27.8756 48.4267 28.1261 43.6994 22.9099 43.3084C16.7984 42.85 17.4096 48.3503 17.4096 48.3503Z" fill="url(#paint9_linear_1055_192217)"/>
<path d="M27.3408 50.7972C27.3408 50.7972 27.7992 49.4219 28.563 49.4219C29.3268 49.4219 28.4104 53.0889 27.3408 53.0889V50.7972Z" fill="url(#paint10_linear_1055_192217)"/>
<path d="M18.1046 51.1587C18.1046 51.1587 17.4649 49.8579 16.7078 49.9609C15.9507 50.0639 17.3537 53.5738 18.4133 53.4297L18.1042 51.1587H18.1046Z" fill="url(#paint11_linear_1055_192217)"/>
<path d="M17.5081 49.325C17.5081 49.325 18.1081 56.8203 20.1552 59.4345C20.3431 59.6742 20.6148 59.814 20.9012 59.8291C21.9463 59.8847 24.6176 59.9844 26.1237 59.652C26.4987 59.5694 26.8071 59.2766 26.9305 58.876C27.1499 58.1637 27.3459 57.5967 27.3567 57.3458C27.4078 56.1836 27.6731 52.9616 28.0148 48.5693C27.9107 48.4044 27.8066 48.2391 27.702 48.0742C27.6075 49.09 26.9853 55.5577 25.9999 55.7074C25.7879 55.7396 25.5574 55.6933 25.5574 55.6933C24.9596 55.5729 24.7766 55.1015 24.3608 54.7953C23.6351 54.2609 22.3881 54.3677 21.6921 54.9265C21.403 55.1585 21.2203 55.4598 20.7148 55.6748C20.392 55.8123 20.0889 55.8501 19.9918 55.846C19.2717 55.8156 18.5554 52.982 18.1533 49.1245L17.5073 49.3242L17.5081 49.325Z" fill="url(#paint12_linear_1055_192217)"/>
<path d="M25.8127 46.406C25.8127 46.406 21.92 49.7837 17.6785 49.7707C17.6785 49.7707 15.2704 44.3437 20.007 43.4413C24.7436 42.5389 24.8963 43.6992 24.8963 43.6992C24.8963 43.6992 30.4348 42.5515 27.9711 49.1837L25.8131 46.406H25.8127Z" fill="url(#paint13_linear_1055_192217)"/>
<path d="M12.4936 77.9932H16.6639L18.6655 60.9395C13.1847 61.4379 7.39453 65.235 7.39453 65.235L11.706 75.6959C12.0148 76.4448 12.2775 77.2209 12.4939 77.9932H12.4936Z" fill="url(#paint14_linear_1055_192217)"/>
<path d="M36.2617 77.9943C36.497 77.0163 36.7772 76.1143 37.1022 75.1967L39.5129 65.2362C34.7103 61.4846 27.1987 60.6074 27.1987 60.6074L30.006 77.9943H36.2617Z" fill="url(#paint15_linear_1055_192217)"/>
</g>
<path d="M69.5124 44.3345C69.5124 44.3345 63.5146 52.0133 70.3577 59.8232L72.9304 59.5834C72.9304 59.5834 68.2208 52.0218 70.0327 45.768C70.1127 45.4922 70.3718 45.307 70.6582 45.3277L73.2847 45.5193C73.6341 45.5449 73.9799 45.437 74.253 45.2176L75.8432 43.9395L69.5127 44.3338L69.5124 44.3345Z" fill="url(#paint16_linear_1055_192217)"/>
<path d="M88.0241 12.2749C87.9296 10.8136 87.0469 9.51875 85.7242 8.89059L68.5852 0.750446C67.4875 0.229018 66.2138 0.229018 65.1161 0.750446L47.9768 8.89059C46.6538 9.51875 45.7714 10.8136 45.6769 12.2749C44.0692 37.1252 60.003 46.1796 65.2262 48.4669C66.262 48.9205 67.439 48.9205 68.4748 48.4669C73.698 46.1796 89.6318 37.1252 88.0241 12.2749Z" fill="url(#paint17_linear_1055_192217)"/>
<path opacity="0.77" d="M61.6657 4.1202C61.5968 4.1202 61.5305 4.08129 61.4993 4.01495C61.4556 3.92304 61.4949 3.81298 61.5868 3.76962L65.6363 1.84623C65.7286 1.80212 65.8383 1.84141 65.8816 1.93369C65.9254 2.02559 65.8861 2.13566 65.7942 2.17902L61.7447 4.10241C61.7191 4.11464 61.6924 4.1202 61.6657 4.1202Z" fill="white"/>
<path opacity="0.77" d="M46.9877 17.5348C46.8888 17.5348 46.8069 17.4563 46.8035 17.3569C46.7494 15.743 46.7776 14.0601 46.888 12.3543C46.954 11.3348 47.5707 10.4283 48.4975 9.98801L60.0272 4.51208C60.1191 4.46835 60.2291 4.50726 60.2725 4.59954C60.3162 4.69145 60.2769 4.80152 60.185 4.84488L48.6554 10.3208C47.849 10.7036 47.3127 11.4919 47.2557 12.378C47.146 14.0716 47.1178 15.7426 47.1715 17.3443C47.1749 17.4462 47.0952 17.5315 46.9937 17.5348C46.9914 17.5348 46.9892 17.5348 46.9874 17.5348H46.9877Z" fill="white"/>
<path d="M83.8796 13.2453C83.8607 12.8747 83.6402 12.5441 83.3051 12.3847L67.2828 4.77529C67.0093 4.64521 66.6917 4.64521 66.4182 4.77529L50.3962 12.3847C50.0612 12.5437 49.8407 12.8747 49.8218 13.2453C49.3478 22.5154 51.4891 30.2497 56.1905 36.2444C59.7745 40.815 63.9674 43.2643 66.4245 44.4068C66.695 44.5328 67.0067 44.5328 67.2772 44.4068C69.7343 43.2643 73.9272 40.815 77.5112 36.2444C82.2126 30.2497 84.3536 22.515 83.8799 13.2453H83.8796Z" fill="url(#paint18_linear_1055_192217)"/>
<path d="M62.113 23.2037H60.5161V16.8402C60.5161 14.3409 62.3873 12.2285 64.8684 11.9272L68.1333 11.5303C69.5386 11.3594 70.9525 11.8 72.0124 12.7388C73.0719 13.6775 73.6797 15.0279 73.6797 16.4436V21.9992H72.0828V16.4436C72.0828 15.4845 71.671 14.5699 70.9532 13.9343C70.2354 13.2984 69.2777 13 68.3257 13.1157L65.0607 13.5126C63.3801 13.7168 62.1126 15.1476 62.1126 16.8405V23.204L62.113 23.2037Z" fill="url(#paint19_linear_1055_192217)"/>
<path d="M60.0444 21.7753L74.0422 20.9996C74.6107 20.9681 75.0892 21.4206 75.0892 21.9898V33.0792C75.0892 33.6269 74.6452 34.0713 74.0971 34.0713H60.4354C59.9003 34.0713 59.4615 33.6466 59.4441 33.1118L59.1079 22.7981C59.0905 22.2592 59.5063 21.8053 60.0444 21.7753Z" fill="url(#paint20_linear_1055_192217)"/>
<path d="M69.3802 30.8962L68.533 28.4602C68.4311 28.1675 68.5004 27.8398 68.7183 27.6193C69.1527 27.1794 69.4114 26.5661 69.3806 25.8924C69.3265 24.7042 68.3559 23.7407 67.1674 23.6951C65.8522 23.6447 64.77 24.6957 64.77 25.9998C64.77 26.7232 65.1032 27.3688 65.6246 27.7913C65.8948 28.0107 66.006 28.3709 65.8918 28.6996L65.128 30.8958C64.9423 31.4298 65.3389 31.9876 65.9044 31.9876H68.6046C69.1701 31.9876 69.5666 31.4298 69.381 30.8958L69.3802 30.8962Z" fill="url(#paint21_linear_1055_192217)"/>
<path d="M72.7969 81.9307C72.7969 81.9307 77.6561 92.5216 80.2058 96.9083C80.2058 96.9083 80.7121 99.6685 80.2058 100.536L79.7745 100.728L81.7883 100.668C81.7883 100.668 81.9673 96.9558 81.8276 96.7483C81.6878 96.5407 81.4084 96.5544 81.4084 96.5544C81.4084 96.5544 80.5449 89.7125 78.0438 88.2523L75.6201 79.9043L72.7972 81.9307H72.7969Z" fill="url(#paint22_linear_1055_192217)"/>
<path d="M78.9141 101.249C78.9111 101.297 80.4869 101.275 81.3426 101.26C81.6587 101.254 81.9281 101.032 81.9956 100.723L82.6419 97.3271C82.7034 97.0043 82.4985 96.6908 82.1783 96.6178L81.8177 96.5352C81.8177 96.5352 81.3029 97.2411 81.4649 97.906C81.6268 98.5708 81.771 100.293 81.3619 100.493C80.9523 100.694 79.7746 100.729 79.7746 100.729C79.7746 100.729 78.9415 100.811 78.9144 101.249H78.9141Z" fill="url(#paint23_linear_1055_192217)"/>
<path d="M68.1912 101.309C68.0319 101.4 68.0975 101.643 68.2809 101.641C69.7133 101.627 72.923 101.582 73.208 101.463C73.5764 101.31 73.0738 99.9867 72.545 99.5391L69.6254 100.492L68.1909 101.309H68.1912Z" fill="url(#paint24_linear_1055_192217)"/>
<path d="M67.2852 81.2539C67.2852 81.2539 70.4252 96.445 71.3135 99.4083L69.2123 100.727C69.2123 100.727 70.2655 100.548 71.0463 100.491C71.8272 100.434 72.5454 99.5384 72.5454 99.5384L72.2938 99.137C72.2938 99.137 71.5062 84.0286 71.6978 82.3131L67.2852 81.2539Z" fill="url(#paint25_linear_1055_192217)"/>
<path d="M59.49 45.8205C59.49 45.8205 59.0568 53.7227 66.2516 57.7607L64.5194 61.7113C64.5194 61.7113 58.0058 57.7715 58.2467 47.026C58.2537 46.7177 58.1422 46.4183 57.9409 46.1844L56.5564 44.5783C56.029 43.9664 55.8319 43.1363 56.0279 42.3525L56.2103 41.6242C56.2714 41.3804 56.549 41.2629 56.7665 41.3893L56.9114 41.4734C57.3725 41.741 57.7375 42.1468 57.955 42.6334L58.6503 43.7303C58.9041 44.2981 58.9634 44.536 59.5831 44.4826L60.7349 44.4956L59.4904 45.8205H59.49Z" fill="url(#paint26_linear_1055_192217)"/>
<path d="M66.0009 57.1702C67.2046 57.5041 71.2823 58.5766 73.8279 58.5328L72.2651 67.353L72.3896 68.7917L67.2936 68.7687C67.2936 68.7687 65.859 65.437 64.7272 63.776C64.4003 63.2965 64.6434 62.7243 64.8287 62.174L64.5741 62.0046C64.3151 61.8323 64.2028 61.508 64.2995 61.2123L65.5406 57.4155C65.6051 57.2243 65.8067 57.1161 66.0013 57.1702H66.0009Z" fill="url(#paint27_linear_1055_192217)"/>
<path d="M66.8853 68.0147L66.9854 68.8863C66.9854 68.8863 65.5452 73.1993 67.7055 83.2721C67.7055 83.2721 72.3839 84.5973 76.2292 81.4258C76.2292 81.4258 75.1444 71.9181 74.8483 71.4753C73.3726 69.2695 72.3894 68.7899 72.3894 68.7899L72.3449 67.8379C72.3449 67.8379 68.2321 68.5813 66.8849 68.0143L66.8853 68.0147Z" fill="url(#paint28_linear_1055_192217)"/>
<path d="M68.8796 57.8793C68.8618 57.8556 69.9436 54.6133 69.9436 54.6133L71.4931 54.7537L72.0982 58.4319C72.0982 58.4319 69.6697 58.9222 68.8796 57.879V57.8793Z" fill="url(#paint29_linear_1055_192217)"/>
<path d="M71.1223 49.502C71.0189 49.5665 67.811 50.8921 68.5003 54.2223C68.5411 54.4191 68.6723 54.5859 68.8557 54.6678C69.3264 54.8779 70.3399 55.2374 71.5518 55.114C73.2324 54.9431 74.3335 52.0106 74.2864 51.1575C74.2397 50.304 72.1458 48.8642 71.1215 49.502H71.1223Z" fill="url(#paint30_linear_1055_192217)"/>
<path d="M70.872 52.5586C70.3746 51.3168 69.9125 50.2254 70.4343 49.3949C71.2018 48.1738 74.2433 48.0818 75.8228 49.7466C77.4716 51.4843 75.9043 53.8061 77.6005 55.6906C78.9258 57.1626 80.4537 56.3806 82.3075 57.4987C85.3827 59.3543 86.8914 64.954 85.068 68.027C82.0877 73.0504 70.143 71.4242 68.2904 67.2391C66.6472 63.5264 73.2079 58.3926 70.8712 52.5586H70.872Z" fill="url(#paint31_linear_1055_192217)"/>
<path opacity="0.39" d="M75.0087 59.5829C74.9991 59.5596 74.9898 59.5362 74.9809 59.5125C74.634 58.5882 74.693 57.4694 75.161 56.0923C75.8907 53.9473 75.87 53.2531 75.3578 52.0046C75.343 51.9683 75.3278 51.9316 75.3119 51.8942L75.3626 51.873C75.3774 51.9083 75.3919 51.9431 75.406 51.9776C75.9181 53.2265 75.9437 53.9617 75.2129 56.1101C74.7489 57.475 74.6896 58.5816 75.0321 59.4936C75.4019 60.4772 76.414 61.2454 77.8086 61.5964C78.4167 61.7494 79.0515 61.8261 79.6656 61.8999C80.2411 61.9692 80.836 62.0407 81.41 62.1756C81.828 62.2738 82.4362 62.451 82.8902 62.8564C83.3423 63.2596 83.5543 63.8437 83.4305 64.3432L83.3771 64.3303C83.4965 63.85 83.2908 63.2878 82.8539 62.8975C82.4091 62.5006 81.8099 62.3261 81.3974 62.2294C80.8267 62.0956 80.233 62.024 79.6593 61.9547C79.0438 61.8806 78.4071 61.8039 77.7952 61.6501C76.4162 61.3029 75.4056 60.552 75.0083 59.5837L75.0087 59.5829Z" fill="white"/>
<path opacity="0.39" d="M73.8488 60.4018C73.8095 60.3061 73.7762 60.2094 73.7487 60.1119C73.5742 59.4897 73.6531 58.6485 74.2231 58.1719L74.2583 58.2141C73.7072 58.6748 73.6316 59.4919 73.8017 60.0971C74.0215 60.8798 74.6385 61.6114 75.5391 62.1576C76.1328 62.5179 76.7917 62.7784 77.4295 63.03C77.6407 63.1134 77.859 63.1998 78.0717 63.2883C79.0082 63.6786 79.9192 64.1488 80.779 64.6862C81.3482 65.042 81.9067 65.4545 82.1539 66.0567C82.162 66.0767 82.1702 66.0971 82.1776 66.1178C82.3121 66.4843 82.2699 66.9424 82.0697 67.2841C81.9152 67.548 81.6828 67.7166 81.4149 67.7599L81.406 67.7058C81.6573 67.6654 81.8763 67.5057 82.0219 67.2563C82.2143 66.9279 82.255 66.4884 82.1257 66.1367C81.897 65.5149 81.3297 65.0957 80.7497 64.7329C79.8925 64.197 78.9842 63.7279 78.0506 63.3391C77.8383 63.2509 77.62 63.1645 77.4091 63.0812C76.7695 62.8284 76.108 62.5671 75.5106 62.2047C74.7097 61.7189 74.1301 61.087 73.8488 60.4018Z" fill="white"/>
<path opacity="0.39" d="M73.3277 61.3172C73.2324 61.0848 73.1816 60.831 73.2031 60.5586L73.258 60.5627C73.1813 61.5388 74.1015 62.293 74.5006 62.5717C74.9483 62.8845 75.4449 63.1465 75.9252 63.4C76.7194 63.8191 77.5402 64.2523 78.1539 64.9235C78.4682 65.2666 78.6687 65.618 78.7502 65.9667C78.8507 66.397 78.7639 66.8306 78.5179 67.1267L78.4756 67.0915C78.7106 66.8083 78.7932 66.3925 78.6965 65.9789C78.6172 65.6402 78.4208 65.2967 78.1132 64.9602C77.5058 64.2961 76.6893 63.8651 75.8992 63.4485C75.4174 63.1943 74.919 62.9312 74.4687 62.6169C74.1052 62.363 73.5708 61.9109 73.3273 61.3172H73.3277Z" fill="white"/>
<defs>
<linearGradient id="paint0_linear_1055_192217" x1="25.0563" y1="14.0649" x2="28.7122" y2="14.0649" gradientUnits="userSpaceOnUse">
<stop stop-color="#DAE3FE"/>
<stop offset="1" stop-color="#E9EFFD"/>
</linearGradient>
<linearGradient id="paint1_linear_1055_192217" x1="22.3638" y1="14.0358" x2="31.3527" y2="14.0358" gradientUnits="userSpaceOnUse">
<stop stop-color="#DAE3FE"/>
<stop offset="1" stop-color="#E9EFFD"/>
</linearGradient>
<linearGradient id="paint2_linear_1055_192217" x1="37.8694" y1="21.3213" x2="40.3602" y2="21.3213" gradientUnits="userSpaceOnUse">
<stop stop-color="#DAE3FE"/>
<stop offset="1" stop-color="#E9EFFD"/>
</linearGradient>
<linearGradient id="paint3_linear_1055_192217" x1="35.9968" y1="21.3022" x2="42.1983" y2="21.3022" gradientUnits="userSpaceOnUse">
<stop stop-color="#DAE3FE"/>
<stop offset="1" stop-color="#E9EFFD"/>
</linearGradient>
<linearGradient id="paint4_linear_1055_192217" x1="51.9513" y1="19.8266" x2="38.6287" y2="144.172" gradientUnits="userSpaceOnUse">
<stop stop-color="#A77AF1"/>
<stop offset="1" stop-color="#4042E2"/>
</linearGradient>
<linearGradient id="paint5_linear_1055_192217" x1="34.5897" y1="59.8871" x2="39.6635" y2="76.8134" gradientUnits="userSpaceOnUse">
<stop stop-color="#09005D"/>
<stop offset="1" stop-color="#1A0F91"/>
</linearGradient>
<linearGradient id="paint6_linear_1055_192217" x1="5.67757" y1="65.2504" x2="10.827" y2="82.429" gradientUnits="userSpaceOnUse">
<stop stop-color="#09005D"/>
<stop offset="1" stop-color="#1A0F91"/>
</linearGradient>
<linearGradient id="paint7_linear_1055_192217" x1="60.1461" y1="-28.1338" x2="53.5121" y2="-10.2589" gradientUnits="userSpaceOnUse">
<stop stop-color="#FF928E"/>
<stop offset="1" stop-color="#FE7062"/>
</linearGradient>
<linearGradient id="paint8_linear_1055_192217" x1="22.8694" y1="59.3228" x2="23.6406" y2="72.2514" gradientUnits="userSpaceOnUse">
<stop stop-color="#FEBBBA"/>
<stop offset="1" stop-color="#FF928E"/>
</linearGradient>
<linearGradient id="paint9_linear_1055_192217" x1="21.3508" y1="48.9963" x2="32.1741" y2="63.4373" gradientUnits="userSpaceOnUse">
<stop stop-color="#FEBBBA"/>
<stop offset="1" stop-color="#FF928E"/>
</linearGradient>
<linearGradient id="paint10_linear_1055_192217" x1="24.5276" y1="46.6172" x2="35.3509" y2="61.0582" gradientUnits="userSpaceOnUse">
<stop stop-color="#FEBBBA"/>
<stop offset="1" stop-color="#FF928E"/>
</linearGradient>
<linearGradient id="paint11_linear_1055_192217" x1="17.6572" y1="51.7668" x2="28.4805" y2="66.2078" gradientUnits="userSpaceOnUse">
<stop stop-color="#FEBBBA"/>
<stop offset="1" stop-color="#FF928E"/>
</linearGradient>
<linearGradient id="paint12_linear_1055_192217" x1="17.5081" y1="53.9811" x2="28.0152" y2="53.9811" gradientUnits="userSpaceOnUse">
<stop stop-color="#09005D"/>
<stop offset="1" stop-color="#1A0F91"/>
</linearGradient>
<linearGradient id="paint13_linear_1055_192217" x1="22.8343" y1="57.8845" x2="22.8343" y2="38.4086" gradientUnits="userSpaceOnUse">
<stop stop-color="#09005D"/>
<stop offset="1" stop-color="#1A0F91"/>
</linearGradient>
<linearGradient id="paint14_linear_1055_192217" x1="12.8086" y1="62.3492" x2="18.2789" y2="80.5981" gradientUnits="userSpaceOnUse">
<stop stop-color="#09005D"/>
<stop offset="1" stop-color="#1A0F91"/>
</linearGradient>
<linearGradient id="paint15_linear_1055_192217" x1="30.4841" y1="57.3532" x2="36.4699" y2="77.322" gradientUnits="userSpaceOnUse">
<stop stop-color="#09005D"/>
<stop offset="1" stop-color="#1A0F91"/>
</linearGradient>
<linearGradient id="paint16_linear_1055_192217" x1="73.8009" y1="43.0774" x2="69.4138" y2="56.5249" gradientUnits="userSpaceOnUse">
<stop stop-color="#FEBBBA"/>
<stop offset="1" stop-color="#FF928E"/>
</linearGradient>
<linearGradient id="paint17_linear_1055_192217" x1="57.2469" y1="-5.4978" x2="75.6573" y2="39.6923" gradientUnits="userSpaceOnUse">
<stop stop-color="#A8ADF6"/>
<stop offset="1" stop-color="#4B0EAE"/>
</linearGradient>
<linearGradient id="paint18_linear_1055_192217" x1="59.3765" y1="-0.0524603" x2="74.3716" y2="36.7529" gradientUnits="userSpaceOnUse">
<stop stop-color="#09005D"/>
<stop offset="1" stop-color="#1A0F91"/>
</linearGradient>
<linearGradient id="paint19_linear_1055_192217" x1="81.6234" y1="-20.1627" x2="74.9894" y2="-2.28779" gradientUnits="userSpaceOnUse">
<stop stop-color="#F07A20"/>
<stop offset="1" stop-color="#FE7062"/>
</linearGradient>
<linearGradient id="paint20_linear_1055_192217" x1="74.1997" y1="20.7402" x2="52.5766" y2="42.609" gradientUnits="userSpaceOnUse">
<stop stop-color="#E7AD1B"/>
<stop offset="1" stop-color="#FE7062"/>
</linearGradient>
<linearGradient id="paint21_linear_1055_192217" x1="83.1934" y1="11.8627" x2="101.621" y2="-6.9339" gradientUnits="userSpaceOnUse">
<stop stop-color="#E1473D"/>
<stop offset="1" stop-color="#E9605A"/>
</linearGradient>
<linearGradient id="paint22_linear_1055_192217" x1="72.7969" y1="90.3166" x2="81.8806" y2="90.3166" gradientUnits="userSpaceOnUse">
<stop stop-color="#FEBBBA"/>
<stop offset="1" stop-color="#FF928E"/>
</linearGradient>
<linearGradient id="paint23_linear_1055_192217" x1="85.2828" y1="70.0027" x2="80.7845" y2="99.2431" gradientUnits="userSpaceOnUse">
<stop stop-color="#09005D"/>
<stop offset="1" stop-color="#1A0F91"/>
</linearGradient>
<linearGradient id="paint24_linear_1055_192217" x1="75.7644" y1="68.5372" x2="71.2657" y2="97.7776" gradientUnits="userSpaceOnUse">
<stop stop-color="#09005D"/>
<stop offset="1" stop-color="#1A0F91"/>
</linearGradient>
<linearGradient id="paint25_linear_1055_192217" x1="67.2852" y1="90.9906" x2="72.5454" y2="90.9906" gradientUnits="userSpaceOnUse">
<stop stop-color="#FEBBBA"/>
<stop offset="1" stop-color="#FF928E"/>
</linearGradient>
<linearGradient id="paint26_linear_1055_192217" x1="55.9534" y1="51.5247" x2="66.2516" y2="51.5247" gradientUnits="userSpaceOnUse">
<stop stop-color="#FEBBBA"/>
<stop offset="1" stop-color="#FF928E"/>
</linearGradient>
<linearGradient id="paint27_linear_1055_192217" x1="111.088" y1="45.7514" x2="89.5275" y2="54.5964" gradientUnits="userSpaceOnUse">
<stop stop-color="#FF928E"/>
<stop offset="1" stop-color="#FE7062"/>
</linearGradient>
<linearGradient id="paint28_linear_1055_192217" x1="62.6409" y1="67.2271" x2="79.5104" y2="86.2521" gradientUnits="userSpaceOnUse">
<stop stop-color="#E1473D"/>
<stop offset="1" stop-color="#E9605A"/>
</linearGradient>
<linearGradient id="paint29_linear_1055_192217" x1="68.8796" y1="56.5804" x2="72.0986" y2="56.5804" gradientUnits="userSpaceOnUse">
<stop stop-color="#FEBBBA"/>
<stop offset="1" stop-color="#FF928E"/>
</linearGradient>
<linearGradient id="paint30_linear_1055_192217" x1="73.9955" y1="52.4223" x2="97.4257" y2="54.0155" gradientUnits="userSpaceOnUse">
<stop stop-color="#FEBBBA"/>
<stop offset="1" stop-color="#FF928E"/>
</linearGradient>
<linearGradient id="paint31_linear_1055_192217" x1="85.9747" y1="71.121" x2="69.9302" y2="56.8055" gradientUnits="userSpaceOnUse">
<stop stop-color="#09005D"/>
<stop offset="1" stop-color="#1A0F91"/>
</linearGradient>
</defs>
</svg>
