<svg width="200" height="222" viewBox="0 0 200 222" fill="none" xmlns="http://www.w3.org/2000/svg">
<path d="M141.786 221.391H100.41" stroke="#6B36DD" stroke-linecap="round" stroke-linejoin="round"/>
<path d="M98.0857 221.391H90.7422" stroke="#6B36DD" stroke-linecap="round" stroke-linejoin="round"/>
<path d="M187.026 118.453C184.975 116.013 183.334 113.397 183.104 110.276C182.924 107.887 183.667 105.546 184.361 103.257C189.464 86.7277 195.41 70.4507 197.796 53.3184C199.386 41.5939 198.488 29.2421 192.027 18.952C184.772 7.38034 173.028 1.59184 159.617 0.310267C140.056 -1.52629 119.774 5.36683 100.108 5.91914C79.0824 6.47413 57.7756 5.36683 37.0855 9.76921C19.0604 13.6193 -3.1445 26.4993 0.370426 47.7578C1.83163 56.5894 6.72733 64.437 11.3683 72.1612C16.0093 79.8855 20.5994 87.961 21.393 96.8435C22.1893 105.9 19.0095 114.804 16.701 123.636C12.2156 140.441 10.9849 158.329 14.4462 175.462C17.3928 189.752 24.8302 213.879 43.5711 212.823C50.7779 212.445 57.3922 208.922 63.9823 205.981C86.2623 195.916 110.467 191.084 133.876 184.344C153.952 178.607 185.975 170.054 197.41 151.034C203.078 141.623 198.668 130.58 191.643 123.183C189.976 121.7 188.386 120.14 187.026 118.453Z" fill="#D5C2FF"/>
<path d="M120.97 131.244V109.833C120.97 117.522 114.683 123.809 106.993 123.809L106.907 148.958C114.044 148.958 120.034 154.395 120.798 161.361V163.315L120.884 162.935C120.884 162.382 120.884 161.913 120.798 161.321V145.178C120.798 144.328 120.97 143.564 121.168 142.829C121.182 142.757 121.265 142.542 121.297 142.459C122.2 139.824 124.833 137.955 127.849 137.955C129.804 137.955 131.504 138.722 132.82 140.038C134.054 141.269 134.901 143.054 134.901 145.006V163.401C134.901 171.091 128.616 177.378 120.927 177.378V202.653H64.8516V80.8205C64.8516 76.9543 67.9536 73.7692 71.9029 73.7692C73.7743 73.7692 75.5572 74.5333 76.8736 75.8497C78.1901 77.083 78.9569 78.8659 78.9569 80.8205V70.2006C78.9569 66.3345 82.0562 63.1493 86.0082 63.1493C87.8769 63.1493 89.6598 63.9134 90.9789 65.2298C92.2953 66.4605 93.0595 68.2461 93.0595 70.2006V59.6639C93.0595 55.8004 96.1615 52.6125 100.111 52.6125C101.98 52.6125 103.765 53.3767 105.082 54.6958C106.398 55.9264 107.162 57.712 107.162 59.6639V109.323C107.162 101.637 113.449 95.3494 121.139 95.3494C128.828 95.3494 135.115 101.637 135.115 109.323V130.649C135.115 134.601 131.927 137.7 128.064 137.7C126.109 137.7 124.324 136.936 123.093 135.62C122.158 134.684 121.479 133.453 121.066 132.26C120.97 131.922 120.97 131.542 120.97 131.244Z" fill="white" stroke="#6B36DD" stroke-linecap="round" stroke-linejoin="round"/>
<path d="M120.797 161.404C120.883 161.873 120.883 162.425 120.883 163.018L120.797 163.401V161.404Z" fill="#E7DCFF" stroke="#6B36DD" stroke-linecap="round" stroke-linejoin="round"/>
<path d="M124.749 190.716H60.6895V200.103H124.749V190.716Z" fill="#E7DCFF" stroke="#6B36DD" stroke-linecap="round" stroke-linejoin="round"/>
<path d="M105.207 198.575H127.383V221.302H58.1406V198.575H99.1749H105.207Z" fill="#E7DCFF" stroke="#6B36DD" stroke-linecap="round" stroke-linejoin="round"/>
<path d="M116.465 213.527C118.436 213.527 120.034 211.929 120.034 209.959C120.034 207.988 118.436 206.39 116.465 206.39C114.494 206.39 112.896 207.988 112.896 209.959C112.896 211.929 114.494 213.527 116.465 213.527Z" stroke="#6B36DD" stroke-linecap="round" stroke-linejoin="round"/>
<path d="M79.0156 136.829V126.761" stroke="#6B36DD" stroke-linecap="round" stroke-linejoin="round"/>
<path d="M78.957 80.7776V120.198" stroke="#6B36DD" stroke-linecap="round" stroke-linejoin="round"/>
<path d="M93.0546 70.1282L92.6738 117.069" stroke="#6B36DD" stroke-linecap="round" stroke-linejoin="round"/>
<path d="M43.6973 221.302H141.826" stroke="#6B36DD" stroke-linecap="round" stroke-linejoin="round"/>
<path d="M121.052 132.22C120.969 131.753 120.883 131.287 120.883 130.735V115.144C120.883 114.761 120.883 114.38 120.969 113.996V131.287C120.969 131.542 120.969 131.922 121.052 132.22Z" fill="#E7DCFF" stroke="#6B36DD" stroke-linecap="round" stroke-linejoin="round"/>
<path d="M163.219 95.9344C172.415 95.9344 179.863 88.4863 179.863 79.2901C179.863 70.0965 172.415 62.6458 163.219 62.6458C154.025 62.6458 146.574 70.0965 146.574 79.2901C146.574 88.4863 154.025 95.9344 163.219 95.9344Z" fill="#1D8B3C" stroke="white" stroke-width="2" stroke-linecap="round" stroke-linejoin="round"/>
<path d="M155.881 79.1748L160.908 84.2018L170.619 74.4346" fill="#1D8B3C"/>
<path d="M155.881 79.1748L160.908 84.2018L170.619 74.4346" stroke="white" stroke-width="2" stroke-linecap="round" stroke-linejoin="round"/>
</svg>
