<svg width="18" height="18" viewBox="0 0 18 18" fill="none" xmlns="http://www.w3.org/2000/svg">
<path d="M0 3.25C0 1.45507 1.45507 0 3.25 0H14.75C16.5449 0 18 1.45507 18 3.25V14.75C18 16.5449 16.5449 18 14.75 18H3.25C1.45507 18 0 16.5449 0 14.75V3.25ZM1.5 9.5V14.75C1.5 15.7165 2.2835 16.5 3.25 16.5H11V9.5L1.5 9.5ZM11 8V1.5H3.25C2.2835 1.5 1.5 2.2835 1.5 3.25V8L11 8ZM16.5 6.5H12.5V11.5H16.5V6.5ZM16.5 13H12.5V16.5H14.75C15.7165 16.5 16.5 15.7165 16.5 14.75V13ZM16.5 5V3.25C16.5 2.2835 15.7165 1.5 14.75 1.5H12.5V5L16.5 5Z" fill="#4B0EAE"/>
</svg>
