<svg width="20" height="20" viewBox="0 0 20 20" fill="none" xmlns="http://www.w3.org/2000/svg">
<path d="M6.61011 10.7682C5.69721 10.084 4.99824 9.11604 4.64029 8.02523C4.27809 6.93653 4.26327 5.73134 4.59157 4.62358C4.74831 4.06653 5.01519 3.54336 5.33502 3.06255C5.48964 2.81686 5.6845 2.60081 5.8709 2.37841C6.07847 2.17508 6.27969 1.96539 6.51268 1.7917C7.4171 1.06096 8.55875 0.628873 9.72369 0.556858C10.8886 0.470017 12.079 0.766549 13.0872 1.3702C13.5871 1.67944 14.0425 2.0607 14.4364 2.49914C14.8198 2.94818 15.1291 3.4544 15.3663 3.99239C15.8174 5.07897 15.9403 6.29687 15.684 7.43852C15.4319 8.57805 14.8071 9.61803 13.9535 10.3784C13.9344 10.3954 13.9069 10.3932 13.8921 10.3742C13.8773 10.3572 13.8773 10.3318 13.8921 10.3149C14.661 9.49518 15.1968 8.46791 15.3747 7.3771C15.4743 6.83487 15.4849 6.27993 15.4171 5.73558C15.3366 5.19335 15.2032 4.65959 14.9744 4.16184C14.7499 3.66621 14.4576 3.20023 14.1018 2.7872C13.7417 2.37841 13.3244 2.02046 12.8669 1.72392C11.9434 1.14357 10.8399 0.838564 9.74064 0.895752C9.18994 0.908461 8.64559 1.03555 8.12878 1.2177C7.60561 1.39562 7.12268 1.67733 6.68424 2.01198C6.45761 2.17296 6.26486 2.36994 6.06152 2.56057C5.87937 2.77026 5.69086 2.97359 5.53836 3.20447C5.22276 3.65774 4.958 4.15549 4.79703 4.68924C4.45601 5.74617 4.43907 6.91323 4.76737 7.98499C5.08932 9.05886 5.75228 10.0289 6.63976 10.7279C6.65035 10.7364 6.65247 10.7533 6.644 10.766C6.63552 10.7766 6.61858 10.7787 6.60799 10.7703L6.61011 10.7682Z" fill="#4B0EAE"/>
<path d="M6.89212 10.3424C7.10605 10.497 7.15264 10.7956 6.99802 11.0095C6.8434 11.2235 6.54475 11.2701 6.33083 11.1155C6.1169 10.9608 6.0703 10.6622 6.22492 10.4483C6.37954 10.2343 6.67819 10.1877 6.89212 10.3424Z" fill="#4B0EAE"/>
<path d="M13.6084 9.97169C13.4157 10.1517 13.403 10.4525 13.583 10.6474C13.7631 10.8401 14.0638 10.8528 14.2587 10.6728C14.4514 10.4927 14.4641 10.192 14.2841 9.99711C14.1041 9.80436 13.8033 9.79165 13.6084 9.97169Z" fill="#4B0EAE"/>
<path d="M12.2296 8.39808C13.2865 7.97446 14.479 7.87915 15.5973 8.13968C16.7157 8.39596 17.7536 9.00809 18.5288 9.86592C18.9249 10.2895 19.232 10.7873 19.4756 11.3126C19.6048 11.5731 19.6895 11.8506 19.7827 12.1259C19.8483 12.4076 19.9246 12.6893 19.9521 12.9795C20.1068 14.1317 19.8822 15.3306 19.34 16.3642C18.8084 17.4063 17.9378 18.2684 16.8979 18.8169C16.3747 19.0838 15.8113 19.2745 15.233 19.3846C14.6506 19.4778 14.0554 19.4799 13.4729 19.4037C12.3101 19.2236 11.2044 18.6962 10.3636 17.885C9.52056 17.078 8.95503 16.0041 8.75169 14.8794C8.74746 14.8561 8.76229 14.8328 8.7877 14.8286C8.811 14.8244 8.83218 14.8392 8.83854 14.8604C9.1393 15.9448 9.73872 16.9361 10.5775 17.6541C10.9884 18.0205 11.4586 18.3171 11.9585 18.5437C12.4626 18.7555 12.99 18.9207 13.5322 18.9822C14.0723 19.0478 14.623 19.0393 15.161 18.9504C15.6969 18.8551 16.2201 18.6856 16.7115 18.4463C17.6879 17.9591 18.5224 17.1754 19.0435 16.2053C19.3188 15.7267 19.4925 15.1971 19.6069 14.6591C19.7255 14.119 19.7361 13.5599 19.6789 13.0113C19.6577 12.7338 19.5899 12.4669 19.5328 12.1958C19.448 11.9332 19.3739 11.6642 19.2532 11.4142C19.0286 10.9101 18.7427 10.4251 18.3699 10.0099C17.6434 9.17118 16.6543 8.54847 15.5677 8.27312C14.4832 7.99141 13.3098 8.05283 12.2508 8.44892C12.2359 8.45315 12.2211 8.44892 12.2169 8.43409C12.2126 8.42138 12.2169 8.40444 12.2317 8.4002L12.2296 8.39808Z" fill="#4B0EAE"/>
<path d="M12.4476 8.85963C12.204 8.9613 11.9244 8.84692 11.8227 8.60334C11.7211 8.35976 11.8355 8.08018 12.079 7.97851C12.3226 7.87684 12.6022 7.99122 12.7039 8.2348C12.8055 8.47838 12.6912 8.75796 12.4476 8.85963Z" fill="#4B0EAE"/>
<path d="M9.27508 14.7925C9.22213 14.5341 8.97008 14.3667 8.71167 14.4197C8.45326 14.4726 8.28593 14.7247 8.33889 14.9831C8.39184 15.2415 8.64389 15.4088 8.9023 15.3559C9.1607 15.3029 9.32803 15.0509 9.27508 14.7925Z" fill="#4B0EAE"/>
<path d="M11.3358 14.64C11.1494 15.7647 10.6114 16.8322 9.80653 17.6519C9.00589 18.4737 7.94473 19.0435 6.80944 19.2595C6.24179 19.3781 5.6572 19.3802 5.0832 19.3167C4.79302 19.2913 4.51343 19.2193 4.22961 19.1557C3.95426 19.0646 3.67467 18.9841 3.41203 18.8571C2.34663 18.3911 1.43797 17.5756 0.838553 16.5759C0.224308 15.5825 -0.0595153 14.3879 0.0103815 13.2166C0.0548614 12.6299 0.184065 12.0517 0.391637 11.4988C0.614036 10.9524 0.921159 10.444 1.28971 9.9844C2.04798 9.08422 3.07313 8.4149 4.20207 8.11625C5.33101 7.81548 6.54044 7.88961 7.60796 8.30052C7.63126 8.309 7.64185 8.33441 7.63337 8.35771C7.6249 8.37889 7.6016 8.38948 7.58042 8.38525C6.49808 8.07812 5.33949 8.07601 4.28892 8.42125C3.76151 8.58223 3.26376 8.82793 2.81261 9.13929C2.36993 9.46123 1.95478 9.82343 1.62013 10.2555C1.28335 10.6834 1.00376 11.1578 0.802546 11.664C0.603446 12.1724 0.478479 12.7061 0.427645 13.2505C0.336567 14.3371 0.573793 15.4575 1.13085 16.4086C1.39561 16.8915 1.75992 17.3151 2.15812 17.6921C2.55632 18.0734 3.02865 18.3741 3.52852 18.6092C3.77634 18.7363 4.0411 18.8168 4.30162 18.9079C4.57062 18.9736 4.8375 19.0477 5.11497 19.0752C5.66355 19.1451 6.22696 19.1536 6.77343 19.0498C7.86848 18.8655 8.9127 18.3424 9.71333 17.5587C10.5182 16.7792 11.0731 15.7435 11.285 14.6336C11.2871 14.6188 11.3019 14.6103 11.3167 14.6124C11.3316 14.6145 11.34 14.6294 11.3379 14.6421L11.3358 14.64Z" fill="#4B0EAE"/>
<path d="M10.8274 14.5871C10.8676 14.3266 11.1112 14.1465 11.3718 14.1868C11.6323 14.227 11.8123 14.4706 11.7721 14.7311C11.7318 14.9917 11.4882 15.1717 11.2277 15.1314C10.9672 15.0912 10.7872 14.8476 10.8274 14.5871Z" fill="#4B0EAE"/>
<path d="M7.40651 8.79402C7.65432 8.88298 7.92756 8.75378 8.01863 8.50596C8.10759 8.25815 7.97839 7.98492 7.73057 7.89384C7.48276 7.80488 7.20952 7.93408 7.11845 8.1819C7.02949 8.42971 7.15869 8.70295 7.40651 8.79402Z" fill="#4B0EAE"/>
<path d="M8.47419 8.57166H10.5711C11.1599 8.57166 11.6386 9.05034 11.6386 9.63917V10.9884H8.25391V8.79405C8.25391 8.67121 8.35346 8.57377 8.47419 8.57377V8.57166Z" fill="#4B0EAE" stroke="white" stroke-width="0.4" stroke-miterlimit="10"/>
<path d="M8.25195 10.9884H11.7341C12.0052 10.9884 12.2255 11.2087 12.2255 11.4798V12.757C12.2255 13.3458 11.7468 13.8245 11.158 13.8245H8.47223C8.34939 13.8245 8.25195 13.725 8.25195 13.6042V10.9884Z" fill="#4B0EAE" stroke="white" stroke-width="0.4" stroke-miterlimit="10"/>
</svg>
