<svg width="10" height="16" viewBox="0 0 10 16" fill="none" xmlns="http://www.w3.org/2000/svg">
<path d="M0 2C0 0.895431 0.89543 0 2 0H8C9.10457 0 10 0.89543 10 2V14C10 15.1046 9.10457 16 8 16H2C0.895431 16 0 15.1046 0 14V2ZM2.5 2C2.22386 2 2 2.22386 2 2.5V4.5C2 4.77614 2.22386 5 2.5 5H7.5C7.77614 5 8 4.77614 8 4.5V2.5C8 2.22386 7.77614 2 7.5 2H2.5ZM2.5 6C2.22386 6 2 6.22386 2 6.5V11.5C2 11.7761 2.22386 12 2.5 12H7.5C7.77614 12 8 11.7761 8 11.5V6.5C8 6.22386 7.77614 6 7.5 6H2.5ZM4 13.5C4 13.7761 4.22386 14 4.5 14H5.5C5.77614 14 6 13.7761 6 13.5C6 13.2239 5.77614 13 5.5 13H4.5C4.22386 13 4 13.2239 4 13.5Z" fill="#4B0EAE"/>
</svg>
