<svg width="260" height="190" viewBox="0 0 260 190" fill="none" xmlns="http://www.w3.org/2000/svg">
<path d="M259.997 11.7057L257.079 135.177L256.626 154.272C256.626 156.767 254.58 158.788 252.085 158.788H6.58425C4.08806 158.788 2.04252 156.767 2.04252 154.272L1.76551 135.166L0 13.2082C0 10.713 2.94084 5.84511 8.32668 6.21247L248.258 0.00359418C251.39 -0.0746942 254.42 1.12873 256.638 3.34389C258.857 5.55403 260.071 8.57717 259.997 11.7057Z" fill="url(#paint0_linear_1283_175286)"/>
<path opacity="0.2" d="M250.624 150.435C250.624 152.763 248.678 154.668 246.299 154.668H12.4332C10.0544 154.668 8.10828 152.763 8.10828 150.435L6.16211 18.7762C6.16211 16.4486 8.96142 11.9039 14.0923 12.2451L242.652 6.45179C245.636 6.37651 248.522 7.50165 250.636 9.56525C252.75 11.6289 253.906 14.4502 253.836 17.371L250.624 150.435Z" fill="#91B3FA"/>
<path d="M205.123 27.003C205.064 29.172 203.912 30.9566 202.547 30.9646L121.428 31.4474C119.892 31.4565 118.653 29.5565 118.663 27.249C118.673 24.9384 119.932 23.0254 121.471 23.0254H202.757C204.124 23.0254 205.182 24.832 205.122 27.003H205.123Z" fill="#F5F5F5"/>
<path d="M204.247 120.694C204.189 122.863 203.053 124.574 201.707 124.582L121.722 125.027C120.208 125.036 118.986 123.266 118.996 120.959C119.006 118.649 120.248 116.865 121.765 116.865H201.915C203.263 116.865 204.305 118.523 204.247 120.694Z" fill="#F5F5F5"/>
<path d="M204.256 105.685C204.196 107.854 203.056 109.549 201.705 109.557L121.4 109.996C119.88 110.005 118.653 108.26 118.663 105.953C118.673 103.642 119.92 101.885 121.444 101.885H201.914C203.267 101.885 204.315 103.513 204.256 105.685Z" fill="#F5F5F5"/>
<path d="M205.115 43.6387C205.055 45.4514 203.052 46.9348 200.636 46.9549L123.259 47.6003C120.706 47.6214 118.647 46.1269 118.664 44.26L118.666 44.0502C118.684 42.1813 120.775 40.6527 123.333 40.6366L200.849 40.1739C203.27 40.1599 205.181 41.6203 205.122 43.4339L205.115 43.6377V43.6387Z" fill="#F5F5F5"/>
<path d="M204.823 59.927C204.753 61.7237 202.745 63.1931 200.335 63.2111L123.167 63.7933C120.621 63.8124 118.577 62.3299 118.606 60.4791L118.609 60.2703C118.638 58.4175 120.734 56.9039 123.284 56.8909L200.588 56.4884C203.002 56.4753 204.9 57.9247 204.83 59.7233L204.822 59.926L204.823 59.927Z" fill="#F5F5F5"/>
<path d="M246.158 155.462H219.852C219.668 155.462 219.519 155.314 219.519 155.129C219.519 154.944 219.667 154.796 219.852 154.796H246.158C249.395 154.796 252.128 151.788 252.128 148.228V67.2844C252.128 67.1007 252.276 66.9512 252.461 66.9512C252.646 66.9512 252.794 67.0997 252.794 67.2844V148.228C252.794 152.148 249.755 155.461 246.158 155.461V155.462Z" fill="#BDD0FB"/>
<path d="M6.56516 67.2855C6.38149 67.2855 6.23193 67.137 6.23193 66.9523V20.1579C6.23193 15.3462 9.82517 11.7168 14.5897 11.7168H35.5138C35.6975 11.7168 35.847 11.8653 35.847 12.05C35.847 12.2347 35.6985 12.3833 35.5138 12.3833H14.5897C10.1333 12.3833 6.89739 15.6533 6.89739 20.1589V66.9533C6.89739 67.137 6.74884 67.2865 6.56416 67.2865L6.56516 67.2855Z" fill="#BDD0FB"/>
<path d="M107.839 26.4277H18.3028C17.6376 26.4277 17.0984 26.967 17.0984 27.6322V124.459C17.0984 125.124 17.6376 125.663 18.3028 125.663H107.839C108.504 125.663 109.043 125.124 109.043 124.459V27.6322C109.043 26.967 108.504 26.4277 107.839 26.4277Z" fill="white"/>
<path d="M188.262 34.5152C188.262 34.5152 172.018 55.3119 190.552 76.4638L197.519 75.8144C197.519 75.8144 184.764 55.3349 189.671 38.3976C189.888 37.6508 190.59 37.149 191.366 37.2052L198.479 37.7241C199.425 37.7933 200.362 37.5013 201.101 36.9071L205.408 33.4453L188.263 34.5132L188.262 34.5152Z" fill="url(#paint1_linear_1283_175286)"/>
<path d="M197.158 136.34C197.158 136.34 210.319 165.023 217.224 176.904C217.224 176.904 218.595 184.38 217.224 186.73L216.056 187.25L221.51 187.088C221.51 187.088 221.995 177.033 221.616 176.471C221.238 175.909 220.481 175.946 220.481 175.946C220.481 175.946 218.143 157.415 211.369 153.461L204.804 130.852L197.159 136.34H197.158Z" fill="url(#paint2_linear_1283_175286)"/>
<path d="M213.726 188.659C213.718 188.79 217.985 188.73 220.303 188.688C221.159 188.672 221.889 188.07 222.071 187.234L223.822 178.037C223.988 177.163 223.433 176.314 222.566 176.116L221.59 175.893C221.59 175.893 220.195 177.805 220.634 179.605C221.073 181.406 221.463 186.069 220.355 186.612C219.246 187.155 216.056 187.25 216.056 187.25C216.056 187.25 213.8 187.474 213.727 188.659H213.726Z" fill="url(#paint3_linear_1283_175286)"/>
<path d="M184.684 188.822C184.252 189.068 184.43 189.727 184.927 189.722C188.806 189.683 197.499 189.561 198.271 189.24C199.269 188.825 197.908 185.241 196.475 184.028L188.568 186.609L184.683 188.822H184.684Z" fill="url(#paint4_linear_1283_175286)"/>
<path d="M182.23 134.506C182.23 134.506 190.734 175.648 193.14 183.674L187.449 187.245C187.449 187.245 190.302 186.76 192.417 186.607C194.531 186.453 196.476 184.026 196.476 184.026L195.795 182.939C195.795 182.939 193.662 142.021 194.181 137.374L182.23 134.506Z" fill="url(#paint5_linear_1283_175286)"/>
<path d="M161.118 38.5408C161.118 38.5408 159.945 59.9426 179.431 70.8789L174.74 81.5783C174.74 81.5783 157.099 70.908 157.751 41.8058C157.77 40.9707 157.468 40.1597 156.923 39.5264L153.173 35.1764C151.745 33.5193 151.211 31.271 151.742 29.1482L152.236 27.1759C152.401 26.5155 153.153 26.1973 153.742 26.5396L154.135 26.7674C155.383 27.4921 156.372 28.5911 156.961 29.909L158.844 32.8799C159.531 34.4176 159.692 35.0619 161.37 34.9174L164.49 34.9525L161.119 38.5408H161.118Z" fill="url(#paint6_linear_1283_175286)"/>
<path d="M178.753 69.2789C182.013 70.1832 193.056 73.0879 199.951 72.9695L195.718 96.8575L196.055 100.754L182.254 100.692C182.254 100.692 178.368 91.6684 175.303 87.1698C174.418 85.871 175.076 84.3213 175.578 82.8308L174.888 82.3721C174.187 81.9054 173.883 81.0272 174.145 80.2262L177.506 69.9434C177.681 69.4254 178.227 69.1324 178.754 69.2789H178.753Z" fill="url(#paint7_linear_1283_175286)"/>
<path d="M181.147 98.6506L181.418 101.011C181.418 101.011 177.518 112.692 183.368 139.973C183.368 139.973 196.039 143.562 206.453 134.972C206.453 134.972 203.516 109.223 202.714 108.023C198.717 102.049 196.054 100.75 196.054 100.75L195.934 98.1719C195.934 98.1719 184.795 100.185 181.146 98.6496L181.147 98.6506Z" fill="url(#paint8_linear_1283_175286)"/>
<path d="M186.55 71.2011C186.501 71.1368 189.431 62.3555 189.431 62.3555L193.628 62.7359L195.267 72.6976C195.267 72.6976 188.69 74.0255 186.55 71.2001V71.2011Z" fill="url(#paint9_linear_1283_175286)"/>
<path d="M192.623 48.5126C192.343 48.6873 183.655 52.2775 185.521 61.2967C185.632 61.8297 185.987 62.2814 186.484 62.5032C187.759 63.0723 190.504 64.0459 193.786 63.7116C198.338 63.2489 201.32 55.3067 201.192 52.9962C201.066 50.6846 195.395 46.7853 192.621 48.5126H192.623Z" fill="url(#paint10_linear_1283_175286)"/>
<path d="M191.945 56.789C190.598 53.4256 189.346 50.4697 190.76 48.2204C192.838 44.9132 201.076 44.6643 205.353 49.1729C209.819 53.8792 205.574 60.1674 210.168 65.2712C213.757 69.2579 217.896 67.1401 222.916 70.1682C231.245 75.1938 235.331 90.3596 230.393 98.6823C222.321 112.287 189.971 107.883 184.953 96.5484C180.503 86.4934 198.271 72.5892 191.943 56.789H191.945Z" fill="url(#paint11_linear_1283_175286)"/>
<path opacity="0.39" d="M203.148 75.8145C203.122 75.7513 203.097 75.688 203.073 75.6238C202.133 73.1206 202.293 70.0904 203.561 66.3607C205.537 60.5513 205.481 58.6714 204.094 55.2899C204.053 55.1915 204.012 55.0922 203.969 54.9908L204.107 54.9336C204.147 55.0289 204.186 55.1233 204.224 55.2166C205.611 58.5991 205.68 60.5904 203.701 66.4089C202.444 70.1055 202.284 73.1025 203.211 75.5726C204.213 78.2364 206.954 80.3171 210.731 81.2676C212.378 81.6821 214.097 81.8899 215.761 82.0896C217.319 82.2773 218.93 82.471 220.485 82.8364C221.617 83.1024 223.264 83.5821 224.494 84.6802C225.718 85.7722 226.292 87.354 225.957 88.707L225.813 88.6719C226.136 87.3711 225.579 85.8485 224.395 84.7916C223.191 83.7166 221.568 83.2439 220.451 82.9819C218.905 82.6196 217.297 82.4259 215.743 82.2382C214.076 82.0374 212.352 81.8297 210.695 81.4131C206.96 80.4727 204.223 78.4392 203.147 75.8165L203.148 75.8145Z" fill="white"/>
<path opacity="0.39" d="M200.007 78.0315C199.901 77.7725 199.81 77.5105 199.736 77.2466C199.263 75.5613 199.477 73.2829 201.021 71.9922L201.116 72.1066C199.624 73.3542 199.419 75.5674 199.88 77.2064C200.475 79.3262 202.146 81.3075 204.585 82.787C206.193 83.7626 207.978 84.4682 209.705 85.1497C210.277 85.3755 210.868 85.6094 211.444 85.8492C213.981 86.9061 216.448 88.1798 218.776 89.6352C220.318 90.5987 221.831 91.7158 222.5 93.3469C222.522 93.4011 222.544 93.4563 222.564 93.5125C222.929 94.5051 222.814 95.7457 222.272 96.6711C221.854 97.3857 221.224 97.8424 220.499 97.9598L220.475 97.8133C221.155 97.7039 221.748 97.2713 222.143 96.5958C222.664 95.7066 222.774 94.5162 222.424 93.5637C221.804 91.8795 220.268 90.7443 218.697 89.7617C216.375 88.3103 213.915 87.0396 211.387 85.9868C210.812 85.7479 210.221 85.514 209.65 85.2882C207.917 84.6036 206.126 83.896 204.508 82.9144C202.339 81.5986 200.769 79.8873 200.007 78.0315Z" fill="white"/>
<path opacity="0.39" d="M198.596 80.5106C198.338 79.8813 198.201 79.1938 198.259 78.4561L198.408 78.4671C198.2 81.1108 200.692 83.1534 201.773 83.9081C202.986 84.7553 204.33 85.4649 205.631 86.1514C207.782 87.2866 210.005 88.4599 211.667 90.2776C212.519 91.207 213.062 92.1585 213.282 93.103C213.554 94.2683 213.32 95.4426 212.653 96.2446L212.539 96.1492C213.175 95.3824 213.399 94.2563 213.137 93.1361C212.922 92.2188 212.39 91.2883 211.557 90.377C209.912 88.5783 207.701 87.411 205.561 86.2829C204.256 85.5943 202.906 84.8817 201.687 84.0306C200.702 83.3431 199.255 82.1185 198.595 80.5106H198.596Z" fill="white"/>
<defs>
<linearGradient id="paint0_linear_1283_175286" x1="140.701" y1="-31.8588" x2="104.619" y2="304.91" gradientUnits="userSpaceOnUse">
<stop stop-color="#A77AF1"/>
<stop offset="1" stop-color="#4042E2"/>
</linearGradient>
<linearGradient id="paint1_linear_1283_175286" x1="199.877" y1="31.1107" x2="187.995" y2="67.5309" gradientUnits="userSpaceOnUse">
<stop stop-color="#FEBBBA"/>
<stop offset="1" stop-color="#FF928E"/>
</linearGradient>
<linearGradient id="paint2_linear_1283_175286" x1="197.158" y1="159.051" x2="221.76" y2="159.051" gradientUnits="userSpaceOnUse">
<stop stop-color="#FEBBBA"/>
<stop offset="1" stop-color="#FF928E"/>
</linearGradient>
<linearGradient id="paint3_linear_1283_175286" x1="230.974" y1="104.034" x2="218.791" y2="183.227" gradientUnits="userSpaceOnUse">
<stop stop-color="#09005D"/>
<stop offset="1" stop-color="#1A0F91"/>
</linearGradient>
<linearGradient id="paint4_linear_1283_175286" x1="205.194" y1="100.065" x2="193.011" y2="179.258" gradientUnits="userSpaceOnUse">
<stop stop-color="#09005D"/>
<stop offset="1" stop-color="#1A0F91"/>
</linearGradient>
<linearGradient id="paint5_linear_1283_175286" x1="182.23" y1="160.876" x2="196.476" y2="160.876" gradientUnits="userSpaceOnUse">
<stop stop-color="#FEBBBA"/>
<stop offset="1" stop-color="#FF928E"/>
</linearGradient>
<linearGradient id="paint6_linear_1283_175286" x1="151.54" y1="53.9897" x2="179.431" y2="53.9897" gradientUnits="userSpaceOnUse">
<stop stop-color="#FEBBBA"/>
<stop offset="1" stop-color="#FF928E"/>
</linearGradient>
<linearGradient id="paint7_linear_1283_175286" x1="300.863" y1="38.353" x2="242.47" y2="62.3082" gradientUnits="userSpaceOnUse">
<stop stop-color="#FF928E"/>
<stop offset="1" stop-color="#FE7062"/>
</linearGradient>
<linearGradient id="paint8_linear_1283_175286" x1="169.652" y1="96.5178" x2="215.34" y2="148.044" gradientUnits="userSpaceOnUse">
<stop stop-color="#E1473D"/>
<stop offset="1" stop-color="#E9605A"/>
</linearGradient>
<linearGradient id="paint9_linear_1283_175286" x1="186.55" y1="67.6831" x2="195.268" y2="67.6831" gradientUnits="userSpaceOnUse">
<stop stop-color="#FEBBBA"/>
<stop offset="1" stop-color="#FF928E"/>
</linearGradient>
<linearGradient id="paint10_linear_1283_175286" x1="200.404" y1="56.4218" x2="263.861" y2="60.7367" gradientUnits="userSpaceOnUse">
<stop stop-color="#FEBBBA"/>
<stop offset="1" stop-color="#FF928E"/>
</linearGradient>
<linearGradient id="paint11_linear_1283_175286" x1="232.848" y1="107.062" x2="189.394" y2="68.291" gradientUnits="userSpaceOnUse">
<stop stop-color="#09005D"/>
<stop offset="1" stop-color="#1A0F91"/>
</linearGradient>
</defs>
</svg>
