<svg width="84" height="24" viewBox="0 0 84 24" fill="none" xmlns="http://www.w3.org/2000/svg">
<path d="M19.5 15H24.5C24.7761 15 25 15.2239 25 15.5C25 15.7455 24.8231 15.9496 24.5899 15.9919L24.5 16H19.5C19.2239 16 19 15.7761 19 15.5C19 15.2545 19.1769 15.0504 19.4101 15.0081L19.5 15H24.5H19.5ZM17.5 11H26.5C26.7761 11 27 11.2239 27 11.5C27 11.7455 26.8231 11.9496 26.5899 11.9919L26.5 12H17.5C17.2239 12 17 11.7761 17 11.5C17 11.2545 17.1769 11.0504 17.4101 11.0081L17.5 11H26.5H17.5ZM15.5 7H28.5C28.7761 7 29 7.22386 29 7.5C29 7.74546 28.8231 7.94961 28.5899 7.99194L28.5 8H15.5C15.2239 8 15 7.77614 15 7.5C15 7.25454 15.1769 7.05039 15.4101 7.00806L15.5 7H28.5H15.5Z" fill="#4B0EAE"/>
<path d="M44.8186 9.57812H41.1545V12.5244H44.5314V13.8984H41.1545V18H39.5275V8.19727H44.8186V9.57812ZM47.4706 9.53027C47.2109 9.53027 46.9876 9.44596 46.8007 9.27734C46.6184 9.10872 46.5273 8.89453 46.5273 8.63477C46.5273 8.375 46.6184 8.15853 46.8007 7.98535C46.9876 7.81217 47.2109 7.72559 47.4706 7.72559C47.7395 7.72559 47.9674 7.81217 48.1542 7.98535C48.3411 8.15853 48.4345 8.375 48.4345 8.63477C48.4345 8.88086 48.3411 9.09277 48.1542 9.27051C47.9674 9.44368 47.7395 9.53027 47.4706 9.53027ZM48.2568 18H46.6708V11H48.2568V18ZM52.2077 18H50.6149V7.63672H52.2077V18ZM58.2504 17.9248C57.9405 18.0798 57.5326 18.1572 57.0267 18.1572C55.6686 18.1572 54.9896 17.5055 54.9896 16.2021V12.2441H53.8207V11H54.9896V9.37988L56.5755 8.92871V11H58.2504V12.2441H56.5755V15.7441C56.5755 16.1589 56.6507 16.4551 56.8011 16.6328C56.9515 16.8105 57.2022 16.8994 57.5531 16.8994C57.822 16.8994 58.0544 16.8219 58.2504 16.667V17.9248ZM65.7423 14.9307H60.9708C60.989 15.5778 61.1873 16.0768 61.5655 16.4277C61.9483 16.7786 62.4724 16.9541 63.1378 16.9541C63.8852 16.9541 64.571 16.7308 65.1954 16.2842V17.5625C64.5574 17.9635 63.7143 18.1641 62.6661 18.1641C61.6361 18.1641 60.8272 17.8473 60.2393 17.2139C59.656 16.5758 59.3643 15.6803 59.3643 14.5273C59.3643 13.4382 59.6856 12.5518 60.3282 11.8682C60.9753 11.18 61.7774 10.8359 62.7345 10.8359C63.6915 10.8359 64.432 11.1436 64.9561 11.7588C65.4802 12.374 65.7423 13.2285 65.7423 14.3223V14.9307ZM64.211 13.8096C64.2065 13.2399 64.072 12.7979 63.8077 12.4834C63.5434 12.1644 63.1788 12.0049 62.7139 12.0049C62.2582 12.0049 61.8708 12.1712 61.5518 12.5039C61.2374 12.8366 61.0437 13.2718 60.9708 13.8096H64.211ZM71.5936 12.5107C71.4021 12.3604 71.1264 12.2852 70.7664 12.2852C70.297 12.2852 69.9051 12.4971 69.5906 12.9209C69.2762 13.3447 69.1189 13.9212 69.1189 14.6504V18H67.533V11H69.1189V12.4424H69.1463C69.3012 11.9502 69.5382 11.5674 69.8572 11.2939C70.1808 11.016 70.5408 10.877 70.9373 10.877C71.2244 10.877 71.4432 10.9202 71.5936 11.0068V12.5107Z" fill="#4B0EAE"/>
</svg>
