<svg width="38" height="38" viewBox="0 0 38 38" fill="none" xmlns="http://www.w3.org/2000/svg">
<path d="M10.2479 4.90211C12.5684 3.56337 15.8453 2.884 19.2741 3.02123C22.6954 3.15816 26.0971 4.10178 28.6649 5.8192C29.3535 6.27976 30.2851 6.09488 30.7457 5.40627C31.2062 4.71767 31.0213 3.78609 30.3327 3.32553C27.2064 1.23455 23.2356 0.177379 19.3941 0.023632C15.5602 -0.129811 11.6839 0.610248 8.74874 2.30353C8.03116 2.7175 7.78504 3.63481 8.19901 4.35238C8.61298 5.06996 9.53028 5.31609 10.2479 4.90211ZM20.7078 5.79479C19.8874 5.6796 19.129 6.25127 19.0138 7.07165C18.8986 7.89203 19.4703 8.65045 20.2906 8.76564C25.981 9.56462 29.3605 12.7953 31.3949 16.111C33.4535 19.4661 34.0961 22.8624 34.2326 23.7347C34.3608 24.5531 35.1282 25.1127 35.9466 24.9846C36.7651 24.8564 37.3247 24.089 37.1965 23.2706C37.0317 22.2177 36.306 18.3789 33.952 14.5421C31.5737 10.666 27.4964 6.74797 20.7078 5.79479ZM13.8296 16.2981C10.1701 19.2451 8.00859 25.622 11.9793 33.8488C12.3394 34.5948 12.0265 35.4916 11.2804 35.8517C10.5343 36.2118 9.63759 35.8989 9.2775 35.1528C4.83061 25.9394 6.98441 17.9588 11.948 13.9616C14.4037 11.984 17.5102 11.0363 20.6578 11.4876C23.8184 11.9407 26.8794 13.7824 29.2888 17.1212C29.7736 17.793 29.622 18.7306 28.9502 19.2154C28.2784 19.7001 27.3409 19.5485 26.8561 18.8768C24.8588 16.109 22.4837 14.7801 20.2321 14.4572C17.9674 14.1326 15.6854 14.8037 13.8296 16.2981ZM18.4776 35.8403C16.0048 30.7567 15.288 26.5083 15.7556 23.7362C15.9869 22.3651 16.4864 21.4629 17.0832 20.9342C17.6527 20.4295 18.456 20.1343 19.6085 20.2435C21.1602 20.3907 21.8477 20.8888 22.2656 21.4446C22.7673 22.1118 23.0491 23.0697 23.3714 24.5162C23.4108 24.6929 23.4502 24.8745 23.4906 25.0607C24.0789 27.77 24.8724 31.4252 28.5885 34.254C29.2476 34.7557 30.1888 34.6282 30.6905 33.969C31.1923 33.3098 31.0647 32.3687 30.4056 31.8669C27.5901 29.7236 27.0058 27.0699 26.4015 24.3247L26.401 24.3225C26.3675 24.1701 26.3337 24.0168 26.2996 23.8638C25.9919 22.4826 25.6084 20.8985 24.6635 19.6418C23.6348 18.2736 22.0947 17.4658 19.8916 17.2569C18.0379 17.0812 16.3743 17.5541 15.0936 18.6888C13.8401 19.7995 13.1059 21.4082 12.7974 23.2372C12.1853 26.8655 13.1641 31.7752 15.7798 37.1526C16.1422 37.8976 17.0399 38.2077 17.7849 37.8454C18.5298 37.483 18.84 36.5853 18.4776 35.8403ZM6.60809 5.95938C7.16765 6.57027 7.12603 7.51911 6.51513 8.07866C4.68301 9.75681 3.54367 11.6187 3.19092 12.241C2.78238 12.9617 1.86696 13.2147 1.14628 12.8062C0.425591 12.3977 0.172548 11.4822 0.581089 10.7616C1.01175 10.0019 2.33266 7.84137 4.48881 5.86642C5.0997 5.30687 6.04854 5.34849 6.60809 5.95938ZM31.4743 23.4725C31.3209 22.6584 30.5366 22.1228 29.7225 22.2762C28.9084 22.4296 28.3728 23.2139 28.5262 24.028C29.0858 26.998 30.4589 29.4803 32.9619 31.0264C33.6667 31.4618 34.591 31.2433 35.0264 30.5385C35.4617 29.8337 35.2433 28.9094 34.5385 28.4741C32.9339 27.4829 31.922 25.8487 31.4743 23.4725ZM19.1432 23.5013C19.9688 23.4321 20.6941 24.0451 20.7634 24.8707C21.2157 30.262 23.9061 33.6679 24.6426 34.5061C25.1895 35.1283 25.1284 36.0761 24.5061 36.623C23.8839 37.1698 22.9361 37.1087 22.3892 36.4865C21.4247 35.389 18.3004 31.397 17.7739 25.1215C17.7046 24.2959 18.3177 23.5706 19.1432 23.5013ZM15.0943 9.23407C15.8543 8.90443 16.2032 8.02109 15.8736 7.26107C15.544 6.50105 14.6606 6.15215 13.9006 6.48178C7.03566 9.45923 3.89121 14.5302 2.53264 19.0961C1.19021 23.6077 1.58453 27.6231 1.72699 28.7012C1.83551 29.5225 2.58926 30.1003 3.41055 29.9918C4.23184 29.8833 4.80966 29.1296 4.70114 28.3083C4.58488 27.4284 4.23637 23.8895 5.40805 19.9517C6.56359 16.0682 9.1902 11.7948 15.0943 9.23407Z" fill="#3BB264"/>
</svg>
