<svg width="14" height="14" viewBox="0 0 14 14" fill="none" xmlns="http://www.w3.org/2000/svg">
<g clip-path="url(#clip0_155_89227)">
<rect width="14" height="14" fill="white" fill-opacity="0.01"/>
<g clip-path="url(#clip1_155_89227)">
<path d="M11.6886 9.83242C13.177 8.50417 13.9995 6.99917 13.9995 6.99917C13.9995 6.99917 11.3745 2.18667 6.99951 2.18667C6.15916 2.18957 5.32831 2.36467 4.55826 2.70117L5.23201 3.3758C5.79852 3.16943 6.39659 3.06314 6.99951 3.06167C8.85451 3.06167 10.3936 4.08367 11.5215 5.21155C12.0643 5.75728 12.5509 6.35616 12.974 6.99917C12.9233 7.0753 12.8673 7.1593 12.8034 7.25117C12.5103 7.67117 12.0771 8.23117 11.5215 8.7868C11.3771 8.93117 11.2266 9.0738 11.0691 9.21205L11.6886 9.83242Z" fill="#6C757D"/>
<path d="M9.88439 8.02817C10.0796 7.48203 10.1158 6.89168 9.98866 6.32579C9.86151 5.7599 9.57629 5.24176 9.16617 4.83164C8.75605 4.42152 8.2379 4.1363 7.67202 4.00915C7.10613 3.882 6.51577 3.91816 5.96964 4.11342L6.68976 4.83355C7.02603 4.78542 7.36889 4.81626 7.69117 4.92364C8.01345 5.03102 8.3063 5.21198 8.5465 5.45218C8.78671 5.69239 8.96767 5.98523 9.07504 6.30751C9.18242 6.62979 9.21327 6.97265 9.16514 7.30892L9.88439 8.02817ZM7.30926 9.1648L8.02851 9.88405C7.48237 10.0793 6.89202 10.1155 6.32613 9.98832C5.76024 9.86117 5.2421 9.57595 4.83198 9.16583C4.42186 8.75571 4.13663 8.23757 4.00949 7.67168C3.88234 7.10579 3.9185 6.51544 4.11376 5.9693L4.83389 6.68942C4.78576 7.02569 4.8166 7.36855 4.92398 7.69083C5.03136 8.01312 5.21232 8.30596 5.45252 8.54616C5.69272 8.78637 5.98557 8.96733 6.30785 9.07471C6.63013 9.18208 6.97299 9.21293 7.30926 9.1648Z" fill="#6C757D"/>
<path d="M2.93076 4.78542C2.77326 4.92542 2.62189 5.06717 2.47751 5.21155C1.9347 5.75728 1.44809 6.35616 1.02501 6.99917L1.19564 7.25117C1.48876 7.67117 1.92189 8.23117 2.47751 8.7868C3.60539 9.91467 5.14539 10.9367 6.99951 10.9367C7.62601 10.9367 8.21576 10.8203 8.76701 10.6217L9.44076 11.2972C8.67071 11.6337 7.83987 11.8088 6.99951 11.8117C2.62451 11.8117 -0.000488281 6.99917 -0.000488281 6.99917C-0.000488281 6.99917 0.821137 5.4933 2.31039 4.16592L2.92989 4.7863L2.93076 4.78542ZM11.9398 12.5589L1.43976 2.05892L2.05926 1.43942L12.5593 11.9394L11.9398 12.5589Z" fill="#6C757D"/>
</g>
</g>
<defs>
<clipPath id="clip0_155_89227">
<rect width="14" height="14" fill="white"/>
</clipPath>
<clipPath id="clip1_155_89227">
<rect width="14" height="14" fill="white"/>
</clipPath>
</defs>
</svg>
