<svg width="32" height="32" viewBox="0 0 32 32" fill="none" xmlns="http://www.w3.org/2000/svg">
<g clip-path="url(#clip0_1883_93789)">
<mask id="mask0_1883_93789" style="mask-type:luminance" maskUnits="userSpaceOnUse" x="6" y="6" width="20" height="20">
<path d="M10.0886 10.2157L10.1464 10.1464C10.32 9.97288 10.5894 9.9536 10.7843 10.0886L10.8536 10.1464L16 15.293L21.1464 10.1464C21.32 9.97288 21.5894 9.9536 21.7843 10.0886L21.8536 10.1464C22.0271 10.32 22.0464 10.5894 21.9114 10.7843L21.8536 10.8536L16.707 16L21.8536 21.1464C22.0271 21.32 22.0464 21.5894 21.9114 21.7843L21.8536 21.8536C21.68 22.0271 21.4106 22.0464 21.2157 21.9114L21.1464 21.8536L16 16.707L10.8536 21.8536C10.68 22.0271 10.4106 22.0464 10.2157 21.9114L10.1464 21.8536C9.97288 21.68 9.9536 21.4106 10.0886 21.2157L10.1464 21.1464L15.293 16L10.1464 10.8536C9.97288 10.68 9.9536 10.4106 10.0886 10.2157L10.1464 10.1464L10.0886 10.2157Z" fill="white"/>
</mask>
<g mask="url(#mask0_1883_93789)">
<rect x="6" y="6" width="20" height="20" fill="#CC4A31"/>
</g>
</g>
<defs>
<clipPath id="clip0_1883_93789">
<rect width="32" height="32" rx="4" fill="white"/>
</clipPath>
</defs>
</svg>
