<svg width="21" height="21" viewBox="0 0 21 21" fill="none" xmlns="http://www.w3.org/2000/svg">
<path d="M10.9996 -0.000976562C16.5233 -0.000976562 21.0011 4.47687 21.0011 10.0006C21.0011 15.5243 16.5233 20.0021 10.9996 20.0021C5.47589 20.0021 0.998047 15.5243 0.998047 10.0006C0.998047 4.47687 5.47589 -0.000976562 10.9996 -0.000976562ZM10.9958 8.24961C10.483 8.24994 10.0605 8.63626 10.0031 9.13363L9.99644 9.25026L10 14.7519L10.0068 14.8685C10.0649 15.3658 10.4879 15.7515 11.0007 15.7512C11.5135 15.7509 11.936 15.3645 11.9934 14.8672L12 14.7505L11.9964 9.24895L11.9896 9.13233C11.9316 8.63503 11.5086 8.24927 10.9958 8.24961ZM11 4.50006C10.3089 4.50006 9.74853 5.06038 9.74853 5.75158C9.74853 6.44277 10.3089 7.0031 11 7.0031C11.6912 7.0031 12.2516 6.44277 12.2516 5.75158C12.2516 5.06038 11.6912 4.50006 11 4.50006Z" fill="#CC4A31"/>
</svg>
