<svg width="732" height="58" viewBox="0 0 732 58" fill="none" xmlns="http://www.w3.org/2000/svg">
<path d="M10 9C10.4142 9 10.75 9.33579 10.75 9.75V13.25H14.25C14.6642 13.25 15 13.5858 15 14C15 14.4142 14.6642 14.75 14.25 14.75H10.75V18.25C10.75 18.6642 10.4142 19 10 19C9.58579 19 9.25 18.6642 9.25 18.25V14.75H5.75C5.33579 14.75 5 14.4142 5 14C5 13.5858 5.33579 13.25 5.75 13.25H9.25V9.75C9.25 9.33579 9.58579 9 10 9ZM1 8.25C1 6.45507 2.45507 5 4.25 5H15.75C17.5449 5 19 6.45507 19 8.25V19.75C19 21.5449 17.5449 23 15.75 23H4.25C2.45507 23 1 21.5449 1 19.75V8.25ZM4.25 6.5C3.2835 6.5 2.5 7.2835 2.5 8.25V19.75C2.5 20.7165 3.2835 21.5 4.25 21.5H15.75C16.7165 21.5 17.5 20.7165 17.5 19.75V8.25C17.5 7.2835 16.7165 6.5 15.75 6.5H4.25Z" fill="white"/>
<path d="M1 38.25C1 36.4551 2.45507 35 4.25 35H15.75C17.5449 35 19 36.4551 19 38.25V49.75C19 51.5449 17.5449 53 15.75 53H4.25C2.45507 53 1 51.5449 1 49.75V38.25ZM10.75 39.75C10.75 39.3358 10.4142 39 10 39C9.58579 39 9.25 39.3358 9.25 39.75V43.25H5.75C5.33579 43.25 5 43.5858 5 44C5 44.4142 5.33579 44.75 5.75 44.75H9.25V48.25C9.25 48.6642 9.58579 49 10 49C10.4142 49 10.75 48.6642 10.75 48.25V44.75H14.25C14.6642 44.75 15 44.4142 15 44C15 43.5858 14.6642 43.25 14.25 43.25H10.75V39.75Z" fill="white"/>
<path d="M47 9.5C47 8.11929 45.8807 7 44.5 7H35.5C34.1193 7 33 8.11929 33 9.5V18.5C33 19.8807 34.1193 21 35.5 21H39.5997C39.4378 20.6832 39.3056 20.3486 39.207 20H38V17H39.207C39.3056 16.6514 39.4378 16.3168 39.5997 16H38V12H42V13.5997C42.3168 13.4378 42.6514 13.3056 43 13.207V12H46V13.207C46.3486 13.3056 46.6832 13.4378 47 13.5997V9.5ZM34 18.5V17H37V20H35.5L35.3555 19.9931C34.5949 19.9204 34 19.2797 34 18.5ZM42 8V11H38V8H42ZM43 8H44.5L44.6445 8.00687C45.4051 8.07955 46 8.7203 46 9.5V11H43V8ZM37 8V11H34V9.5L34.0069 9.35554C34.0796 8.59489 34.7203 8 35.5 8H37ZM37 12V16H34V12H37ZM49 18.5C49 20.9853 46.9853 23 44.5 23C42.0147 23 40 20.9853 40 18.5C40 16.0147 42.0147 14 44.5 14C46.9853 14 49 16.0147 49 18.5ZM45 16.5C45 16.2239 44.7761 16 44.5 16C44.2239 16 44 16.2239 44 16.5V18H42.5C42.2239 18 42 18.2239 42 18.5C42 18.7761 42.2239 19 42.5 19H44V20.5C44 20.7761 44.2239 21 44.5 21C44.7761 21 45 20.7761 45 20.5V19H46.5C46.7761 19 47 18.7761 47 18.5C47 18.2239 46.7761 18 46.5 18H45V16.5Z" fill="#4B0EAE"/>
<path d="M43 41H47V39.5C47 38.1193 45.8807 37 44.5 37H43V41ZM37 46V42H33V46H37ZM39.5997 46C40.1266 44.9692 40.9692 44.1266 42 43.5997V42H38V46H39.5997ZM44.5 43C45.4002 43 46.2499 43.2163 47 43.5997V42H43V43.207C43.4768 43.0722 43.98 43 44.5 43ZM39 48.5C39 47.98 39.0722 47.4768 39.207 47H38V51H39.5997C39.2163 50.2499 39 49.4002 39 48.5ZM37 47H33V48.5C33 49.8807 34.1193 51 35.5 51H37V47ZM42 41V37H38V41H42ZM37 37V41H33V39.5C33 38.1193 34.1193 37 35.5 37H37ZM49 48.5C49 50.9853 46.9853 53 44.5 53C42.0147 53 40 50.9853 40 48.5C40 46.0147 42.0147 44 44.5 44C46.9853 44 49 46.0147 49 48.5ZM45 46.5C45 46.2239 44.7761 46 44.5 46C44.2239 46 44 46.2239 44 46.5V48H42.5C42.2239 48 42 48.2239 42 48.5C42 48.7761 42.2239 49 42.5 49H44V50.5C44 50.7761 44.2239 51 44.5 51C44.7761 51 45 50.7761 45 50.5V49H46.5C46.7761 49 47 48.7761 47 48.5C47 48.2239 46.7761 48 46.5 48H45V46.5Z" fill="#4B0EAE"/>
<path d="M70 9C70.4142 9 70.75 9.33579 70.75 9.75V13.25H74.25C74.6642 13.25 75 13.5858 75 14C75 14.4142 74.6642 14.75 74.25 14.75H70.75V18.25C70.75 18.6642 70.4142 19 70 19C69.5858 19 69.25 18.6642 69.25 18.25V14.75H65.75C65.3358 14.75 65 14.4142 65 14C65 13.5858 65.3358 13.25 65.75 13.25H69.25V9.75C69.25 9.33579 69.5858 9 70 9ZM61 8.25C61 6.45507 62.4551 5 64.25 5H75.75C77.5449 5 79 6.45507 79 8.25V19.75C79 21.5449 77.5449 23 75.75 23H64.25C62.4551 23 61 21.5449 61 19.75V8.25ZM64.25 6.5C63.2835 6.5 62.5 7.2835 62.5 8.25V19.75C62.5 20.7165 63.2835 21.5 64.25 21.5H75.75C76.7165 21.5 77.5 20.7165 77.5 19.75V8.25C77.5 7.2835 76.7165 6.5 75.75 6.5H64.25Z" fill="#4B0EAE"/>
<path d="M61 38.25C61 36.4551 62.4551 35 64.25 35H75.75C77.5449 35 79 36.4551 79 38.25V49.75C79 51.5449 77.5449 53 75.75 53H64.25C62.4551 53 61 51.5449 61 49.75V38.25ZM70.75 39.75C70.75 39.3358 70.4142 39 70 39C69.5858 39 69.25 39.3358 69.25 39.75V43.25H65.75C65.3358 43.25 65 43.5858 65 44C65 44.4142 65.3358 44.75 65.75 44.75H69.25V48.25C69.25 48.6642 69.5858 49 70 49C70.4142 49 70.75 48.6642 70.75 48.25V44.75H74.25C74.6642 44.75 75 44.4142 75 44C75 43.5858 74.6642 43.25 74.25 43.25H70.75V39.75Z" fill="#4B0EAE"/>
<path d="M100 9C100.414 9 100.75 9.33579 100.75 9.75V13.25H104.25C104.664 13.25 105 13.5858 105 14C105 14.4142 104.664 14.75 104.25 14.75H100.75V18.25C100.75 18.6642 100.414 19 100 19C99.5858 19 99.25 18.6642 99.25 18.25V14.75H95.75C95.3358 14.75 95 14.4142 95 14C95 13.5858 95.3358 13.25 95.75 13.25H99.25V9.75C99.25 9.33579 99.5858 9 100 9ZM91 8.25C91 6.45507 92.4551 5 94.25 5H105.75C107.545 5 109 6.45507 109 8.25V19.75C109 21.5449 107.545 23 105.75 23H94.25C92.4551 23 91 21.5449 91 19.75V8.25ZM94.25 6.5C93.2835 6.5 92.5 7.2835 92.5 8.25V19.75C92.5 20.7165 93.2835 21.5 94.25 21.5H105.75C106.716 21.5 107.5 20.7165 107.5 19.75V8.25C107.5 7.2835 106.716 6.5 105.75 6.5H94.25Z" fill="#6F7581"/>
<path d="M91 38.25C91 36.4551 92.4551 35 94.25 35H105.75C107.545 35 109 36.4551 109 38.25V49.75C109 51.5449 107.545 53 105.75 53H94.25C92.4551 53 91 51.5449 91 49.75V38.25ZM100.75 39.75C100.75 39.3358 100.414 39 100 39C99.5858 39 99.25 39.3358 99.25 39.75V43.25H95.75C95.3358 43.25 95 43.5858 95 44C95 44.4142 95.3358 44.75 95.75 44.75H99.25V48.25C99.25 48.6642 99.5858 49 100 49C100.414 49 100.75 48.6642 100.75 48.25V44.75H104.25C104.664 44.75 105 44.4142 105 44C105 43.5858 104.664 43.25 104.25 43.25H100.75V39.75Z" fill="#6F7581"/>
<path d="M133 13C133 14.6569 131.657 16 130 16C128.343 16 127 14.6569 127 13C127 11.3431 128.343 10 130 10C131.657 10 133 11.3431 133 13ZM132 13C132 11.8954 131.105 11 130 11C128.895 11 128 11.8954 128 13C128 14.1046 128.895 15 130 15C131.105 15 132 14.1046 132 13ZM134.95 17.955C137.683 15.2201 137.683 10.786 134.95 8.05115C132.216 5.31628 127.784 5.31628 125.05 8.05115C122.317 10.786 122.317 15.2201 125.05 17.955L126.571 19.4538L128.614 21.4389L128.747 21.5567C129.522 22.1847 130.656 22.1455 131.386 21.4391L133.822 19.0691L134.95 17.955ZM125.755 8.75619C128.099 6.41072 131.901 6.41072 134.245 8.75619C136.529 11.0415 136.588 14.7104 134.421 17.0667L134.245 17.2499L132.924 18.5539L130.693 20.7225L130.6 20.8021C130.246 21.0699 129.754 21.0698 129.4 20.802L129.307 20.7224L126.326 17.817L125.755 17.2499L125.579 17.0667C123.412 14.7104 123.471 11.0415 125.755 8.75619Z" fill="#4B0EAE"/>
<path d="M134.95 47.955C137.683 45.2201 137.683 40.786 134.95 38.0511C132.216 35.3163 127.784 35.3163 125.05 38.0511C122.317 40.786 122.317 45.2201 125.05 47.955L126.571 49.4538L128.614 51.4389L128.747 51.5567C129.522 52.1847 130.656 52.1455 131.386 51.4391L133.822 49.0691L134.95 47.955ZM130 46C128.343 46 127 44.6569 127 43C127 41.3431 128.343 40 130 40C131.657 40 133 41.3431 133 43C133 44.6569 131.657 46 130 46Z" fill="#4B0EAE"/>
<path d="M157.5 17H162.5C162.776 17 163 17.2239 163 17.5C163 17.7455 162.823 17.9496 162.59 17.9919L162.5 18H157.5C157.224 18 157 17.7761 157 17.5C157 17.2545 157.177 17.0504 157.41 17.0081L157.5 17H162.5H157.5ZM155.5 13H164.5C164.776 13 165 13.2239 165 13.5C165 13.7455 164.823 13.9496 164.59 13.9919L164.5 14H155.5C155.224 14 155 13.7761 155 13.5C155 13.2545 155.177 13.0504 155.41 13.0081L155.5 13H164.5H155.5ZM153.5 9H166.5C166.776 9 167 9.22386 167 9.5C167 9.74546 166.823 9.94961 166.59 9.99194L166.5 10H153.5C153.224 10 153 9.77614 153 9.5C153 9.25454 153.177 9.05039 153.41 9.00806L153.5 9H166.5H153.5Z" fill="#4B0EAE"/>
<path d="M162.25 47.5C162.664 47.5 163 47.8358 163 48.25C163 48.6642 162.664 49 162.25 49H157.75C157.336 49 157 48.6642 157 48.25C157 47.8358 157.336 47.5 157.75 47.5H162.25ZM164.25 43.25C164.664 43.25 165 43.5858 165 44C165 44.4142 164.664 44.75 164.25 44.75H155.75C155.336 44.75 155 44.4142 155 44C155 43.5858 155.336 43.25 155.75 43.25H164.25ZM166.25 39C166.664 39 167 39.3358 167 39.75C167 40.1642 166.664 40.5 166.25 40.5H153.75C153.336 40.5 153 40.1642 153 39.75C153 39.3358 153.336 39 153.75 39H166.25Z" fill="#4B0EAE"/>
<path d="M195.75 2C196.993 2 198 3.00736 198 4.25V19.75C198 20.9926 196.993 22 195.75 22H188.25C187.007 22 186 20.9926 186 19.75V4.25C186 3.00736 187.007 2 188.25 2H195.75ZM195.75 3.5H188.25C187.836 3.5 187.5 3.83579 187.5 4.25V19.75C187.5 20.1642 187.836 20.5 188.25 20.5H195.75C196.164 20.5 196.5 20.1642 196.5 19.75V4.25C196.5 3.83579 196.164 3.5 195.75 3.5ZM193.249 17.5C193.663 17.4994 193.999 17.8347 194 18.2489C194.001 18.6631 193.665 18.9994 193.251 19L190.751 19.0038C190.337 19.0044 190.001 18.6691 190 18.2549C189.999 17.8407 190.335 17.5044 190.749 17.5038L193.249 17.5ZM194.5 8.99862C194.745 8.99862 194.95 9.1755 194.992 9.40874L195 9.49862V15.5013C195 15.7467 194.823 15.9509 194.59 15.9932L194.5 16.0013H189.5C189.255 16.0013 189.05 15.8244 189.008 15.5912L189 15.5013V9.49862C189 9.25316 189.177 9.04901 189.41 9.00668L189.5 8.99862H194.5ZM194.5 5C194.745 5 194.95 5.17688 194.992 5.41012L195 5.5V7.50459C195 7.75005 194.823 7.9542 194.59 7.99654L194.5 8.00459H189.5C189.255 8.00459 189.05 7.82772 189.008 7.59447L189 7.50459V5.5C189 5.25454 189.177 5.05039 189.41 5.00806L189.5 5H194.5Z" fill="#4B0EAE"/>
<path d="M195.75 36C196.993 36 198 37.0074 198 38.25V53.75C198 54.9926 196.993 56 195.75 56H188.25C187.007 56 186 54.9926 186 53.75V38.25C186 37.0074 187.007 36 188.25 36H195.75ZM193.25 52H190.75C190.336 52 190 52.3358 190 52.75C190 53.1297 190.282 53.4435 190.648 53.4932L190.75 53.5H193.25C193.664 53.5 194 53.1642 194 52.75C194 52.3358 193.664 52 193.25 52ZM194.5 42.9986H189.5C189.224 42.9986 189 43.2225 189 43.4986V49.4997C189 49.7758 189.224 49.9997 189.5 49.9997H194.5C194.776 49.9997 195 49.7758 195 49.4997V43.4986C195 43.2225 194.776 42.9986 194.5 42.9986ZM194.5 39H189.5C189.224 39 189 39.2239 189 39.5V41.4967C189 41.7729 189.224 41.9967 189.5 41.9967H194.5C194.776 41.9967 195 41.7729 195 41.4967V39.5C195 39.2239 194.776 39 194.5 39Z" fill="#4B0EAE"/>
<path d="M229.245 4.81755C230.332 3.73074 232.094 3.73074 233.181 4.81755C234.222 5.85907 234.266 7.52075 233.311 8.61395L233.181 8.75322L223.575 18.359C223.37 18.5641 223.123 18.7217 222.852 18.8215L222.687 18.8744L218.632 19.9803C218.286 20.0748 217.965 19.7862 218.003 19.4457L218.018 19.3663L219.124 15.3113C219.2 15.0315 219.336 14.7723 219.522 14.5513L219.639 14.4234L229.245 4.81755ZM228.385 7.09244L220.346 15.1305C220.254 15.2228 220.181 15.3319 220.131 15.4516L220.089 15.5745L219.212 18.7852L222.424 17.9096C222.508 17.8867 222.588 17.853 222.663 17.8097L222.77 17.7377L222.868 17.6519L230.906 9.61344L228.385 7.09244ZM232.474 5.52465C231.816 4.86705 230.773 4.83052 230.072 5.41505L229.952 5.52465L229.092 6.38544L231.613 8.90644L232.474 8.04612C233.131 7.38852 233.168 6.34503 232.583 5.64456L232.474 5.52465Z" fill="#1077DA"/>
<path d="M227.677 40.3844L231.613 44.3204L223.575 52.359C223.37 52.5641 223.123 52.7217 222.852 52.8215L222.687 52.8744L218.632 53.9803C218.286 54.0748 217.965 53.7862 218.003 53.4457L218.018 53.3663L219.124 49.3113C219.2 49.0315 219.336 48.7723 219.522 48.5513L219.639 48.4234L227.677 40.3844ZM229.245 38.8175C230.332 37.7307 232.094 37.7307 233.181 38.8175C234.222 39.8591 234.266 41.5208 233.311 42.614L233.181 42.7532L232.32 43.6134L228.384 39.6774L229.245 38.8175Z" fill="#1077DA"/>
<path d="M261.5 6C261.5 5.17157 260.828 4.5 260 4.5C259.172 4.5 258.5 5.17157 258.5 6H257.5C257.5 4.61929 258.619 3.5 260 3.5C261.381 3.5 262.5 4.61929 262.5 6H267C267.276 6 267.5 6.22386 267.5 6.5C267.5 6.77614 267.276 7 267 7H266.446L265.15 18.2292C265.033 19.2384 264.179 20 263.163 20H256.837C255.821 20 254.967 19.2384 254.85 18.2292L253.553 7H253C252.755 7 252.55 6.82312 252.508 6.58988L252.5 6.5C252.5 6.22386 252.724 6 253 6H261.5ZM265.438 7H254.561L255.843 18.1146C255.902 18.6192 256.329 19 256.837 19H263.163C263.671 19 264.098 18.6192 264.157 18.1146L265.438 7ZM258.5 9.5C258.745 9.5 258.95 9.65477 258.992 9.85886L259 9.9375V16.0625C259 16.3041 258.776 16.5 258.5 16.5C258.255 16.5 258.05 16.3452 258.008 16.1411L258 16.0625V9.9375C258 9.69588 258.224 9.5 258.5 9.5ZM261.5 9.5C261.745 9.5 261.95 9.65477 261.992 9.85886L262 9.9375V16.0625C262 16.3041 261.776 16.5 261.5 16.5C261.255 16.5 261.05 16.3452 261.008 16.1411L261 16.0625V9.9375C261 9.69588 261.224 9.5 261.5 9.5Z" fill="#CC4A31"/>
<path d="M260 37.25C261.435 37.25 262.613 38.3485 262.739 39.7502L267 39.75C267.414 39.75 267.75 40.0858 267.75 40.5C267.75 40.8797 267.468 41.1935 267.102 41.2432L267 41.25H266.417L265.15 52.2292C265.033 53.2384 264.179 54 263.163 54H256.837C255.821 54 254.967 53.2384 254.85 52.2292L253.582 41.25H253C252.62 41.25 252.307 40.9678 252.257 40.6018L252.25 40.5C252.25 40.1203 252.532 39.8065 252.898 39.7568L253 39.75L257.261 39.7502C257.387 38.3485 258.565 37.25 260 37.25ZM258.5 43.5C258.255 43.5 258.05 43.6548 258.008 43.8589L258 43.9375V50.0625L258.008 50.1411C258.05 50.3452 258.255 50.5 258.5 50.5C258.745 50.5 258.95 50.3452 258.992 50.1411L259 50.0625V43.9375L258.992 43.8589C258.95 43.6548 258.745 43.5 258.5 43.5ZM261.5 43.5C261.255 43.5 261.05 43.6548 261.008 43.8589L261 43.9375V50.0625L261.008 50.1411C261.05 50.3452 261.255 50.5 261.5 50.5C261.745 50.5 261.95 50.3452 261.992 50.1411L262 50.0625V43.9375L261.992 43.8589C261.95 43.6548 261.745 43.5 261.5 43.5ZM260 38.75C259.395 38.75 258.891 39.1795 258.775 39.7501H261.225C261.109 39.1795 260.605 38.75 260 38.75Z" fill="#CC4A31"/>
<path d="M292.55 2.53189C293.387 1.82531 294.613 1.82531 295.45 2.5319L302.2 8.224C302.707 8.65152 303 9.2809 303 9.94406V19.7468C303 20.7133 302.216 21.4968 301.25 21.4968H297.75C296.783 21.4968 296 20.7133 296 19.7468V14.2468C296 14.1088 295.888 13.9968 295.75 13.9968H292.25C292.112 13.9968 292 14.1088 292 14.2468V19.7468C292 20.7133 291.216 21.4968 290.25 21.4968H286.75C285.784 21.4968 285 20.7133 285 19.7468V9.94406C285 9.2809 285.293 8.65152 285.8 8.224L292.55 2.53189ZM294.483 3.6786C294.204 3.44307 293.796 3.44307 293.517 3.6786L286.767 9.37071C286.598 9.51321 286.5 9.72301 286.5 9.94406V19.7468C286.5 19.8849 286.612 19.9968 286.75 19.9968H290.25C290.388 19.9968 290.5 19.8849 290.5 19.7468V14.2468C290.5 13.2803 291.283 12.4968 292.25 12.4968H295.75C296.716 12.4968 297.5 13.2803 297.5 14.2468V19.7468C297.5 19.8849 297.612 19.9968 297.75 19.9968H301.25C301.388 19.9968 301.5 19.8849 301.5 19.7468V9.94406C301.5 9.72301 301.402 9.51321 301.233 9.37071L294.483 3.6786Z" fill="#6F7581"/>
<path d="M292.549 36.5332C293.387 35.8262 294.613 35.8262 295.451 36.5332L302.201 42.2277C302.708 42.6552 303 43.2845 303 43.9475V53.7504C303 54.7169 302.216 55.5004 301.25 55.5004H298.25C297.284 55.5004 296.5 54.7169 296.5 53.7504V48.7504C296.5 48.3362 296.164 48.0004 295.75 48.0004H292.25C291.836 48.0004 291.5 48.3362 291.5 48.7504V53.7504C291.5 54.7169 290.716 55.5004 289.75 55.5004H286.75C285.784 55.5004 285 54.7169 285 53.7504V43.9475C285 43.2845 285.292 42.6552 285.799 42.2277L292.549 36.5332Z" fill="#4B0EAE"/>
<path d="M328 1.99609C332.05 1.99609 335.357 5.19084 335.496 9.24515L335.5 9.49609V13.5931L336.88 16.7491C336.949 16.907 336.985 17.0775 336.985 17.2499C336.985 17.9402 336.425 18.4999 335.735 18.4999L331 18.5014C331 20.1582 329.657 21.5014 328 21.5014C326.402 21.5014 325.096 20.2524 325.005 18.6776L324.999 18.4991L320.275 18.4999C320.103 18.4999 319.934 18.4646 319.777 18.3964C319.144 18.1213 318.853 17.3851 319.128 16.7519L320.5 13.594V9.49599C320.5 5.3412 323.852 1.99609 328 1.99609ZM329.499 18.4991L326.5 18.5014C326.5 19.3298 327.171 20.0014 328 20.0014C328.78 20.0014 329.42 19.4065 329.493 18.6458L329.499 18.4991ZM328 3.49609C324.68 3.49609 322 6.17035 322 9.49609V13.9057L320.656 16.9999H335.352L334 13.9067L334 9.50895L333.996 9.28375C333.885 6.05027 331.241 3.49609 328 3.49609Z" fill="#6F7581"/>
<path d="M325.042 53.003H330.958C330.72 54.4211 329.486 55.5015 328 55.5015C326.514 55.5015 325.28 54.4211 325.042 53.003ZM328 36.0039C332.142 36.0039 335.5 39.3618 335.5 43.5039V47.5024L336.918 50.6625C336.973 50.7848 337.002 50.9174 337.002 51.0515C337.002 51.5762 336.576 52.0015 336.052 52.0015H319.952C319.818 52.0015 319.686 51.9733 319.564 51.9186C319.085 51.7042 318.871 51.1422 319.085 50.6633L320.5 47.5028L320.5 43.491L320.505 43.2411C320.644 39.2103 323.956 36.0039 328 36.0039Z" fill="#4B0EAE"/>
<path d="M355 4.25C355 3.83579 354.664 3.5 354.25 3.5C353.836 3.5 353.5 3.83579 353.5 4.25V18.75C353.5 19.7165 354.284 20.5 355.25 20.5H369.75C370.164 20.5 370.5 20.1642 370.5 19.75C370.5 19.3358 370.164 19 369.75 19H355.25C355.112 19 355 18.8881 355 18.75V4.25ZM364 6.75C364 6.33579 364.336 6 364.75 6H369.751C370.166 6 370.501 6.33578 370.501 6.74999L370.502 11.755C370.502 12.1692 370.166 12.505 369.752 12.505C369.337 12.505 369.002 12.1692 369.002 11.755L369.001 8.55917L363.78 13.7803C363.487 14.0732 363.013 14.0732 362.72 13.7803L360.75 11.8107L357.53 15.0303C357.237 15.3232 356.763 15.3232 356.47 15.0303C356.177 14.7374 356.177 14.2626 356.47 13.9697L360.22 10.2197C360.513 9.92678 360.987 9.92678 361.28 10.2197L363.25 12.1893L367.939 7.5H364.75C364.336 7.5 364 7.16421 364 6.75Z" fill="#6F7581"/>
<path d="M355.25 38.25C355.25 37.6977 354.802 37.25 354.25 37.25C353.698 37.25 353.25 37.6977 353.25 38.25V52.25C353.25 53.6307 354.369 54.75 355.75 54.75H369.75C370.302 54.75 370.75 54.3023 370.75 53.75C370.75 53.1977 370.302 52.75 369.75 52.75H355.75C355.474 52.75 355.25 52.5261 355.25 52.25V38.25ZM364 41C364 40.4477 364.448 40 365 40H369.501C369.767 40 370.021 40.1054 370.209 40.293C370.396 40.4806 370.502 40.7351 370.501 41.0003L370.5 45.5003C370.5 46.0526 370.052 46.5002 369.5 46.5C368.947 46.4998 368.5 46.052 368.5 45.4997L368.501 43.4135L363.957 47.9571C363.567 48.3476 362.933 48.3476 362.543 47.9571L360.75 46.1642L358.207 48.7071C357.817 49.0976 357.183 49.0976 356.793 48.7071C356.402 48.3166 356.402 47.6834 356.793 47.2929L360.043 44.0429C360.433 43.6524 361.067 43.6524 361.457 44.0429L363.25 45.8358L367.086 42H365C364.448 42 364 41.5523 364 41Z" fill="#4B0EAE"/>
<path d="M401.755 13.9997C402.997 13.9997 404.003 15.0065 404.003 16.2486V16.824C404.003 17.7183 403.684 18.5831 403.102 19.2625C401.533 21.096 399.146 22.0008 396 22.0008C392.855 22.0008 390.468 21.0957 388.902 19.2614C388.322 18.5825 388.004 17.719 388.004 16.8262V16.2486C388.004 15.0065 389.011 13.9997 390.253 13.9997H401.755ZM401.755 15.4997H390.253C389.839 15.4997 389.504 15.835 389.504 16.2486V16.8262C389.504 17.3619 389.695 17.88 390.043 18.2874C391.296 19.755 393.262 20.5008 396 20.5008C398.739 20.5008 400.706 19.755 401.963 18.2871C402.312 17.8795 402.503 17.3605 402.503 16.824V16.2486C402.503 15.835 402.168 15.4997 401.755 15.4997ZM396 2.00439C398.762 2.00439 401 4.24297 401 7.00439C401 9.76582 398.762 12.0044 396 12.0044C393.239 12.0044 391 9.76582 391 7.00439C391 4.24297 393.239 2.00439 396 2.00439ZM396 3.50439C394.067 3.50439 392.5 5.0714 392.5 7.00439C392.5 8.93739 394.067 10.5044 396 10.5044C397.933 10.5044 399.5 8.93739 399.5 7.00439C399.5 5.0714 397.933 3.50439 396 3.50439Z" fill="#6F7581"/>
<path d="M401.755 47.9997C402.997 47.9997 404.003 49.0065 404.003 50.2486V51.167C404.003 51.7404 403.824 52.2994 403.491 52.7659C401.945 54.9292 399.421 56.0008 396 56.0008C392.579 56.0008 390.056 54.9287 388.514 52.7643C388.182 52.2984 388.004 51.7406 388.004 51.1685V50.2486C388.004 49.0065 389.011 47.9997 390.253 47.9997H401.755ZM396 36.0044C398.762 36.0044 401 38.243 401 41.0044C401 43.7658 398.762 46.0044 396 46.0044C393.239 46.0044 391 43.7658 391 41.0044C391 38.243 393.239 36.0044 396 36.0044Z" fill="#4B0EAE"/>
<path d="M432.75 15C433.716 15 434.5 15.7835 434.5 16.75L434.499 17.7121C434.616 19.9012 432.988 21.009 430.067 21.009C427.158 21.009 425.5 19.9192 425.5 17.75V16.75C425.5 15.7835 426.284 15 427.25 15H432.75ZM432.75 16.5H427.25C427.112 16.5 427 16.6119 427 16.75V17.75C427 18.9262 427.887 19.509 430.067 19.509C432.235 19.509 433.063 18.9455 433 17.752V16.75C433 16.6119 432.888 16.5 432.75 16.5ZM421.75 10L426.126 10.0001C426.044 10.3197 426 10.6547 426 11C426 11.1691 426.01 11.3358 426.031 11.4993L421.75 11.5C421.612 11.5 421.5 11.6119 421.5 11.75V12.75C421.5 13.9262 422.387 14.509 424.567 14.509C425.029 14.509 425.43 14.4835 425.774 14.4317C425.209 14.7897 424.785 15.349 424.601 16.0082L424.567 16.009C421.658 16.009 420 14.9192 420 12.75V11.75C420 10.7835 420.784 10 421.75 10ZM438.25 10C439.216 10 440 10.7835 440 11.75L439.999 12.7121C440.116 14.9012 438.488 16.009 435.567 16.009L435.399 16.0073C435.209 15.3302 434.767 14.7587 434.18 14.4008C434.567 14.4733 435.027 14.509 435.567 14.509C437.735 14.509 438.563 13.9455 438.5 12.752V11.75C438.5 11.6119 438.388 11.5 438.25 11.5L433.969 11.4992C433.99 11.3357 434 11.1691 434 11C434 10.6547 433.956 10.3197 433.874 10.0001L438.25 10ZM430 8C431.657 8 433 9.34315 433 11C433 12.6569 431.657 14 430 14C428.343 14 427 12.6569 427 11C427 9.34315 428.343 8 430 8ZM430 9.5C429.172 9.5 428.5 10.1716 428.5 11C428.5 11.8284 429.172 12.5 430 12.5C430.828 12.5 431.5 11.8284 431.5 11C431.5 10.1716 430.828 9.5 430 9.5ZM424.5 3C426.157 3 427.5 4.34315 427.5 6C427.5 7.65685 426.157 9 424.5 9C422.843 9 421.5 7.65685 421.5 6C421.5 4.34315 422.843 3 424.5 3ZM435.5 3C437.157 3 438.5 4.34315 438.5 6C438.5 7.65685 437.157 9 435.5 9C433.843 9 432.5 7.65685 432.5 6C432.5 4.34315 433.843 3 435.5 3ZM424.5 4.5C423.672 4.5 423 5.17157 423 6C423 6.82843 423.672 7.5 424.5 7.5C425.328 7.5 426 6.82843 426 6C426 5.17157 425.328 4.5 424.5 4.5ZM435.5 4.5C434.672 4.5 434 5.17157 434 6C434 6.82843 434.672 7.5 435.5 7.5C436.328 7.5 437 6.82843 437 6C437 5.17157 436.328 4.5 435.5 4.5Z" fill="#6F7581"/>
<path d="M432.75 49C433.716 49 434.5 49.7835 434.5 50.75L434.499 51.7121C434.616 53.9012 432.988 55.009 430.067 55.009C427.158 55.009 425.5 53.9192 425.5 51.75V50.75C425.5 49.7835 426.284 49 427.25 49H432.75ZM421.75 44L426.126 44.0001C426.044 44.3197 426 44.6547 426 45C426 46.1155 426.457 47.1244 427.193 47.8499L427.355 48.001L427.25 48C426.949 48 426.659 48.0485 426.387 48.138C425.523 48.4235 424.848 49.1264 424.601 50.0082L424.567 50.009C421.658 50.009 420 48.9192 420 46.75V45.75C420 44.7835 420.784 44 421.75 44ZM438.25 44C439.216 44 440 44.7835 440 45.75L439.999 46.7121C440.116 48.9012 438.488 50.009 435.567 50.009L435.399 50.0073C435.16 49.1534 434.519 48.4673 433.693 48.1659C433.458 48.08 433.207 48.0254 432.947 48.0069L432.75 48L432.645 48.001C433.476 47.268 434 46.1952 434 45C434 44.6547 433.956 44.3197 433.874 44.0001L438.25 44ZM430 42C431.657 42 433 43.3431 433 45C433 46.6569 431.657 48 430 48C428.343 48 427 46.6569 427 45C427 43.3431 428.343 42 430 42ZM424.5 37C426.157 37 427.5 38.3431 427.5 40C427.5 41.6569 426.157 43 424.5 43C422.843 43 421.5 41.6569 421.5 40C421.5 38.3431 422.843 37 424.5 37ZM435.5 37C437.157 37 438.5 38.3431 438.5 40C438.5 41.6569 437.157 43 435.5 43C433.843 43 432.5 41.6569 432.5 40C432.5 38.3431 433.843 37 435.5 37Z" fill="#4B0EAE"/>
<path d="M464.012 2.25C464.746 2.25846 465.477 2.34326 466.194 2.50304C466.506 2.57279 466.74 2.83351 466.776 3.15196L466.946 4.67881C467.023 5.37986 467.615 5.91084 468.321 5.91158C468.51 5.91188 468.698 5.87238 468.873 5.79483L470.274 5.17956C470.565 5.05159 470.905 5.12136 471.123 5.35362C472.135 6.43464 472.889 7.73115 473.328 9.14558C473.422 9.45058 473.313 9.78203 473.056 9.9715L471.815 10.8866C471.461 11.1468 471.252 11.56 471.252 11.9995C471.252 12.4389 471.461 12.8521 471.816 13.1129L473.058 14.0283C473.315 14.2177 473.424 14.5492 473.33 14.8543C472.891 16.2685 472.138 17.5649 471.126 18.6461C470.909 18.8783 470.569 18.9483 470.277 18.8206L468.871 18.2045C468.469 18.0284 468.007 18.0542 467.627 18.274C467.246 18.4937 466.993 18.8812 466.945 19.3177L466.776 20.8444C466.741 21.1592 466.512 21.4182 466.204 21.4915C464.756 21.8361 463.246 21.8361 461.798 21.4915C461.49 21.4182 461.261 21.1592 461.226 20.8444L461.057 19.32C461.008 18.8843 460.754 18.498 460.374 18.279C459.995 18.06 459.533 18.0343 459.132 18.2094L457.726 18.8256C457.434 18.9533 457.094 18.8833 456.877 18.6509C455.865 17.5685 455.111 16.2705 454.673 14.8548C454.579 14.5499 454.688 14.2186 454.945 14.0293L456.188 13.1133C456.542 12.8531 456.751 12.4399 456.751 12.0005C456.751 11.561 456.542 11.1478 456.188 10.8873L454.945 9.97285C454.688 9.78345 454.579 9.45178 454.673 9.14658C455.112 7.73215 455.866 6.43564 456.878 5.35462C457.096 5.12236 457.436 5.05259 457.727 5.18056L459.128 5.79572C459.531 5.97256 459.994 5.94585 460.376 5.72269C460.756 5.50209 461.009 5.11422 461.058 4.67764L461.228 3.15196C461.264 2.83335 461.498 2.57254 461.811 2.50294C462.528 2.34342 463.26 2.25865 464.012 2.25ZM464.012 3.7499C463.558 3.75524 463.106 3.79443 462.658 3.86702L462.549 4.84418C462.447 5.75368 461.92 6.56102 461.13 7.01903C460.336 7.48317 459.367 7.53903 458.525 7.16917L457.626 6.77456C457.054 7.46873 456.599 8.25135 456.279 9.09168L457.076 9.67879C457.815 10.2216 458.251 11.0837 458.251 12.0005C458.251 12.9172 457.815 13.7793 457.077 14.3215L456.278 14.9102C456.598 15.752 457.054 16.5361 457.626 17.2316L458.531 16.8351C459.369 16.4692 460.331 16.5227 461.124 16.9794C461.916 17.4361 462.444 18.2417 462.548 19.1526L462.657 20.1365C463.547 20.2878 464.455 20.2878 465.345 20.1365L465.454 19.1527C465.555 18.2421 466.083 17.4337 466.876 16.9753C467.669 16.5168 468.633 16.463 469.473 16.8305L470.377 17.2267C470.949 16.5323 471.404 15.7495 471.725 14.909L470.927 14.3211C470.188 13.7783 469.752 12.9162 469.752 11.9995C469.752 11.0827 470.188 10.2206 470.926 9.67847L471.723 9.09109C471.402 8.25061 470.947 7.46784 470.375 6.77356L469.478 7.16737C469.113 7.32901 468.718 7.4122 468.319 7.41158C466.849 7.41004 465.616 6.30355 465.455 4.84383L465.346 3.8667C464.901 3.7942 464.453 3.75512 464.012 3.7499ZM464 8.24995C466.071 8.24995 467.75 9.92888 467.75 12C467.75 14.071 466.071 15.75 464 15.75C461.929 15.75 460.25 14.071 460.25 12C460.25 9.92888 461.929 8.24995 464 8.24995ZM464 9.74995C462.757 9.74995 461.75 10.7573 461.75 12C461.75 13.2426 462.757 14.25 464 14.25C465.242 14.25 466.25 13.2426 466.25 12C466.25 10.7573 465.242 9.74995 464 9.74995Z" fill="#6F7581"/>
<path d="M464.012 36.25C464.746 36.2585 465.477 36.3433 466.194 36.503C466.506 36.5728 466.74 36.8335 466.776 37.152L466.946 38.6788C467.023 39.3799 467.615 39.9108 468.321 39.9116C468.51 39.9119 468.698 39.8724 468.873 39.7948L470.274 39.1796C470.565 39.0516 470.905 39.1214 471.123 39.3536C472.135 40.4346 472.889 41.7311 473.328 43.1456C473.422 43.4506 473.313 43.782 473.056 43.9715L471.815 44.8866C471.461 45.1468 471.252 45.56 471.252 45.9995C471.252 46.4389 471.461 46.8521 471.816 47.1129L473.058 48.0283C473.315 48.2177 473.424 48.5492 473.33 48.8543C472.891 50.2685 472.138 51.5649 471.126 52.6461C470.909 52.8783 470.569 52.9483 470.277 52.8206L468.871 52.2045C468.469 52.0284 468.007 52.0542 467.627 52.274C467.246 52.4937 466.993 52.8812 466.945 53.3177L466.776 54.8444C466.741 55.1592 466.512 55.4182 466.204 55.4915C464.756 55.8361 463.246 55.8361 461.798 55.4915C461.49 55.4182 461.261 55.1592 461.226 54.8444L461.057 53.32C461.008 52.8843 460.754 52.498 460.374 52.279C459.995 52.06 459.533 52.0343 459.132 52.2094L457.726 52.8256C457.434 52.9533 457.094 52.8833 456.877 52.6509C455.865 51.5685 455.111 50.2705 454.673 48.8548C454.579 48.5499 454.688 48.2186 454.945 48.0293L456.188 47.1133C456.542 46.8531 456.751 46.4399 456.751 46.0005C456.751 45.561 456.542 45.1478 456.188 44.8873L454.945 43.9728C454.688 43.7834 454.579 43.4518 454.673 43.1466C455.112 41.7321 455.866 40.4356 456.878 39.3546C457.096 39.1224 457.436 39.0526 457.727 39.1806L459.128 39.7957C459.531 39.9726 459.994 39.9458 460.376 39.7227C460.756 39.5021 461.009 39.1142 461.058 38.6776L461.228 37.152C461.264 36.8333 461.498 36.5725 461.811 36.5029C462.528 36.3434 463.26 36.2587 464.012 36.25ZM464 43C462.343 43 461 44.3431 461 46C461 47.6568 462.343 49 464 49C465.657 49 467 47.6568 467 46C467 44.3431 465.657 43 464 43Z" fill="#4B0EAE"/>
<path d="M492 14C492 13.7239 492.224 13.5 492.5 13.5C496.703 13.5 494.989 13.5 499.5 13.5C499.776 13.5 500 13.7239 500 14C500 14.2761 499.776 14.5 499.5 14.5C495.3 14.5 497.016 14.5 492.5 14.5C492.224 14.5 492 14.2761 492 14ZM496 22C500.418 22 504 18.4183 504 14C504 9.58172 500.418 6 496 6C491.582 6 488 9.58172 488 14C488 18.4183 491.582 22 496 22ZM496 21C492.134 21 489 17.866 489 14C489 10.134 492.134 7 496 7C499.866 7 503 10.134 503 14C503 17.866 499.866 21 496 21Z" fill="#CC4A31"/>
<path d="M504 44C504 48.4183 500.418 52 496 52C491.582 52 488 48.4183 488 44C488 39.5817 491.582 36 496 36C500.418 36 504 39.5817 504 44ZM492 44C492 44.2761 492.224 44.5 492.5 44.5C497.016 44.5 495.3 44.5 499.5 44.5C499.776 44.5 500 44.2761 500 44C500 43.7239 499.776 43.5 499.5 43.5C495.3 43.5 497.016 43.5 492.5 43.5C492.224 43.5 492 43.7239 492 44Z" fill="#CC4A31"/>
<path d="M528 6C524.134 6 521 9.13401 521 13C521 14.9322 521.782 16.6808 523.048 17.9479C523.244 18.1433 523.244 18.4598 523.048 18.655C522.853 18.8502 522.536 18.8501 522.341 18.6548C520.895 17.2078 520 15.2079 520 13C520 8.58172 523.582 5 528 5C532.418 5 536 8.58172 536 13C536 15.2079 535.105 17.2078 533.659 18.6548C533.464 18.8501 533.147 18.8502 532.952 18.655C532.756 18.4598 532.756 18.1433 532.952 17.9479C534.218 16.6808 535 14.9322 535 13C535 9.13401 531.866 6 528 6ZM528 9C525.791 9 524 10.7909 524 13C524 14.1029 524.446 15.1008 525.168 15.825C525.363 16.0205 525.363 16.337 525.167 16.5321C524.972 16.7271 524.655 16.7267 524.46 16.5312C523.558 15.6273 523 14.3784 523 13C523 10.2386 525.239 8 528 8C530.761 8 533 10.2386 533 13C533 14.3795 532.441 15.6293 531.538 16.5334C531.343 16.7287 531.026 16.7289 530.831 16.5338C530.635 16.3387 530.635 16.0221 530.83 15.8267C531.554 15.1024 532 14.1038 532 13C532 10.7909 530.209 9 528 9ZM528 11C526.895 11 526 11.8954 526 13C526 14.1046 526.895 15 528 15C529.105 15 530 14.1046 530 13C530 11.8954 529.105 11 528 11ZM527 13C527 12.4477 527.448 12 528 12C528.552 12 529 12.4477 529 13C529 13.5523 528.552 14 528 14C527.448 14 527 13.5523 527 13Z" fill="#4B0EAE"/>
<path d="M521.5 47C521.5 43.4101 524.41 40.5 528 40.5C531.59 40.5 534.5 43.4101 534.5 47C534.5 48.7926 533.775 50.4146 532.601 51.5913C532.309 51.8845 532.309 52.3594 532.602 52.6519C532.895 52.9445 533.37 52.944 533.663 52.6508C535.106 51.2044 536 49.2059 536 47C536 42.5817 532.418 39 528 39C523.582 39 520 42.5817 520 47C520 49.2059 520.894 51.2044 522.337 52.6508C522.63 52.944 523.105 52.9445 523.398 52.6519C523.691 52.3594 523.691 51.8845 523.399 51.5913C522.225 50.4146 521.5 48.7926 521.5 47ZM524.5 47C524.5 45.067 526.067 43.5 528 43.5C529.933 43.5 531.5 45.067 531.5 47C531.5 47.9645 531.111 48.8367 530.479 49.4706C530.187 49.764 530.188 50.2389 530.481 50.5312C530.774 50.8236 531.249 50.8228 531.542 50.5294C532.442 49.6259 533 48.3774 533 47C533 44.2386 530.761 42 528 42C525.239 42 523 44.2386 523 47C523 48.3774 523.558 49.6259 524.458 50.5294C524.751 50.8228 525.226 50.8236 525.519 50.5312C525.812 50.2389 525.813 49.764 525.521 49.4706C524.889 48.8367 524.5 47.9645 524.5 47ZM528 45C526.895 45 526 45.8954 526 47C526 48.1046 526.895 49 528 49C529.105 49 530 48.1046 530 47C530 45.8954 529.105 45 528 45Z" fill="#4B0EAE"/>
<path d="M562 6C558.134 6 555 9.13401 555 13C555 14.9322 555.782 16.6808 557.048 17.9479C557.244 18.1433 557.244 18.4598 557.048 18.655C556.853 18.8502 556.536 18.8501 556.341 18.6548C554.895 17.2078 554 15.2079 554 13C554 8.58172 557.582 5 562 5C566.418 5 570 8.58172 570 13C570 15.2079 569.105 17.2078 567.659 18.6548C567.464 18.8501 567.147 18.8502 566.952 18.655C566.756 18.4598 566.756 18.1433 566.952 17.9479C568.218 16.6808 569 14.9322 569 13C569 9.13401 565.866 6 562 6ZM562 9C559.791 9 558 10.7909 558 13C558 14.1029 558.446 15.1008 559.168 15.825C559.363 16.0205 559.363 16.337 559.167 16.5321C558.972 16.7271 558.655 16.7267 558.46 16.5312C557.558 15.6273 557 14.3784 557 13C557 10.2386 559.239 8 562 8C564.761 8 567 10.2386 567 13C567 14.3795 566.441 15.6293 565.538 16.5334C565.343 16.7287 565.026 16.7289 564.831 16.5338C564.635 16.3387 564.635 16.0221 564.83 15.8267C565.554 15.1024 566 14.1038 566 13C566 10.7909 564.209 9 562 9ZM562 11C560.895 11 560 11.8954 560 13C560 14.1046 560.895 15 562 15C563.105 15 564 14.1046 564 13C564 11.8954 563.105 11 562 11ZM561 13C561 12.4477 561.448 12 562 12C562.552 12 563 12.4477 563 13C563 13.5523 562.552 14 562 14C561.448 14 561 13.5523 561 13Z" fill="#3BB264"/>
<path d="M555.5 47C555.5 43.4101 558.41 40.5 562 40.5C565.59 40.5 568.5 43.4101 568.5 47C568.5 48.7926 567.775 50.4146 566.601 51.5913C566.309 51.8845 566.309 52.3594 566.602 52.6519C566.895 52.9445 567.37 52.944 567.663 52.6508C569.106 51.2044 570 49.2059 570 47C570 42.5817 566.418 39 562 39C557.582 39 554 42.5817 554 47C554 49.2059 554.894 51.2044 556.337 52.6508C556.63 52.944 557.105 52.9445 557.398 52.6519C557.691 52.3594 557.691 51.8845 557.399 51.5913C556.225 50.4146 555.5 48.7926 555.5 47ZM558.5 47C558.5 45.067 560.067 43.5 562 43.5C563.933 43.5 565.5 45.067 565.5 47C565.5 47.9645 565.111 48.8367 564.479 49.4706C564.187 49.764 564.188 50.2389 564.481 50.5312C564.774 50.8236 565.249 50.8228 565.542 50.5294C566.442 49.6259 567 48.3774 567 47C567 44.2386 564.761 42 562 42C559.239 42 557 44.2386 557 47C557 48.3774 557.558 49.6259 558.458 50.5294C558.751 50.8228 559.226 50.8236 559.519 50.5312C559.812 50.2389 559.813 49.764 559.521 49.4706C558.889 48.8367 558.5 47.9645 558.5 47ZM562 45C560.895 45 560 45.8954 560 47C560 48.1046 560.895 49 562 49C563.105 49 564 48.1046 564 47C564 45.8954 563.105 45 562 45Z" fill="#3BB264"/>
<path d="M601 7C599.895 7 599 7.89543 599 9C599 10.1046 599.895 11 601 11C602.105 11 603 10.1046 603 9C603 7.89543 602.105 7 601 7ZM598.041 8.50467C598.277 7.08352 599.512 6 601 6C602.657 6 604 7.34315 604 9C604 10.6569 602.657 12 601 12C599.516 12 598.284 10.9227 598.043 9.5076C597.376 9.57477 596.827 10.0805 596.715 10.7534L596.272 13.411C596.079 14.5656 595.114 15.4249 593.959 15.4953C593.723 16.9165 592.488 18 591 18C589.343 18 588 16.6569 588 15C588 13.3431 589.343 12 591 12C592.484 12 593.716 13.0773 593.957 14.4924C594.624 14.4252 595.173 13.9195 595.285 13.2466L595.728 10.589C595.921 9.43435 596.886 8.57507 598.041 8.50467ZM591 13C589.895 13 589 13.8954 589 15C589 16.1046 589.895 17 591 17C592.105 17 593 16.1046 593 15C593 13.8954 592.105 13 591 13Z" fill="#4B0EAE"/>
<path d="M601 40C599.512 40 598.277 41.0835 598.041 42.5047C596.886 42.5751 595.921 43.4344 595.728 44.589L595.285 47.2466C595.173 47.9195 594.624 48.4252 593.957 48.4924C593.716 47.0773 592.484 46 591 46C589.343 46 588 47.3431 588 49C588 50.6569 589.343 52 591 52C592.488 52 593.723 50.9165 593.959 49.4953C595.114 49.4249 596.079 48.5656 596.272 47.411L596.715 44.7534C596.827 44.0805 597.376 43.5748 598.043 43.5076C598.284 44.9227 599.516 46 601 46C602.657 46 604 44.6569 604 43C604 41.3431 602.657 40 601 40Z" fill="#4B0EAE"/>
<path fill-rule="evenodd" clip-rule="evenodd" d="M630.265 13.6707C630.051 14.7925 629.113 15.6 628.023 15.6H627.657C627.392 16.9693 626.239 18 624.857 18C623.279 18 622 16.6569 622 15C622 13.3431 623.279 12 624.857 12C626.239 12 627.392 13.0307 627.657 14.4H628.023C628.568 14.4 629.037 13.9962 629.144 13.4353L630.265 13.6707ZM626.571 15C626.571 15.9941 625.804 16.8 624.857 16.8C623.91 16.8 623.143 15.9941 623.143 15C623.143 14.0059 623.91 13.2 624.857 13.2C625.804 13.2 626.571 14.0059 626.571 15Z" fill="#CC4A31"/>
<path fill-rule="evenodd" clip-rule="evenodd" d="M638 9C638 10.6569 636.721 12 635.143 12C633.761 12 632.608 10.9693 632.343 9.6H631.977C631.432 9.6 630.963 10.0038 630.856 10.5647L629.735 10.3293C629.949 9.2075 630.887 8.4 631.977 8.4H632.343C632.608 7.03066 633.761 6 635.143 6C636.721 6 638 7.34315 638 9ZM635.143 7.2C636.09 7.2 636.857 8.00589 636.857 9C636.857 9.99411 636.09 10.8 635.143 10.8C634.196 10.8 633.429 9.99411 633.429 9C633.429 8.00589 634.196 7.2 635.143 7.2Z" fill="#CC4A31"/>
<path d="M636.857 43C636.857 42.0059 636.09 41.2 635.143 41.2C634.196 41.2 633.429 42.0059 633.429 43C633.429 43.9941 634.196 44.8 635.143 44.8C636.09 44.8 636.857 43.9941 636.857 43ZM624.857 50.8C625.804 50.8 626.571 49.9941 626.571 49C626.571 48.0059 625.804 47.2 624.857 47.2C623.91 47.2 623.143 48.0059 623.143 49C623.143 49.9941 623.91 50.8 624.857 50.8Z" fill="#CC4A31"/>
<path fill-rule="evenodd" clip-rule="evenodd" d="M630.265 47.6707C630.051 48.7925 629.113 49.6 628.023 49.6H627.657C627.392 50.9693 626.239 52 624.857 52C623.279 52 622 50.6569 622 49C622 47.3431 623.279 46 624.857 46C626.239 46 627.392 47.0307 627.657 48.4H628.023C628.568 48.4 629.037 47.9962 629.144 47.4353L630.265 47.6707ZM626.571 49C626.571 49.9941 625.804 50.8 624.857 50.8C623.91 50.8 623.143 49.9941 623.143 49C623.143 48.0059 623.91 47.2 624.857 47.2C625.804 47.2 626.571 48.0059 626.571 49Z" fill="#CC4A31"/>
<path fill-rule="evenodd" clip-rule="evenodd" d="M638 43C638 44.6569 636.721 46 635.143 46C633.761 46 632.608 44.9693 632.343 43.6H631.977C631.432 43.6 630.963 44.0038 630.856 44.5647L629.735 44.3293C629.949 43.2075 630.887 42.4 631.977 42.4H632.343C632.608 41.0307 633.761 40 635.143 40C636.721 40 638 41.3431 638 43ZM635.143 41.2C636.09 41.2 636.857 42.0059 636.857 43C636.857 43.9941 636.09 44.8 635.143 44.8C634.196 44.8 633.429 43.9941 633.429 43C633.429 42.0059 634.196 41.2 635.143 41.2Z" fill="#CC4A31"/>
<path d="M671.75 4C672.993 4 674 5.00736 674 6.25V17.7546C674 18.9972 672.993 20.0046 671.75 20.0046H656.25C655.007 20.0046 654 18.9972 654 17.7546V6.25C654 5.00736 655.007 4 656.25 4H671.75ZM671.75 5.5H656.25C655.836 5.5 655.5 5.83579 655.5 6.25V17.7546C655.5 18.1688 655.836 18.5046 656.25 18.5046H671.75C672.164 18.5046 672.5 18.1688 672.5 17.7546V6.25C672.5 5.83579 672.164 5.5 671.75 5.5ZM661.75 12.5C662.164 12.5 662.5 12.8358 662.5 13.25V13.7427L662.492 13.8513C662.329 14.9642 661.398 15.5009 660 15.5009C658.602 15.5009 657.67 14.9637 657.508 13.8501L657.5 13.7418V13.25C657.5 12.8358 657.836 12.5 658.25 12.5H661.75ZM665.252 12.9961H669.75C670.164 12.9961 670.5 13.3319 670.5 13.7461C670.5 14.1258 670.218 14.4396 669.852 14.4893L669.75 14.4961H665.252C664.838 14.4961 664.502 14.1604 664.502 13.7461C664.502 13.3664 664.784 13.0526 665.151 13.003L665.252 12.9961H669.75H665.252ZM660 8.50218C660.828 8.50218 661.5 9.17374 661.5 10.0022C661.5 10.8306 660.828 11.5021 660 11.5021C659.172 11.5021 658.5 10.8306 658.5 10.0022C658.5 9.17374 659.172 8.50218 660 8.50218ZM665.252 9.5H669.75C670.164 9.5 670.5 9.83579 670.5 10.25C670.5 10.6297 670.218 10.9435 669.852 10.9932L669.75 11H665.252C664.838 11 664.502 10.6642 664.502 10.25C664.502 9.8703 664.784 9.55651 665.151 9.50685L665.252 9.5H669.75H665.252Z" fill="#6F7581"/>
<path d="M671.75 38C672.993 38 674 39.0074 674 40.25V51.7546C674 52.9972 672.993 54.0046 671.75 54.0046H656.25C655.007 54.0046 654 52.9972 654 51.7546V40.25C654 39.0074 655.007 38 656.25 38H671.75ZM661.75 46.5H658.25C657.87 46.5 657.557 46.7822 657.507 47.1482L657.5 47.25V47.7418L657.508 47.8501C657.67 48.9637 658.602 49.5009 660 49.5009C661.331 49.5009 662.24 49.0141 662.464 48.0064L662.492 47.8513L662.5 47.7427V47.25C662.5 46.8703 662.218 46.5565 661.852 46.5068L661.75 46.5ZM669.75 46.9961H665.252L665.151 47.003C664.784 47.0526 664.502 47.3664 664.502 47.7461C664.502 48.1258 664.784 48.4396 665.151 48.4893L665.252 48.4961H669.75L669.852 48.4893C670.218 48.4396 670.5 48.1258 670.5 47.7461C670.5 47.3664 670.218 47.0526 669.852 47.003L669.75 46.9961ZM660 42.5022C659.172 42.5022 658.5 43.1737 658.5 44.0022C658.5 44.8306 659.172 45.5021 660 45.5021C660.828 45.5021 661.5 44.8306 661.5 44.0022C661.5 43.1737 660.828 42.5022 660 42.5022ZM669.75 43.5H665.252L665.151 43.5068C664.784 43.5565 664.502 43.8703 664.502 44.25C664.502 44.6297 664.784 44.9435 665.151 44.9932L665.252 45H669.75L669.852 44.9932C670.218 44.9435 670.5 44.6297 670.5 44.25C670.5 43.8703 670.218 43.5565 669.852 43.5068L669.75 43.5Z" fill="#4B0EAE"/>
<path d="M694 12.5C694 13.3284 693.328 14 692.5 14C691.672 14 691 13.3284 691 12.5C691 11.6716 691.672 11 692.5 11C693.328 11 694 11.6716 694 12.5ZM690 15.6988C690 15.1748 690.425 14.75 690.949 14.75H694.051C694.575 14.75 695 15.1748 695 15.6988C695 16.546 694.423 17.2845 693.601 17.49L693.542 17.5048C692.858 17.6759 692.142 17.6759 691.458 17.5048L691.399 17.49C690.577 17.2845 690 16.546 690 15.6988ZM697.5 12C697.224 12 697 12.2239 697 12.5C697 12.7761 697.224 13 697.5 13H700.5C700.776 13 701 12.7761 701 12.5C701 12.2239 700.776 12 700.5 12H697.5ZM697.5 15C697.224 15 697 15.2239 697 15.5C697 15.7761 697.224 16 697.5 16H700.5C700.776 16 701 15.7761 701 15.5C701 15.2239 700.776 15 700.5 15H697.5ZM688 9.75C688 8.7835 688.784 8 689.75 8H702.25C703.216 8 704 8.7835 704 9.75V18.25C704 19.2165 703.216 20 702.25 20H689.75C688.784 20 688 19.2165 688 18.25V9.75ZM689.75 9C689.336 9 689 9.33579 689 9.75V18.25C689 18.6642 689.336 19 689.75 19H702.25C702.664 19 703 18.6642 703 18.25V9.75C703 9.33579 702.664 9 702.25 9H689.75Z" fill="#4B0EAE"/>
<path d="M689.5 38C688.672 38 688 38.6716 688 39.5V48.5C688 49.3284 688.672 50 689.5 50H702.5C703.328 50 704 49.3284 704 48.5V39.5C704 38.6716 703.328 38 702.5 38H689.5ZM692.5 44C691.672 44 691 43.3284 691 42.5C691 41.6716 691.672 41 692.5 41C693.328 41 694 41.6716 694 42.5C694 43.3284 693.328 44 692.5 44ZM690.949 44.75H694.051C694.575 44.75 695 45.1748 695 45.6988C695 46.546 694.423 47.2845 693.601 47.49L693.542 47.5048C692.858 47.6759 692.142 47.6759 691.458 47.5048L691.399 47.49C690.577 47.2845 690 46.546 690 45.6988C690 45.1748 690.425 44.75 690.949 44.75ZM697 42.5C697 42.2239 697.224 42 697.5 42H700.5C700.776 42 701 42.2239 701 42.5C701 42.7761 700.776 43 700.5 43H697.5C697.224 43 697 42.7761 697 42.5ZM697.5 45H700.5C700.776 45 701 45.2239 701 45.5C701 45.7761 700.776 46 700.5 46H697.5C697.224 46 697 45.7761 697 45.5C697 45.2239 697.224 45 697.5 45Z" fill="#4B0EAE"/>
<path d="M724.5 10.5C724.5 10.2239 724.276 10 724 10C723.724 10 723.5 10.2239 723.5 10.5V20.197L719.872 16.1655C719.687 15.9603 719.371 15.9436 719.166 16.1284C718.96 16.3131 718.944 16.6292 719.128 16.8345L723.628 21.8345C723.723 21.9398 723.858 22 724 22C724.142 22 724.277 21.9398 724.372 21.8345L728.872 16.8345C729.056 16.6292 729.04 16.3131 728.834 16.1284C728.629 15.9436 728.313 15.9603 728.128 16.1655L724.5 20.197V10.5Z" fill="white"/>
<path d="M724 36C724.414 36 724.75 36.3358 724.75 36.75V45.537L727.691 42.2499C727.967 41.9412 728.441 41.9149 728.75 42.1911C729.059 42.4673 729.085 42.9414 728.809 43.2501L724.559 48.0001C724.417 48.1591 724.213 48.25 724 48.25C723.787 48.25 723.583 48.1591 723.441 48.0001L719.191 43.2501C718.915 42.9414 718.941 42.4673 719.25 42.1911C719.559 41.9149 720.033 41.9412 720.309 42.2499L723.25 45.537V36.75C723.25 36.3358 723.586 36 724 36Z" fill="white"/>
</svg>
