<svg width="15" height="15" viewBox="0 0 15 15" fill="none" xmlns="http://www.w3.org/2000/svg">
<path d="M8 1C8 0.854204 7.93636 0.715666 7.82575 0.620678C7.71514 0.52569 7.56857 0.483714 7.42445 0.505744L0.424449 1.57574C0.180316 1.61306 0 1.82303 0 2.07V12.93C0 13.1769 0.180277 13.3869 0.424378 13.4243L7.42438 14.4953C7.56851 14.5173 7.71509 14.4754 7.82572 14.3804C7.93635 14.2854 8 14.1468 8 14.001V7.50001L13.1722 7.50001L12.1753 8.37372C11.9679 8.55556 11.9468 8.87144 12.1284 9.07926C12.3099 9.28708 12.6253 9.30814 12.8328 9.1263L14.8295 7.3763C14.9379 7.28135 15 7.14419 15 7.00001C15 6.85583 14.9379 6.71866 14.8295 6.62372L12.8328 4.87372C12.6253 4.69188 12.3099 4.71294 12.1284 4.92075C11.9468 5.12857 11.9679 5.44445 12.1753 5.6263L13.1723 6.50001L8 6.50001V1ZM5.5 8.75C5.08579 8.75 4.75 8.41421 4.75 8C4.75 7.58579 5.08579 7.25 5.5 7.25C5.91421 7.25 6.25 7.58579 6.25 8C6.25 8.41421 5.91421 8.75 5.5 8.75ZM9.5 13.5H9V8.5H10V13C10 13.2761 9.77614 13.5 9.5 13.5ZM9 5.5V1.5H9.5C9.77614 1.5 10 1.72386 10 2V5.5H9Z" fill="#CC4A31"/>
</svg>
