<svg width="12" height="10" viewBox="0 0 12 10" fill="none" xmlns="http://www.w3.org/2000/svg">
<path d="M0 3.03807V8C0 9.10457 0.895431 10 2 10H10C11.1046 10 12 9.10457 12 8V2C12 0.895431 11.1046 0 10 0H2C0.895431 0 0 0.89543 0 2V3.03807C0 3.03809 0 3.03804 0 3.03807ZM2 1H10C10.5523 1 11 1.44772 11 2V2.73987L6.0001 5.43212L1 2.73976V2C1 1.44772 1.44772 1 2 1ZM1 3.87552L5.76305 6.44024C5.91104 6.51992 6.08916 6.51992 6.23715 6.44024L11 3.87562V8C11 8.55229 10.5523 9 10 9H2C1.44772 9 1 8.55228 1 8V3.87552Z" fill="#6F7581"/>
</svg>
