<svg width="12" height="14" viewBox="0 0 12 14" fill="none" xmlns="http://www.w3.org/2000/svg">
<path d="M6 0C9.31371 0 12 2.68629 12 6C12 8.86724 10.065 11.5058 6.26844 13.9218C6.10465 14.0261 5.89535 14.0261 5.73156 13.9218C1.93495 11.5058 0 8.86724 0 6C0 2.68629 2.68629 0 6 0ZM6 1C3.23858 1 1 3.23858 1 6C1 8.32537 2.53971 10.5577 5.68057 12.6918L6 12.9049L6.31943 12.6918C9.46029 10.5577 11 8.32537 11 6C11 3.23858 8.76142 1 6 1ZM6 4.5C6.82843 4.5 7.5 5.17157 7.5 6C7.5 6.82843 6.82843 7.5 6 7.5C5.17157 7.5 4.5 6.82843 4.5 6C4.5 5.17157 5.17157 4.5 6 4.5Z" fill="#6F7581"/>
</svg>
