<svg width="8" height="14" viewBox="0 0 8 14" fill="none" xmlns="http://www.w3.org/2000/svg">
<path d="M3 11C2.72386 11 2.5 11.2239 2.5 11.5C2.5 11.7761 2.72386 12 3 12H5C5.27614 12 5.5 11.7761 5.5 11.5C5.5 11.2239 5.27614 11 5 11H3ZM1.75 0C0.783502 0 0 0.783502 0 1.75V12.25C0 13.2165 0.783501 14 1.75 14H6.25C7.2165 14 8 13.2165 8 12.25V1.75C8 0.783502 7.2165 0 6.25 0H1.75ZM1 1.75C1 1.33579 1.33579 1 1.75 1H6.25C6.66421 1 7 1.33579 7 1.75V12.25C7 12.6642 6.66421 13 6.25 13H1.75C1.33579 13 1 12.6642 1 12.25V1.75Z" fill="#6F7581"/>
</svg>
