<svg width="32" height="33" viewBox="0 0 32 33" fill="none" xmlns="http://www.w3.org/2000/svg">
<rect y="0.490967" width="32" height="32" rx="2" fill="#4B0EAE"/>
<mask id="mask0_2555_188921" style="mask-type:alpha" maskUnits="userSpaceOnUse" x="8" y="8" width="16" height="17">
<path d="M19.0127 14.7222H22.0127V11.7222" stroke="black" stroke-linecap="round" stroke-linejoin="round"/>
<path d="M12.1123 12.6035C12.6226 12.0925 13.2285 11.6871 13.8956 11.4105C14.5626 11.1339 15.2777 10.9916 15.9998 10.9916C16.7219 10.9916 17.437 11.1339 18.104 11.4105C18.7711 11.6871 19.3771 12.0925 19.8873 12.6035L22.0123 14.7222" stroke="black" stroke-linecap="round" stroke-linejoin="round"/>
<path d="M12.9873 18.2598H9.9873V21.2598" stroke="black" stroke-linecap="round" stroke-linejoin="round"/>
<path d="M19.8873 20.3785C19.3771 20.8895 18.7711 21.2949 18.104 21.5715C17.437 21.8481 16.7219 21.9904 15.9998 21.9904C15.2777 21.9904 14.5626 21.8481 13.8956 21.5715C13.2285 21.2949 12.6226 20.8895 12.1123 20.3785L9.9873 18.2598" stroke="black" stroke-linecap="round" stroke-linejoin="round"/>
</mask>
<g mask="url(#mask0_2555_188921)">
<rect x="8" y="8.49097" width="16" height="16" fill="white"/>
</g>
</svg>
