<svg width="151" height="151" viewBox="0 0 151 151" fill="none" xmlns="http://www.w3.org/2000/svg">
<g clip-path="url(#clip0_69_34116)">
<path d="M73.84 126.15C102.47 126.15 125.68 102.94 125.68 74.31C125.68 45.6796 102.47 22.47 73.84 22.47C45.2096 22.47 22 45.6796 22 74.31C22 102.94 45.2096 126.15 73.84 126.15Z" fill="#E3EFF2"/>
<path d="M117.02 120.38L120.42 117.24L121.36 51.24L119.65 48.77L117.02 120.38Z" fill="#001C22"/>
<path d="M116.99 46.93H80.4401C78.8801 46.93 77.6201 48 77.6201 49.33L80.0001 118.84C80.0001 120.16 81.2601 121.24 82.8201 121.24H115.06C116.61 121.24 117.88 120.16 117.88 118.84L119.82 49.33C119.82 48 118.56 46.93 117 46.93H116.99Z" fill="#66A9B9"/>
<path d="M116.2 53.92H81.4902V89.4H116.2V53.92Z" fill="#001C22"/>
<path d="M113.91 59.29H83.96V79.03H113.91V59.29Z" fill="#1C353B"/>
<path d="M121.083 51.1214L120.402 117.238L121.102 117.245L121.783 51.1286L121.083 51.1214Z" fill="#006F8A"/>
<g style="mix-blend-mode:soft-light">
<path d="M81.4902 79.45C81.8602 79.45 82.2202 79.47 82.5902 79.47C101.15 79.47 116.19 68.26 116.19 54.43C116.19 54.26 116.18 54.09 116.17 53.92H81.4902V79.45Z" fill="#A39F96"/>
</g>
<path d="M40.2101 46.93C40.2101 46.93 30.7001 68.47 30.0401 78.42C29.3801 88.37 35.6201 104.99 35.6201 104.99H55.3001C55.3001 104.99 59.7801 88.15 58.9101 85.31C58.0401 82.47 49.9001 50.43 48.7201 50.21C47.5401 49.99 40.2201 46.93 40.2201 46.93H40.2101Z" fill="#F8BD83"/>
<path d="M36.9302 59.01C36.9302 59.01 37.4302 69.31 39.1002 72.95C40.7702 76.59 43.1802 77.11 44.5602 76.18C45.9402 75.25 49.0202 63.72 49.0202 63.72L36.9402 59.01H36.9302Z" fill="#F7AC6F"/>
<path d="M47.8199 66.75L59.8999 75.42C61.7599 76.75 64.3699 76.32 65.6999 74.47C67.0299 72.61 66.5999 70 64.7499 68.67L52.6699 60C50.8099 58.67 48.1999 59.1 46.8699 60.95C45.5399 62.81 45.9699 65.42 47.8199 66.75Z" fill="#F7AC6F"/>
<path d="M50.4498 59.53L62.5298 68.2C64.3898 69.53 66.9998 69.1 68.3298 67.25C69.6598 65.39 69.2298 62.78 67.3798 61.45L55.2998 52.78C53.4398 51.45 50.8298 51.88 49.4998 53.73C48.1698 55.59 48.5998 58.2 50.4498 59.53Z" fill="#F7AC6F"/>
<path d="M55.0598 150H30.2798L34.2798 98.98H56.5898L55.0598 150Z" fill="#F8BD83"/>
<path d="M66.7351 20.7945L30.8077 51.5446C30.1238 52.1299 30.0439 53.1589 30.6292 53.8428L47.6136 73.6868C48.199 74.3708 49.2279 74.4507 49.9119 73.8653L85.8393 43.1153C86.5232 42.5299 86.6031 41.5009 86.0177 40.817L69.0334 20.973C68.448 20.2891 67.419 20.2092 66.7351 20.7945Z" fill="#006F8A"/>
<path d="M66.7301 20.8L30.8101 51.54C30.3801 51.91 30.1901 52.45 30.2501 52.97C30.3301 52.67 30.5001 52.4 30.7601 52.18L66.6801 21.44C67.3701 20.85 68.4001 20.93 68.9901 21.62L85.9701 41.46C86.1901 41.72 86.3201 42.02 86.3501 42.34C86.5001 41.83 86.4001 41.26 86.0201 40.82L69.0401 20.98C68.4501 20.29 67.4201 20.21 66.7301 20.8Z" fill="#3A90A5"/>
<path style="mix-blend-mode:multiply" d="M49.9701 73.23C49.2801 73.82 48.2501 73.74 47.6601 73.05L30.6801 53.21C30.4601 52.95 30.3301 52.65 30.3001 52.33C30.1501 52.84 30.2501 53.42 30.6301 53.85L47.6101 73.69C48.2001 74.38 49.2301 74.46 49.9201 73.87L85.8401 43.13C86.2701 42.76 86.4601 42.22 86.4001 41.7C86.3201 42 86.1501 42.27 85.8901 42.49L49.9701 73.23Z" fill="url(#paint0_linear_69_34116)"/>
<path d="M30.6301 53.85L47.6101 73.69C47.8501 73.98 48.1801 74.15 48.5201 74.22C58.0201 62.34 59.7501 45.99 53.1301 32.45L30.8201 51.55C30.1301 52.14 30.0501 53.17 30.6401 53.86L30.6301 53.85Z" fill="#3A90A5"/>
<path d="M78.1817 40.5347L70.8808 46.7835C70.5367 47.078 70.4965 47.5956 70.791 47.9397L72.1305 49.5047C72.425 49.8488 72.9426 49.889 73.2867 49.5945L80.5876 43.3456C80.9317 43.0512 80.9719 42.5335 80.6774 42.1895L79.3379 40.6244C79.0434 40.2804 78.5258 40.2402 78.1817 40.5347Z" fill="#228299"/>
<path d="M55.6652 60.7749L54.4724 61.7957C54.3633 61.8891 54.3506 62.0532 54.444 62.1623L55.3998 63.2791C55.4932 63.3882 55.6573 63.401 55.7664 63.3076L56.9592 62.2867C57.0683 62.1933 57.081 62.0292 56.9877 61.9201L56.0318 60.8033C55.9384 60.6942 55.7743 60.6815 55.6652 60.7749Z" fill="#66A9B9"/>
<path d="M56.0699 100.29C56.0699 100.29 61.3199 90.89 61.3199 84.98C61.3199 79.07 56.2899 70.5 56.0699 66.17C55.9399 63.67 56.6299 58.79 55.8499 55C55.0899 51.31 53.3199 49.5 51.3799 49.5C49.5599 49.5 47.9599 51.66 47.4799 55.12C46.9099 59.17 47.8999 63.08 47.7599 65.3C47.4399 70.53 43.1699 77.11 42.7299 84.54C42.2899 91.97 44.2599 98.97 46.0099 98.97C47.7599 98.97 51.6999 104.22 56.0699 100.28V100.29Z" fill="#F8BD83"/>
<path d="M52.14 49.14H51.25C49.8582 49.14 48.73 50.2683 48.73 51.66V54.49C48.73 55.8818 49.8582 57.01 51.25 57.01H52.14C53.5317 57.01 54.66 55.8818 54.66 54.49V51.66C54.66 50.2683 53.5317 49.14 52.14 49.14Z" fill="#FACC9F"/>
<path d="M49.1699 62C49.1699 62 50.2299 61.35 51.7899 61.43C53.3499 61.51 54.2799 62.26 54.2799 62.26C54.2799 62.26 53.4099 61.86 51.7399 61.78C50.0699 61.7 49.1699 62 49.1699 62Z" fill="#F59A50"/>
<path d="M49.1299 62.82C49.1299 62.82 50.1899 62.17 51.7499 62.25C53.3099 62.33 54.2399 63.08 54.2399 63.08C54.2399 63.08 53.3699 62.68 51.6999 62.6C50.0299 62.52 49.1299 62.82 49.1299 62.82Z" fill="#F59A50"/>
<path d="M61.3102 84.98C61.3102 84.73 61.2902 84.47 61.2702 84.21L61.1502 84.18C61.1502 84.18 59.3702 93.71 54.3702 97.48C49.3702 101.25 43.4202 100.66 42.9602 101.96C42.5002 103.25 52.8802 103.75 53.0002 105.5C53.1202 107.22 49.1302 148.69 49.0002 150H55.0402L56.5502 99.33C57.8702 96.79 61.2902 89.75 61.2902 84.98H61.3102Z" fill="#F7AC6F"/>
</g>
<defs>
<linearGradient id="paint0_linear_69_34116" x1="62.1252" y1="34.2842" x2="53.4157" y2="63.9703" gradientUnits="userSpaceOnUse">
<stop stop-color="#B3B3B3"/>
<stop offset="0.16" stop-color="#C2C2C2"/>
<stop offset="0.44" stop-color="#D6D6D6"/>
<stop offset="0.72" stop-color="#E2E2E2"/>
<stop offset="1" stop-color="#E6E6E6"/>
</linearGradient>
<clipPath id="clip0_69_34116">
<rect width="150.13" height="150.03" fill="white"/>
</clipPath>
</defs>
</svg>
