<svg width="72" height="61" viewBox="0 0 72 61" fill="none" xmlns="http://www.w3.org/2000/svg">
<path d="M37.7689 14.8745L37.6776 14.8477C37.2032 14.7085 36.9291 14.2158 37.0722 13.744M37.7689 14.8745L38.7952 14.2506C39.9947 10.2873 43.7744 7.5162 47.9881 7.5162C48.4822 7.5162 48.8873 7.12139 48.8873 6.62939C48.8873 6.13737 48.4822 5.74258 47.9881 5.74258C42.8167 5.74258 38.4687 9.12893 37.0722 13.744M37.7689 14.8745L37.7728 14.8701M37.7689 14.8745L37.7728 14.8701M37.0722 13.744L37.2158 13.7875M37.0722 13.744C37.0722 13.744 37.0722 13.744 37.0722 13.744L37.2158 13.7875M37.2158 13.7875C37.0975 14.1775 37.3233 14.5874 37.7199 14.7038L47.9881 7.3662C48.4017 7.3662 48.7373 7.03621 48.7373 6.62939C48.7373 6.22256 48.4017 5.89258 47.9881 5.89258C42.8834 5.89258 38.5932 9.23509 37.2158 13.7875ZM37.7728 14.8701C38.2182 14.9508 38.6631 14.6894 38.7952 14.2508L37.7728 14.8701Z" fill="#4B0EAE" stroke="white" stroke-width="0.3" stroke-linecap="round"/>
<path d="M58.4761 42.7326H53.981C53.5673 42.7326 53.2318 42.4026 53.2318 41.9958C53.2318 41.589 53.5673 41.259 53.981 41.259H58.4761C64.6723 41.259 69.7139 36.3008 69.7139 30.2069C69.7139 24.1131 64.6723 19.1549 58.4761 19.1549H58.368C58.1507 19.1549 57.9441 19.0623 57.8018 18.9007C57.6594 18.7391 57.5952 18.5249 57.6263 18.3134C57.6932 17.8545 57.7269 17.3934 57.7269 16.9445C57.7269 11.6632 53.3574 7.36602 47.9874 7.36602C45.8982 7.36602 43.9059 8.00809 42.2255 9.22327C41.8563 9.49011 41.3318 9.37169 41.1183 8.97223C36.3594 0.0601131 23.9296 -1.13669 17.4854 6.61607C14.7707 9.8822 13.7041 14.1309 14.5588 18.2718C14.6529 18.7292 14.2971 19.1555 13.8246 19.1555H13.5243C7.32807 19.1555 2.28653 24.1137 2.28653 30.2075C2.28653 36.3013 7.32807 41.2595 13.5243 41.2595H18.0194C18.4331 41.2595 18.7686 41.5895 18.7686 41.9963C18.7686 42.4032 18.4331 42.7332 18.0194 42.7332H13.5243C6.50172 42.7332 0.788086 37.114 0.788086 30.2075C0.788086 23.4947 6.1854 17.9981 12.9362 17.6949C12.3021 13.3988 13.5147 9.06536 16.3252 5.6835C23.2247 -2.61762 36.447 -1.68717 42.0364 7.56918C43.8195 6.46976 45.8599 5.893 47.9871 5.893C54.4933 5.893 59.6488 11.3391 59.1977 17.7018C65.8863 18.0707 71.212 23.5383 71.212 30.2069C71.212 37.114 65.4983 42.7326 58.4757 42.7326L58.4761 42.7326Z" fill="#4B0EAE"/>
<path d="M17.0198 41.5799C17.0198 51.8222 25.4916 60.1502 35.8997 60.1502C46.3079 60.1502 54.7796 51.822 54.7796 41.5799C54.7796 31.3377 46.3079 23.0097 35.8997 23.0097C25.4915 23.0097 17.0198 31.3379 17.0198 41.5799Z" fill="#4B0EAE" stroke="white" stroke-width="0.3" stroke-linecap="round"/>
<path d="M35.5436 48.9952C35.5436 49.3783 35.8588 49.6846 36.2421 49.6846C36.6254 49.6846 36.9406 49.3787 36.9406 48.9952V34.9701C36.9406 34.5871 36.6254 34.2807 36.2421 34.2807C35.8588 34.2807 35.5436 34.5871 35.5436 34.9701V48.9952Z" fill="white" stroke="white" stroke-width="0.3" stroke-linecap="round"/>
<path d="M40.1369 39.7749C40.2733 39.909 40.4523 39.9759 40.6299 39.9759L32.3473 39.7748L36.242 35.9444L40.1369 39.7749ZM31.3611 39.7749C31.6337 40.043 32.0748 40.0431 32.3472 39.7749L35.749 34.4828L35.7489 34.4829L31.3611 38.7981C31.087 39.0676 31.087 39.5054 31.3611 39.7749ZM40.6299 39.9759C40.8072 39.9759 40.9863 39.9096 41.1229 39.7749L40.6299 39.9759Z" fill="white" stroke="white" stroke-width="0.3" stroke-linecap="round"/>
</svg>
