<svg width="174" height="193" viewBox="0 0 174 193" fill="none" xmlns="http://www.w3.org/2000/svg">
<path d="M86.9599 173.15C134.636 173.15 173.285 134.501 173.285 86.8252C173.285 39.1491 134.636 0.5 86.9599 0.5C39.2839 0.5 0.634766 39.1491 0.634766 86.8252C0.634766 134.501 39.2839 173.15 86.9599 173.15Z" fill="#E3EFF2"/>
<path d="M158.864 163.544L164.526 158.315L166.091 48.41L163.244 44.2969L158.864 163.544Z" fill="#001C22"/>
<path d="M159.136 43.0117H98.5609C95.9754 43.0117 93.8872 44.7654 93.8872 46.9366L97.8317 160.648C97.8317 162.819 99.9199 164.573 102.505 164.573H155.938C158.507 164.573 160.611 162.819 160.611 160.648L163.827 46.9366C163.827 44.7654 161.738 43.0117 159.153 43.0117H159.136Z" fill="#4C37A6"/>
<path d="M157.166 53.0039H98.8828L101.381 159.578H157.166V53.0039Z" fill="#001C22"/>
<g style="mix-blend-mode:soft-light">
<path d="M99.6987 95.3842C100.315 95.3842 100.914 95.4176 101.53 95.4176C132.437 95.4176 157.482 76.7504 157.482 53.7204C157.482 53.4373 157.465 53.1542 157.449 52.8711H99.6987V95.3842Z" fill="#A39F96"/>
</g>
<path d="M30.9586 41.2305C30.9586 41.2305 15.1224 77.0994 14.0233 93.6684C12.9243 110.237 23.3153 137.913 23.3153 137.913H56.0869C56.0869 137.913 63.5471 109.871 62.0983 105.142C60.6496 100.413 47.0947 47.0587 45.1297 46.6924C43.1647 46.3261 30.9753 41.2305 30.9753 41.2305H30.9586Z" fill="#F8BD83"/>
<path d="M25.4966 61.3477C25.4966 61.3477 26.3292 78.4995 29.1101 84.5609C31.891 90.6223 35.9042 91.4882 38.2022 89.9395C40.5002 88.3909 45.6291 69.1909 45.6291 69.1909L25.5132 61.3477H25.4966Z" fill="#F7AC6F"/>
<path d="M43.6308 74.2349L63.7467 88.6724C66.844 90.8871 71.1902 90.1711 73.405 87.0904C75.6197 83.9931 74.9037 79.6468 71.823 77.4321L51.7071 62.9946C48.6098 60.7799 44.2636 61.4959 42.0488 64.5766C39.8341 67.6739 40.5501 72.0201 43.6308 74.2349Z" fill="#F7AC6F"/>
<path d="M48.0102 62.2114L68.1261 76.6489C71.2234 78.8637 75.5696 78.1476 77.7844 75.067C79.9991 71.9696 79.2831 67.6234 76.2024 65.4087L56.0865 50.9712C52.9892 48.7564 48.643 49.4725 46.4282 52.5531C44.2135 55.6505 44.9295 59.9967 48.0102 62.2114Z" fill="#F7AC6F"/>
<path d="M56.303 192.882H13.9565L20.7921 126.273H58.9176L56.303 192.882Z" fill="#F8BD83"/>
<path d="M101.644 15.1249L107.56 54.8381L108.474 60.98C108.612 61.7793 108.078 62.5382 107.291 62.6743L29.8214 76.0634C29.0337 76.1995 28.2764 75.6638 28.1382 74.8645L26.9929 68.7589L19.6834 29.786C19.5453 28.9866 20.2038 27.2668 21.9237 27.0907L97.2918 12.0164C98.2759 11.8204 99.2987 12.0407 100.121 12.6293C100.944 13.2164 101.494 14.1189 101.644 15.1252L101.644 15.1249Z" fill="url(#paint0_linear_1147_167560)"/>
<path opacity="0.2" d="M106.606 59.7013C106.735 60.4485 106.222 61.1671 105.466 61.2979L31.0946 74.1515C30.3381 74.2822 29.6135 73.7776 29.4844 73.0303L21.56 30.8681C21.4309 30.1208 22.0689 28.5078 23.7195 28.3354L96.0819 13.9134C97.0267 13.7252 98.0067 13.9279 98.7934 14.4742C99.5801 15.0205 100.104 15.8628 100.244 16.8044L106.606 59.7013Z" fill="#91B3FA"/>
<path d="M85.9889 22.3226C86.1158 23.1711 85.8643 23.9307 85.4244 24.01L59.2855 28.7213C58.7907 28.8105 58.2628 28.1392 58.1106 27.2395C57.9583 26.3386 58.2355 25.523 58.7322 25.4372L84.9574 20.9046C85.3984 20.8284 85.8614 21.4734 85.9885 22.3227L85.9889 22.3226Z" fill="#F5F5F5"/>
<path d="M89.602 53.0019C89.6594 53.441 89.369 53.8453 88.9548 53.9186L64.3385 58.2653C63.8723 58.3478 63.4347 58.0568 63.3576 57.5926C63.2804 57.1276 63.6008 56.7029 64.0681 56.6221L88.7506 52.3562C89.1657 52.2845 89.5445 52.5623 89.602 53.0019Z" fill="#F5F5F5"/>
<path d="M88.7517 48.0829C88.8094 48.5248 88.5189 48.9282 88.1048 49.0015L63.4884 53.3473C63.0223 53.4298 62.5851 53.1419 62.5075 52.6745C62.4298 52.2066 62.7507 51.7849 63.218 51.7042L87.9006 47.4383C88.3156 47.3665 88.6939 47.6403 88.7517 48.0829Z" fill="#F5F5F5"/>
<path d="M86.9863 28.1011C87.0364 28.5049 86.4467 28.9444 85.668 29.0835L60.7276 33.5409C59.9045 33.6879 59.1833 33.4725 59.1175 33.0591L59.1101 33.0126C59.0446 32.5987 59.6608 32.1443 60.4856 31.9981L85.4777 27.5734C86.2582 27.4353 86.9306 27.6514 86.9807 28.0555L86.9862 28.1009L86.9863 28.1011Z" fill="#F5F5F5"/>
<path d="M86.1971 33.3174C86.2455 33.7246 85.6913 34.1603 84.9583 34.2912L61.4844 38.4829C60.7098 38.6211 60.03 38.3957 59.967 37.9784L59.9598 37.9314C59.8968 37.5137 60.4761 37.0634 61.2522 36.9263L84.7743 32.7678C85.5088 32.6378 86.1429 32.8635 86.1914 33.2712L86.1968 33.3172L86.1971 33.3174Z" fill="#F5F5F5"/>
<path d="M105.573 61.2786L96.4928 62.848C96.4294 62.859 96.3697 62.8211 96.3597 62.7629C96.3496 62.7047 96.3928 62.649 96.4565 62.638L105.537 61.0686C106.654 60.8755 107.434 59.7644 107.24 58.6424L102.831 33.1322C102.821 33.0744 102.864 33.0184 102.928 33.0074C102.992 32.9963 103.051 33.0343 103.061 33.0925L107.47 58.6026C107.684 59.8382 106.815 61.0637 105.573 61.2783L105.573 61.2786Z" fill="#BDD0FB"/>
<path d="M24.3909 46.5851C24.3299 46.5956 24.2718 46.556 24.2615 46.496L21.6345 31.2965C21.3644 29.7336 22.3552 28.3482 23.9391 28.0745L30.8952 26.8722C30.9563 26.8617 31.0144 26.9013 31.0247 26.9613C31.0351 27.0213 30.9941 27.0781 30.9327 27.0887L23.9766 28.291C22.495 28.547 21.6029 29.7951 21.8558 31.2586L24.4827 46.4581C24.4931 46.5177 24.4521 46.5748 24.3907 46.5855L24.3909 46.5851Z" fill="#BDD0FB"/>
<path d="M54.4417 27.8723L25.6794 32.8433C25.4657 32.8802 25.3218 33.0796 25.3579 33.2886L30.6154 63.7088C30.6516 63.9178 30.8541 64.0573 31.0678 64.0203L59.8301 59.0493C60.0438 59.0124 60.1877 58.813 60.1516 58.604L54.894 28.1838C54.8579 27.9748 54.6554 27.8353 54.4417 27.8723Z" fill="white"/>
<mask id="mask0_1147_167560" style="mask-type:luminance" maskUnits="userSpaceOnUse" x="25" y="28" width="36" height="37">
<path d="M54.3711 28.0823L25.916 33.0003C25.7046 33.0368 25.5628 33.2378 25.5994 33.4492L30.9178 64.2214C30.9543 64.4328 31.1553 64.5746 31.3667 64.5381L59.8219 59.6201C60.0333 59.5836 60.175 59.3826 60.1385 59.1712L54.8201 28.3989C54.7835 28.1875 54.5825 28.0458 54.3711 28.0823Z" fill="white"/>
</mask>
<g mask="url(#mask0_1147_167560)">
<path d="M62.5676 57.8746C60.8132 52.9334 57.6755 48.6867 57.6755 48.6867L56.4509 59.8108C56.4509 59.8108 56.5242 59.921 56.6578 60.1716L61.7444 59.2813C62.3946 59.1676 62.7887 58.4963 62.5679 57.8742L62.5676 57.8746Z" fill="url(#paint1_linear_1147_167560)"/>
<path d="M36.3304 63.6858C36.4586 62.4318 36.5829 61.6169 36.5829 61.6169L30.0302 53.4654C30.0302 53.4654 29.1292 55.013 29.2579 62.9995C29.274 63.9954 30.1495 64.7541 31.1307 64.5845L36.3301 63.6859L36.3304 63.6858Z" fill="url(#paint2_linear_1147_167560)"/>
<path d="M53.5322 60.7126L49.7241 46.7497C43.2882 45.5595 36.0931 49.3798 36.0931 49.3798L37.873 63.4189L53.5322 60.7126Z" fill="url(#paint3_linear_1147_167560)"/>
<path d="M39.2365 43.9491L39.7705 47.7151C39.8233 48.0877 40.1107 48.3817 40.4816 48.4447C41.4979 48.617 43.5698 48.7881 45.333 47.7902C45.6884 47.5888 45.8498 47.1615 45.7222 46.7732L44.4968 43.0399L39.2365 43.9491Z" fill="url(#paint4_linear_1147_167560)"/>
<path d="M36.1388 37.4426C36.1388 37.4426 37.9554 44.0359 39.6978 45.4956C39.6978 45.4956 44.1058 45.1401 45.5247 43.9468C45.5247 43.9468 46.0628 40.4002 45.1586 35.9514C45.1586 35.9514 44.6709 31.8452 40.1231 32.2846C34.7946 32.7992 36.1388 37.4426 36.1388 37.4426Z" fill="url(#paint5_linear_1147_167560)"/>
<path d="M45.0508 38.0705C45.0508 38.0705 45.2408 36.8185 45.8982 36.7049C46.5556 36.5913 46.3123 39.8839 45.3917 40.0431L45.0508 38.0705Z" fill="url(#paint6_linear_1147_167560)"/>
<path d="M37.1548 39.7571C37.1548 39.7571 36.4107 38.7326 35.7744 38.9339C35.138 39.1352 36.8678 41.9476 37.7584 41.6659L37.1545 39.7572L37.1548 39.7571Z" fill="url(#paint7_linear_1147_167560)"/>
<path d="M36.3683 38.264C36.3683 38.264 37.9998 44.6261 40.1507 46.5717C40.3481 46.7501 40.6027 46.83 40.8516 46.8004C41.7594 46.6928 44.0734 46.3812 45.3203 45.8711C45.6308 45.7441 45.8527 45.4463 45.8993 45.0831C45.9822 44.4374 46.0666 43.9202 46.0385 43.7026C45.9096 42.6947 45.6587 39.882 45.2994 36.0506C45.1852 35.9241 45.071 35.7973 44.9565 35.6709C45.0263 36.5593 45.4529 42.2188 44.627 42.4942C44.4493 42.5535 44.244 42.5479 44.244 42.5479C43.7116 42.5332 43.4839 42.1547 43.0804 41.953C42.3764 41.601 41.3189 41.8784 40.8029 42.463C40.5886 42.7056 40.4762 42.9922 40.0731 43.2524C39.8157 43.4187 39.5604 43.4964 39.4762 43.5073C38.8519 43.5883 37.8138 41.2559 36.8939 37.9954L36.3676 38.2634L36.3683 38.264Z" fill="url(#paint8_linear_1147_167560)"/>
<path d="M43.0824 34.5192C43.0824 34.5192 40.2342 38.0055 36.5816 38.6253C36.5816 38.6253 33.7015 34.3123 37.6442 32.831C41.5868 31.3496 41.8909 32.3257 41.8909 32.3257C41.8909 32.3257 46.4873 30.5138 45.3533 36.5889L43.0827 34.5191L43.0824 34.5192Z" fill="url(#paint9_linear_1147_167560)"/>
<path d="M36.3169 63.6857L39.9064 63.0653L39.0923 48.089C34.449 49.3333 30.0301 53.463 30.0301 53.463L35.2973 61.8255C35.6745 62.4242 36.0161 63.0531 36.3172 63.6857L36.3169 63.6857Z" fill="url(#paint10_linear_1147_167560)"/>
<path d="M56.7749 60.1523C56.832 59.2755 56.9389 58.4575 57.0822 57.6193L57.6754 48.6874C52.9836 46.1728 46.3877 46.5352 46.3877 46.5352L51.3905 61.0829L56.7749 60.1523Z" fill="url(#paint11_linear_1147_167560)"/>
</g>
<path d="M56.695 64.288L54.7088 65.988C54.5272 66.1435 54.5059 66.4168 54.6614 66.5985L56.2531 68.4582C56.4086 68.6398 56.6819 68.6611 56.8636 68.5056L58.8498 66.8056C59.0315 66.6501 59.0527 66.3768 58.8972 66.1951L57.3055 64.3354C57.15 64.1537 56.8767 64.1325 56.695 64.288Z" fill="#66A9B9"/>
<path d="M57.3688 130.088C57.3688 130.088 66.1112 114.435 66.1112 104.594C66.1112 94.7524 57.7351 80.4814 57.3688 73.271C57.1523 69.1079 58.3013 60.9816 57.0024 54.6704C55.7369 48.5258 52.7894 45.5117 49.5589 45.5117C46.5282 45.5117 43.8638 49.1086 43.0645 54.8703C42.1154 61.6144 43.7639 68.1255 43.5308 71.8223C42.9979 80.5314 35.8874 91.4885 35.1547 103.861C34.422 116.234 37.7025 127.89 40.6166 127.89C43.5308 127.89 50.0918 136.633 57.3688 130.072V130.088Z" fill="#F8BD83"/>
<path d="M50.8244 44.9102H49.3424C47.0248 44.9102 45.146 46.7889 45.146 49.1065V53.8191C45.146 56.1367 47.0248 58.0155 49.3424 58.0155H50.8244C53.142 58.0155 55.0208 56.1367 55.0208 53.8191V49.1065C55.0208 46.7889 53.142 44.9102 50.8244 44.9102Z" fill="#FACC9F"/>
<path d="M45.8789 66.3277C45.8789 66.3277 47.644 65.2453 50.2418 65.3785C52.8395 65.5118 54.3882 66.7607 54.3882 66.7607C54.3882 66.7607 52.9395 66.0946 50.1585 65.9614C47.3776 65.8282 45.8789 66.3277 45.8789 66.3277Z" fill="#F59A50"/>
<path d="M45.8125 67.691C45.8125 67.691 47.5776 66.6086 50.1754 66.7418C52.7731 66.875 54.3218 68.124 54.3218 68.124C54.3218 68.124 52.873 67.4579 50.0921 67.3247C47.3112 67.1914 45.8125 67.691 45.8125 67.691Z" fill="#F59A50"/>
<path d="M65.5785 104.054C65.5785 103.712 65.5459 103.357 65.5132 103.002L65.3174 102.961C65.3174 102.961 62.4122 115.981 54.2515 121.131C46.0907 126.282 36.3795 125.476 35.6287 127.252C34.8779 129.014 51.8196 129.697 52.0154 132.088C52.2113 134.438 45.699 191.093 45.4869 192.883H55.345L57.8095 123.659C59.9639 120.188 65.5459 110.571 65.5459 104.054H65.5785Z" fill="#F7AC6F"/>
<path d="M124.917 99.7969C124.6 99.9609 124.207 100.043 123.736 100.043C123.127 100.043 122.638 99.8506 122.271 99.4658C121.904 99.0811 121.72 98.5762 121.72 97.9512C121.72 97.2793 121.926 96.7363 122.339 96.3223C122.753 95.9082 123.275 95.7012 123.906 95.7012C124.312 95.7012 124.649 95.7588 124.917 95.874V96.5654C124.633 96.3975 124.321 96.3135 123.979 96.3135C123.524 96.3135 123.155 96.459 122.872 96.75C122.59 97.041 122.45 97.4297 122.45 97.916C122.45 98.3789 122.582 98.748 122.845 99.0234C123.109 99.2969 123.456 99.4336 123.885 99.4336C124.282 99.4336 124.626 99.3398 124.917 99.1523V99.7969ZM128.06 99.9727H127.401V99.5039H127.389C127.182 99.8633 126.878 100.043 126.478 100.043C126.183 100.043 125.952 99.9629 125.784 99.8027C125.618 99.6426 125.535 99.4307 125.535 99.167C125.535 98.6006 125.861 98.2705 126.513 98.1768L127.404 98.0508C127.404 97.623 127.201 97.4092 126.794 97.4092C126.437 97.4092 126.115 97.5322 125.828 97.7783V97.1836C126.144 96.9961 126.509 96.9023 126.923 96.9023C127.681 96.9023 128.06 97.2754 128.06 98.0215V99.9727ZM127.404 98.499L126.774 98.5869C126.579 98.6123 126.431 98.6602 126.332 98.7305C126.234 98.7988 126.185 98.9199 126.185 99.0938C126.185 99.2207 126.23 99.3252 126.32 99.4072C126.412 99.4873 126.534 99.5273 126.686 99.5273C126.893 99.5273 127.064 99.4551 127.199 99.3105C127.335 99.1641 127.404 98.9805 127.404 98.7598V98.499ZM130.752 97.6201C130.67 97.5557 130.552 97.5234 130.398 97.5234C130.197 97.5234 130.029 97.6143 129.894 97.7959C129.759 97.9775 129.692 98.2246 129.692 98.5371V99.9727H129.012V96.9727H129.692V97.5908H129.704C129.77 97.3799 129.871 97.2158 130.008 97.0986C130.147 96.9795 130.301 96.9199 130.471 96.9199C130.594 96.9199 130.688 96.9385 130.752 96.9756V97.6201ZM134.028 99.9727H133.348V99.4629H133.336C133.117 99.8496 132.781 100.043 132.325 100.043C131.956 100.043 131.66 99.9092 131.438 99.6416C131.217 99.3721 131.107 99.0059 131.107 98.543C131.107 98.0469 131.229 97.6494 131.473 97.3506C131.719 97.0518 132.046 96.9023 132.454 96.9023C132.859 96.9023 133.153 97.0645 133.336 97.3887H133.348V95.5312H134.028V99.9727ZM133.357 98.6016V98.209C133.357 97.9961 133.287 97.8154 133.149 97.667C133.01 97.5186 132.833 97.4443 132.618 97.4443C132.365 97.4443 132.164 97.5391 132.018 97.7285C131.873 97.918 131.801 98.1807 131.801 98.5166C131.801 98.8213 131.87 99.0625 132.009 99.2402C132.15 99.416 132.338 99.5039 132.574 99.5039C132.807 99.5039 132.995 99.4189 133.14 99.249C133.284 99.0771 133.357 98.8613 133.357 98.6016ZM122.859 107.973H122.044L121.373 106.848C121.313 106.744 121.253 106.656 121.195 106.584C121.138 106.51 121.079 106.449 121.019 106.402C120.96 106.355 120.896 106.321 120.825 106.3C120.755 106.278 120.676 106.268 120.588 106.268H120.307V107.973H119.612V103.771H120.995C121.193 103.771 121.374 103.795 121.54 103.842C121.706 103.889 121.851 103.96 121.974 104.056C122.097 104.149 122.193 104.268 122.261 104.41C122.331 104.551 122.366 104.716 122.366 104.905C122.366 105.054 122.344 105.19 122.299 105.315C122.256 105.438 122.194 105.549 122.112 105.646C122.031 105.742 121.934 105.824 121.819 105.893C121.705 105.961 121.577 106.014 121.435 106.051V106.062C121.511 106.105 121.577 106.153 121.634 106.206C121.691 106.257 121.744 106.31 121.795 106.364C121.846 106.419 121.896 106.481 121.945 106.552C121.995 106.62 122.051 106.7 122.112 106.792L122.859 107.973ZM120.307 104.337V105.702H120.887C120.994 105.702 121.093 105.686 121.183 105.652C121.275 105.619 121.354 105.571 121.42 105.509C121.487 105.446 121.538 105.37 121.575 105.28C121.612 105.19 121.631 105.09 121.631 104.979C121.631 104.777 121.568 104.62 121.441 104.507C121.314 104.394 121.131 104.337 120.893 104.337H120.307ZM125.776 106.657H123.732C123.739 106.935 123.824 107.148 123.986 107.299C124.15 107.449 124.375 107.524 124.66 107.524C124.981 107.524 125.274 107.429 125.542 107.237V107.785C125.269 107.957 124.907 108.043 124.458 108.043C124.017 108.043 123.67 107.907 123.418 107.636C123.168 107.362 123.043 106.979 123.043 106.484C123.043 106.018 123.181 105.638 123.456 105.345C123.733 105.05 124.077 104.902 124.487 104.902C124.898 104.902 125.215 105.034 125.44 105.298C125.664 105.562 125.776 105.928 125.776 106.396V106.657ZM125.12 106.177C125.118 105.933 125.061 105.743 124.947 105.608C124.834 105.472 124.678 105.403 124.479 105.403C124.283 105.403 124.117 105.475 123.981 105.617C123.846 105.76 123.763 105.946 123.732 106.177H125.12ZM128.847 107.973H128.187V107.504H128.176C127.969 107.863 127.665 108.043 127.265 108.043C126.97 108.043 126.738 107.963 126.57 107.803C126.404 107.643 126.321 107.431 126.321 107.167C126.321 106.601 126.647 106.271 127.3 106.177L128.19 106.051C128.19 105.623 127.987 105.409 127.581 105.409C127.224 105.409 126.901 105.532 126.614 105.778V105.184C126.931 104.996 127.296 104.902 127.71 104.902C128.468 104.902 128.847 105.275 128.847 106.021V107.973ZM128.19 106.499L127.56 106.587C127.365 106.612 127.218 106.66 127.118 106.73C127.02 106.799 126.972 106.92 126.972 107.094C126.972 107.221 127.017 107.325 127.106 107.407C127.198 107.487 127.32 107.527 127.473 107.527C127.68 107.527 127.851 107.455 127.985 107.311C128.122 107.164 128.19 106.98 128.19 106.76V106.499ZM132.526 107.973H131.847V107.463H131.835C131.616 107.85 131.279 108.043 130.824 108.043C130.455 108.043 130.159 107.909 129.936 107.642C129.716 107.372 129.605 107.006 129.605 106.543C129.605 106.047 129.727 105.649 129.972 105.351C130.218 105.052 130.545 104.902 130.953 104.902C131.357 104.902 131.651 105.064 131.835 105.389H131.847V103.531H132.526V107.973ZM131.855 106.602V106.209C131.855 105.996 131.786 105.815 131.647 105.667C131.509 105.519 131.332 105.444 131.117 105.444C130.863 105.444 130.663 105.539 130.516 105.729C130.372 105.918 130.3 106.181 130.3 106.517C130.3 106.821 130.369 107.062 130.508 107.24C130.648 107.416 130.837 107.504 131.073 107.504C131.305 107.504 131.494 107.419 131.639 107.249C131.783 107.077 131.855 106.861 131.855 106.602ZM136.074 106.657H134.029C134.037 106.935 134.122 107.148 134.284 107.299C134.448 107.449 134.673 107.524 134.958 107.524C135.278 107.524 135.572 107.429 135.84 107.237V107.785C135.566 107.957 135.205 108.043 134.756 108.043C134.314 108.043 133.967 107.907 133.716 107.636C133.466 107.362 133.341 106.979 133.341 106.484C133.341 106.018 133.478 105.638 133.754 105.345C134.031 105.05 134.375 104.902 134.785 104.902C135.195 104.902 135.512 105.034 135.737 105.298C135.962 105.562 136.074 105.928 136.074 106.396V106.657ZM135.418 106.177C135.416 105.933 135.358 105.743 135.245 105.608C135.132 105.472 134.975 105.403 134.776 105.403C134.581 105.403 134.415 105.475 134.278 105.617C134.143 105.76 134.06 105.946 134.029 106.177H135.418ZM138.582 105.62C138.5 105.556 138.381 105.523 138.227 105.523C138.026 105.523 137.858 105.614 137.723 105.796C137.588 105.978 137.521 106.225 137.521 106.537V107.973H136.841V104.973H137.521V105.591H137.533C137.599 105.38 137.701 105.216 137.837 105.099C137.976 104.979 138.13 104.92 138.3 104.92C138.423 104.92 138.517 104.938 138.582 104.976V105.62Z" fill="white"/>
<defs>
<linearGradient id="paint0_linear_1147_167560" x1="61.5875" y1="7.67511" x2="68.4964" y2="117.549" gradientUnits="userSpaceOnUse">
<stop stop-color="#A77AF1"/>
<stop offset="1" stop-color="#4042E2"/>
</linearGradient>
<linearGradient id="paint1_linear_1147_167560" x1="52.6424" y1="44.8149" x2="59.5275" y2="58.629" gradientUnits="userSpaceOnUse">
<stop stop-color="#09005D"/>
<stop offset="1" stop-color="#1A0F91"/>
</linearGradient>
<linearGradient id="paint2_linear_1147_167560" x1="28.5548" y1="53.7329" x2="35.5425" y2="67.7529" gradientUnits="userSpaceOnUse">
<stop stop-color="#09005D"/>
<stop offset="1" stop-color="#1A0F91"/>
</linearGradient>
<linearGradient id="paint3_linear_1147_167560" x1="61.5459" y1="-34.7478" x2="58.4948" y2="-18.3754" gradientUnits="userSpaceOnUse">
<stop stop-color="#FF928E"/>
<stop offset="1" stop-color="#FE7062"/>
</linearGradient>
<linearGradient id="paint4_linear_1147_167560" x1="42.4707" y1="46.0724" x2="45.0578" y2="57.0857" gradientUnits="userSpaceOnUse">
<stop stop-color="#FEBBBA"/>
<stop offset="1" stop-color="#FF928E"/>
</linearGradient>
<linearGradient id="paint5_linear_1147_167560" x1="39.6273" y1="37.4123" x2="51.0914" y2="48.232" gradientUnits="userSpaceOnUse">
<stop stop-color="#FEBBBA"/>
<stop offset="1" stop-color="#FF928E"/>
</linearGradient>
<linearGradient id="paint6_linear_1147_167560" x1="42.0076" y1="34.8911" x2="53.4717" y2="45.7109" gradientUnits="userSpaceOnUse">
<stop stop-color="#FEBBBA"/>
<stop offset="1" stop-color="#FF928E"/>
</linearGradient>
<linearGradient id="paint7_linear_1147_167560" x1="36.8603" y1="40.3471" x2="48.3244" y2="51.1668" gradientUnits="userSpaceOnUse">
<stop stop-color="#FEBBBA"/>
<stop offset="1" stop-color="#FF928E"/>
</linearGradient>
<linearGradient id="paint8_linear_1147_167560" x1="37.061" y1="42.2717" x2="46.1048" y2="40.7086" gradientUnits="userSpaceOnUse">
<stop stop-color="#09005D"/>
<stop offset="1" stop-color="#1A0F91"/>
</linearGradient>
<linearGradient id="paint9_linear_1147_167560" x1="42.2263" y1="44.8421" x2="39.329" y2="28.0786" gradientUnits="userSpaceOnUse">
<stop stop-color="#09005D"/>
<stop offset="1" stop-color="#1A0F91"/>
</linearGradient>
<linearGradient id="paint10_linear_1147_167560" x1="34.2608" y1="50.1736" x2="41.6841" y2="65.0672" gradientUnits="userSpaceOnUse">
<stop stop-color="#09005D"/>
<stop offset="1" stop-color="#1A0F91"/>
</linearGradient>
<linearGradient id="paint11_linear_1147_167560" x1="48.7314" y1="43.2454" x2="56.8542" y2="59.5427" gradientUnits="userSpaceOnUse">
<stop stop-color="#09005D"/>
<stop offset="1" stop-color="#1A0F91"/>
</linearGradient>
</defs>
</svg>
