<svg width="212" height="130" viewBox="0 0 212 130" fill="none" xmlns="http://www.w3.org/2000/svg">
<path d="M125.206 125.313C121.911 106.055 113.116 88.4688 113.116 88.4688L101.6 128.542C101.6 128.542 101.798 128.993 102.129 129.998L121.304 129.957C123.756 129.952 125.622 127.737 125.208 125.312L125.206 125.313Z" fill="url(#paint0_linear_1147_167898)"/>
<path d="M25.5218 129.999C26.784 125.475 27.7541 122.562 27.7541 122.562L8.93166 88.4688C8.93166 88.4688 4.6558 93.5801 0.0757966 122.99C-0.495201 126.657 2.22876 129.999 5.92642 129.999H25.5206H25.5218Z" fill="url(#paint1_linear_1147_167898)"/>
<path d="M90.3472 129.998L85.2431 76.3064C62.4453 67.8511 33.7007 77.3138 33.7007 77.3138L31.335 129.998H90.3472Z" fill="url(#paint2_linear_1147_167898)"/>
<path d="M48.6365 59.375L48.2085 73.5437C48.1664 74.9455 49.0319 76.2073 50.3494 76.6742C53.9594 77.9517 61.4328 79.8952 68.5156 77.3498C69.9437 76.8359 70.8044 75.3689 70.5832 73.8622L68.4603 59.375H48.6365Z" fill="url(#paint3_linear_1147_167898)"/>
<path d="M41.4183 33.5126C41.4183 33.5126 43.8959 58.8775 49.3486 65.3436C49.3486 65.3436 65.7031 66.8359 71.6499 63.3543C71.6499 63.3543 75.8621 50.6719 75.3668 33.7611C75.3668 33.7611 76.1795 18.3728 59.2599 17.1001C39.4361 15.6078 41.4183 33.5126 41.4183 33.5126Z" fill="url(#paint4_linear_1147_167898)"/>
<path d="M73.6328 41.469C73.6328 41.469 75.1198 36.9922 77.5973 36.9922C80.0749 36.9922 77.1021 48.9291 73.6328 48.9291V41.469Z" fill="url(#paint5_linear_1147_167898)"/>
<path d="M43.6738 42.6444C43.6738 42.6444 41.5989 38.4101 39.143 38.7455C36.6872 39.0808 41.2383 50.5063 44.6751 50.037L43.6725 42.6444H43.6738Z" fill="url(#paint6_linear_1147_167898)"/>
<path d="M41.7387 36.6769C41.7387 36.6769 43.6849 61.0756 50.3253 69.5852C50.9348 70.3657 51.8159 70.8205 52.7452 70.87C56.1351 71.051 64.7998 71.3755 69.6851 70.2934C70.9017 70.0243 71.9018 69.0713 72.3021 67.7672C73.0137 65.4486 73.6497 63.6029 73.6845 62.7862C73.8504 59.003 74.7111 48.5149 75.8194 34.2172C75.4817 33.6803 75.1439 33.1423 74.8049 32.6055C74.4983 35.9121 72.48 56.9655 69.2836 57.4529C68.596 57.5578 67.8483 57.407 67.8483 57.407C65.9093 57.015 65.3155 55.4805 63.9667 54.484C61.613 52.7444 57.568 53.0919 55.3104 54.9111C54.3728 55.6662 53.7802 56.647 52.1405 57.3467C51.0935 57.7943 50.1101 57.9173 49.7952 57.904C47.4595 57.8051 45.1359 48.5813 43.8316 36.0243L41.7363 36.6745L41.7387 36.6769Z" fill="url(#paint7_linear_1147_167898)"/>
<path d="M68.6751 27.1757C68.6751 27.1757 56.0482 38.1704 42.2902 38.1282C42.2902 38.1282 34.479 20.4623 49.843 17.5248C65.207 14.5873 65.7023 18.3644 65.7023 18.3644C65.7023 18.3644 83.6677 14.6283 75.6761 36.2173L68.6763 27.1757H68.6751Z" fill="url(#paint8_linear_1147_167898)"/>
<path d="M25.4723 130.001H38.9995L45.4921 74.4883C27.7142 76.1108 8.93262 88.4712 8.93262 88.4712L22.9178 122.523C23.9192 124.961 24.7715 127.487 25.4735 130.001H25.4723Z" fill="url(#paint9_linear_1147_167898)"/>
<path d="M102.569 130C103.333 126.816 104.241 123.88 105.296 120.893L113.115 88.4698C97.5372 76.2578 73.1719 73.4023 73.1719 73.4023L82.2778 130H102.569Z" fill="url(#paint10_linear_1147_167898)"/>
<path d="M76.9676 77C72.7327 77 68.6713 78.6969 65.6768 81.7174C62.6823 84.7379 61 88.8346 61 93.1062C61 97.3778 62.6823 101.475 65.6768 104.495C68.6713 107.516 72.7327 109.212 76.9676 109.212H195.964C200.199 109.212 204.261 107.516 207.255 104.495C210.25 101.475 211.932 97.3778 211.932 93.1062C211.932 88.8346 210.25 84.7379 207.255 81.7174C204.261 78.6969 200.199 77 195.964 77H76.9676Z" fill="#E5E5E5"/>
<path d="M76.4964 80.4297C73.1112 80.4297 69.8646 81.7655 67.4709 84.1434C65.0772 86.5212 63.7324 89.7463 63.7324 93.1091C63.7324 96.4718 65.0772 99.6969 67.4709 102.075C69.8646 104.453 73.1112 105.788 76.4964 105.788H195.754C199.139 105.788 202.386 104.453 204.779 102.075C207.173 99.6969 208.518 96.4718 208.518 93.1091C208.518 89.7463 207.173 86.5212 204.779 84.1434C202.386 81.7655 199.139 80.4297 195.754 80.4297H76.4964Z" fill="white"/>
<path d="M102.781 100.303H79.3247C79.2502 100.303 79.1763 100.294 79.1073 100.277C79.0383 100.26 78.9756 100.235 78.9227 100.203C78.8698 100.171 78.8279 100.133 78.7992 100.092C78.7706 100.05 78.7559 100.005 78.7559 99.9599C78.7559 99.9147 78.7706 99.8699 78.7992 99.8282C78.8279 99.7865 78.8698 99.7486 78.9227 99.7167C78.9756 99.6849 79.0383 99.6597 79.1073 99.6426C79.1763 99.6255 79.2502 99.6169 79.3247 99.6172H102.781C102.93 99.6178 103.073 99.6542 103.178 99.7184C103.283 99.7826 103.342 99.8694 103.342 99.9599C103.342 100.05 103.283 100.137 103.178 100.201C103.073 100.266 102.93 100.302 102.781 100.303Z" fill="#4B0EAE"/>
<path d="M132.824 100.988H109.375C109.301 100.989 109.227 100.971 109.158 100.937C109.089 100.903 109.026 100.853 108.973 100.789C108.921 100.725 108.879 100.649 108.85 100.566C108.821 100.482 108.807 100.393 108.807 100.303C108.807 100.212 108.821 100.123 108.85 100.039C108.879 99.9557 108.921 99.88 108.973 99.8163C109.026 99.7526 109.089 99.7022 109.158 99.668C109.227 99.6339 109.301 99.6166 109.375 99.6172H132.824C132.899 99.6166 132.973 99.6339 133.042 99.668C133.11 99.7022 133.173 99.7526 133.226 99.8163C133.279 99.88 133.321 99.9557 133.349 100.039C133.378 100.123 133.393 100.212 133.393 100.303C133.393 100.393 133.378 100.482 133.349 100.566C133.321 100.649 133.279 100.725 133.226 100.789C133.173 100.853 133.11 100.903 133.042 100.937C132.973 100.971 132.899 100.989 132.824 100.988Z" fill="#4B0EAE"/>
<path d="M163.54 100.988H139.432C139.279 100.987 139.132 100.914 139.024 100.786C138.916 100.657 138.855 100.484 138.855 100.303C138.855 100.122 138.916 99.948 139.024 99.8196C139.132 99.6912 139.279 99.6184 139.432 99.6172H163.54C163.617 99.6166 163.693 99.6339 163.763 99.668C163.834 99.7022 163.899 99.7526 163.953 99.8163C164.007 99.88 164.051 99.9557 164.08 100.039C164.109 100.123 164.125 100.212 164.125 100.303C164.125 100.393 164.109 100.482 164.08 100.566C164.051 100.649 164.007 100.725 163.953 100.789C163.899 100.853 163.834 100.903 163.763 100.937C163.693 100.971 163.617 100.989 163.54 100.988Z" fill="#4B0EAE"/>
<path d="M193.598 100.99H169.483C169.33 100.989 169.183 100.953 169.075 100.889C168.967 100.825 168.906 100.738 168.906 100.647C168.906 100.557 168.967 100.47 169.075 100.406C169.183 100.342 169.33 100.305 169.483 100.305H193.598C193.752 100.305 193.899 100.342 194.007 100.406C194.115 100.47 194.175 100.557 194.175 100.647C194.175 100.738 194.115 100.825 194.007 100.889C193.899 100.953 193.752 100.989 193.598 100.99Z" fill="#4B0EAE"/>
<path d="M91.3903 95.5036C93.842 95.5036 95.8295 93.509 95.8295 91.0487C95.8295 88.5883 93.842 86.5938 91.3903 86.5938C88.9387 86.5938 86.9512 88.5883 86.9512 91.0487C86.9512 93.509 88.9387 95.5036 91.3903 95.5036Z" fill="#4B0EAE"/>
<path d="M121.441 95.5036C123.893 95.5036 125.88 93.509 125.88 91.0487C125.88 88.5883 123.893 86.5938 121.441 86.5938C118.989 86.5938 117.002 88.5883 117.002 91.0487C117.002 93.509 118.989 95.5036 121.441 95.5036Z" fill="#4B0EAE"/>
<path d="M151.49 95.5036C153.942 95.5036 155.929 93.509 155.929 91.0487C155.929 88.5883 153.942 86.5938 151.49 86.5938C149.038 86.5938 147.051 88.5883 147.051 91.0487C147.051 93.509 149.038 95.5036 151.49 95.5036Z" fill="#4B0EAE"/>
<path d="M182.222 95.5036C184.674 95.5036 186.662 93.509 186.662 91.0487C186.662 88.5883 184.674 86.5938 182.222 86.5938C179.771 86.5938 177.783 88.5883 177.783 91.0487C177.783 93.509 179.771 95.5036 182.222 95.5036Z" fill="#4B0EAE"/>
<defs>
<linearGradient id="paint0_linear_1147_167898" x1="97.1482" y1="71.0562" x2="113.713" y2="126.123" gradientUnits="userSpaceOnUse">
<stop stop-color="#09005D"/>
<stop offset="1" stop-color="#1A0F91"/>
</linearGradient>
<linearGradient id="paint1_linear_1147_167898" x1="3.36354" y1="88.5158" x2="20.1755" y2="144.401" gradientUnits="userSpaceOnUse">
<stop stop-color="#09005D"/>
<stop offset="1" stop-color="#1A0F91"/>
</linearGradient>
<linearGradient id="paint2_linear_1147_167898" x1="180.043" y1="-215.465" x2="158.39" y2="-157.329" gradientUnits="userSpaceOnUse">
<stop stop-color="#FF928E"/>
<stop offset="1" stop-color="#FE7062"/>
</linearGradient>
<linearGradient id="paint3_linear_1147_167898" x1="59.1296" y1="69.2261" x2="61.6476" y2="111.31" gradientUnits="userSpaceOnUse">
<stop stop-color="#FEBBBA"/>
<stop offset="1" stop-color="#FF928E"/>
</linearGradient>
<linearGradient id="paint4_linear_1147_167898" x1="54.2027" y1="35.6153" x2="89.4692" y2="82.505" gradientUnits="userSpaceOnUse">
<stop stop-color="#FEBBBA"/>
<stop offset="1" stop-color="#FF928E"/>
</linearGradient>
<linearGradient id="paint5_linear_1147_167898" x1="64.5077" y1="27.8637" x2="99.7754" y2="74.7521" gradientUnits="userSpaceOnUse">
<stop stop-color="#FEBBBA"/>
<stop offset="1" stop-color="#FF928E"/>
</linearGradient>
<linearGradient id="paint6_linear_1147_167898" x1="42.2228" y1="44.6241" x2="77.4906" y2="91.5138" gradientUnits="userSpaceOnUse">
<stop stop-color="#FEBBBA"/>
<stop offset="1" stop-color="#FF928E"/>
</linearGradient>
<linearGradient id="paint7_linear_1147_167898" x1="41.7387" y1="51.8336" x2="75.8194" y2="51.8336" gradientUnits="userSpaceOnUse">
<stop stop-color="#4B0EAE"/>
<stop offset="1" stop-color="#380D7D"/>
</linearGradient>
<linearGradient id="paint8_linear_1147_167898" x1="59.015" y1="64.5414" x2="59.015" y2="1.14242" gradientUnits="userSpaceOnUse">
<stop stop-color="#09005D"/>
<stop offset="1" stop-color="#1A0F91"/>
</linearGradient>
<linearGradient id="paint9_linear_1147_167898" x1="26.4941" y1="79.0785" x2="44.3538" y2="138.447" gradientUnits="userSpaceOnUse">
<stop stop-color="#09005D"/>
<stop offset="1" stop-color="#1A0F91"/>
</linearGradient>
<linearGradient id="paint10_linear_1147_167898" x1="83.8285" y1="62.8093" x2="103.371" y2="127.774" gradientUnits="userSpaceOnUse">
<stop stop-color="#09005D"/>
<stop offset="1" stop-color="#1A0F91"/>
</linearGradient>
</defs>
</svg>
